<svg width="148" height="37" viewBox="0 0 148 37" fill="none" xmlns="http://www.w3.org/2000/svg">
<path d="M1.77986 21.8103C1.68125 21.8103 1.58421 21.7915 1.49029 21.7555C1.23203 21.6538 1.0489 21.4221 1.00508 21.1482C0.854815 20.1778 0.78125 19.3122 0.78125 18.5014C0.78125 9.00841 8.5056 1.28406 17.9986 1.28406C26.5119 1.28406 33.6571 7.39467 34.9859 15.814C35.0313 16.1051 34.9124 16.3947 34.6745 16.5684C34.5383 16.667 34.3755 16.7187 34.2127 16.7187C34.0922 16.7187 33.9732 16.6905 33.8605 16.6357C31.7131 15.5573 29.1101 14.8404 26.3334 14.5649C26 14.5321 25.723 14.2894 25.6479 13.9623C24.9858 11.1058 22.4846 9.11014 19.5623 9.11014C16.1736 9.11014 13.4329 11.7726 13.3233 15.1707C13.3124 15.5009 13.0964 15.7889 12.7818 15.8891C9.20055 17.0458 5.75864 18.9288 2.25568 21.646C2.11951 21.754 1.95203 21.8103 1.77986 21.8103Z" fill="#DF2C2C"/>
<path d="M18.0007 35.7173C10.2263 35.7173 3.39257 30.4597 1.38283 22.9326C1.30301 22.6336 1.40788 22.3143 1.64892 22.1202C5.22075 19.2528 8.74092 17.2555 12.4114 16.0128C12.4927 15.9846 12.5773 15.9721 12.6618 15.9721C12.798 15.9721 12.9326 16.0065 13.0531 16.0769C13.2487 16.1896 13.3849 16.3806 13.4287 16.6013C14.0126 19.5157 16.5921 21.6319 19.5644 21.6319C23.0079 21.6319 25.8159 18.8286 25.8237 15.3851C25.8237 15.1628 25.9192 14.95 26.0851 14.8028C26.2291 14.6745 26.4138 14.6041 26.6063 14.6041C26.6361 14.6041 26.6658 14.6056 26.694 14.6088C29.671 14.9453 32.3679 15.7498 34.495 16.9362C34.8707 16.9848 35.154 17.2743 35.1743 17.6531L35.19 17.9098C35.2025 18.1055 35.2166 18.3027 35.2166 18.503C35.2181 27.9929 27.4938 35.7173 18.0007 35.7173Z" fill="white"/>
<path d="M17.9995 1.28259C17.3374 1.28259 16.6863 1.32798 16.043 1.40155C23.6781 2.26711 29.7887 8.12259 31.0518 15.6294C32.2539 16.3979 33.6924 16.9316 35.1637 17.4309C34.608 8.42312 27.1466 1.28259 17.9995 1.28259Z" fill="#C92828"/>
<path d="M31.0518 15.6293C31.2084 16.5638 31.3038 17.5201 31.3038 18.4999C31.3038 27.3465 24.6298 34.6264 16.043 35.5984C16.6863 35.6719 17.3374 35.7173 17.9995 35.7173C27.5082 35.7173 35.2169 28.0086 35.2169 18.4999C35.2169 18.1384 35.184 17.7862 35.1637 17.4309C33.6924 16.9316 32.2539 16.3979 31.0518 15.6293Z" fill="#E6E6E6"/>
<path d="M19.5656 21.6304C16.1127 21.6304 13.3047 18.8224 13.3047 15.3696C13.3047 11.9167 16.1127 9.1087 19.5656 9.1087C23.0184 9.1087 25.8264 11.9167 25.8264 15.3696C25.8264 18.8224 23.0184 21.6304 19.5656 21.6304ZM19.5656 13.8044C18.7031 13.8044 18.0003 14.5071 18.0003 15.3696C18.0003 16.232 18.7031 16.9348 19.5656 16.9348C20.428 16.9348 21.1308 16.232 21.1308 15.3696C21.1308 14.5071 20.428 13.8044 19.5656 13.8044Z" fill="white"/>
<path d="M18 36.5C8.07496 36.5 0 28.425 0 18.5C0 8.57496 8.07496 0.5 18 0.5C27.925 0.5 36 8.57496 36 18.5C36 28.425 27.925 36.5 18 36.5ZM18 2.06522C8.93739 2.06522 1.56522 9.43739 1.56522 18.5C1.56522 27.5626 8.93739 34.9348 18 34.9348C27.0626 34.9348 34.4348 27.5626 34.4348 18.5C34.4348 9.43739 27.0626 2.06522 18 2.06522Z" fill="#31395A"/>
<path d="M19.565 22.4131C15.6817 22.4131 12.5215 19.253 12.5215 15.3697C12.5215 11.4863 15.6817 8.32617 19.565 8.32617C23.4483 8.32617 26.6084 11.4863 26.6084 15.3697C26.6084 19.253 23.4483 22.4131 19.565 22.4131ZM19.565 9.89139C16.5441 9.89139 14.0867 12.3488 14.0867 15.3697C14.0867 18.3905 16.5441 20.8479 19.565 20.8479C22.5858 20.8479 25.0432 18.3905 25.0432 15.3697C25.0432 12.3488 22.5858 9.89139 19.565 9.89139Z" fill="#31395A"/>
<path d="M19.5646 17.7176C18.2702 17.7176 17.2168 16.6642 17.2168 15.3697C17.2168 14.0753 18.2702 13.0219 19.5646 13.0219C20.8591 13.0219 21.9124 14.0753 21.9124 15.3697C21.9124 16.6642 20.8591 17.7176 19.5646 17.7176ZM19.5646 14.5871C19.1326 14.5871 18.782 14.9377 18.782 15.3697C18.782 15.8017 19.1326 16.1523 19.5646 16.1523C19.9966 16.1523 20.3472 15.8017 20.3472 15.3697C20.3472 14.9377 19.9966 14.5871 19.5646 14.5871Z" fill="#31395A"/>
<path d="M34.4951 17.7174C34.3652 17.7174 34.2353 17.6845 34.1148 17.6188C31.8248 16.3416 28.9355 15.5324 25.7643 15.2788C25.3339 15.2444 25.013 14.8672 25.0475 14.4352C25.0819 14.0063 25.4481 13.6948 25.8911 13.7183C29.2845 13.9891 32.393 14.8656 34.8801 16.2524C35.2574 16.4621 35.3935 16.9395 35.1822 17.3167C35.0351 17.5734 34.769 17.7174 34.4951 17.7174Z" fill="#31395A"/>
<path d="M1.56513 22.9672C1.33661 22.9672 1.10965 22.8686 0.954692 22.676C0.68391 22.3395 0.735562 21.8465 1.07208 21.5757C5.0493 18.3701 8.97487 16.2086 13.0726 14.9689C13.4858 14.8421 13.9225 15.0769 14.0477 15.4917C14.173 15.9049 13.9397 16.3416 13.525 16.4668C9.62287 17.647 5.87104 19.7178 2.05347 22.7934C1.91104 22.9092 1.7373 22.9672 1.56513 22.9672Z" fill="#31395A"/>
<path d="M19.5658 16.1523C19.998 16.1523 20.3484 15.8019 20.3484 15.3696C20.3484 14.9374 19.998 14.587 19.5658 14.587C19.1336 14.587 18.7832 14.9374 18.7832 15.3696C18.7832 15.8019 19.1336 16.1523 19.5658 16.1523Z" fill="white"/>
<path d="M49.124 19.44V17.79H53.612C54.492 17.79 55.2033 17.5187 55.746 16.976C56.3033 16.4187 56.582 15.7 56.582 14.82C56.582 13.9107 56.3033 13.192 55.746 12.664C55.2033 12.1213 54.492 11.85 53.612 11.85H49.476V24.5H47.716V10.2H53.612C54.272 10.2 54.888 10.3027 55.46 10.508C56.032 10.7133 56.5307 11.014 56.956 11.41C57.396 11.806 57.7333 12.29 57.968 12.862C58.2173 13.434 58.342 14.0867 58.342 14.82C58.342 15.5533 58.2173 16.206 57.968 16.778C57.7333 17.35 57.396 17.834 56.956 18.23C56.5307 18.626 56.032 18.9267 55.46 19.132C54.888 19.3373 54.272 19.44 53.612 19.44H49.124ZM65.3361 24.72C64.3974 24.72 63.5174 24.4927 62.6961 24.038C61.8748 23.5833 61.2074 22.9307 60.6941 22.08C60.1954 21.2147 59.9461 20.1953 59.9461 19.022C59.9461 17.8487 60.1954 16.8367 60.6941 15.986C61.2074 15.1207 61.8748 14.4533 62.6961 13.984C63.5174 13.5147 64.3974 13.28 65.3361 13.28C66.2748 13.28 67.1474 13.5147 67.9541 13.984C68.7754 14.4533 69.4354 15.1207 69.9341 15.986C70.4328 16.8367 70.6821 17.8487 70.6821 19.022C70.6821 20.1953 70.4328 21.2147 69.9341 22.08C69.4354 22.9307 68.7754 23.5833 67.9541 24.038C67.1474 24.4927 66.2748 24.72 65.3361 24.72ZM65.3361 23.07C65.9521 23.07 66.5314 22.916 67.0741 22.608C67.6168 22.3 68.0568 21.8453 68.3941 21.244C68.7461 20.628 68.9221 19.8873 68.9221 19.022C68.9221 18.1567 68.7461 17.4233 68.3941 16.822C68.0568 16.206 67.6168 15.7367 67.0741 15.414C66.5314 15.0913 65.9521 14.93 65.3361 14.93C64.7201 14.93 64.1334 15.0913 63.5761 15.414C63.0334 15.722 62.5861 16.184 62.2341 16.8C61.8821 17.4013 61.7061 18.142 61.7061 19.022C61.7061 19.8873 61.8748 20.628 62.2121 21.244C62.5641 21.8453 63.0188 22.3 63.5761 22.608C64.1334 22.916 64.7201 23.07 65.3361 23.07ZM73.3996 9.1H75.1596V24.5H73.3996V9.1ZM82.5076 13.5L77.0076 18.934L77.0516 17.79L82.8816 24.5H80.6376L75.2036 18.362L79.9996 13.5H82.5076ZM92.1007 20.958H93.7507C93.6333 21.6767 93.3693 22.322 92.9587 22.894C92.5627 23.4513 92.0347 23.8987 91.3747 24.236C90.7293 24.5587 89.9813 24.72 89.1307 24.72C88.104 24.72 87.18 24.478 86.3587 23.994C85.5373 23.4953 84.8847 22.8207 84.4007 21.97C83.9313 21.1047 83.6967 20.122 83.6967 19.022C83.6967 17.922 83.924 16.9393 84.3787 16.074C84.848 15.2087 85.486 14.5267 86.2927 14.028C87.0993 13.5293 88.0087 13.28 89.0207 13.28C90.0913 13.28 90.9933 13.522 91.7267 14.006C92.4747 14.4753 93.0247 15.172 93.3767 16.096C93.7433 17.0053 93.89 18.1273 93.8167 19.462H85.4567C85.53 20.1807 85.728 20.8113 86.0507 21.354C86.3733 21.8967 86.7987 22.322 87.3267 22.63C87.8547 22.9233 88.456 23.07 89.1307 23.07C89.8787 23.07 90.5093 22.8793 91.0227 22.498C91.5507 22.102 91.91 21.5887 92.1007 20.958ZM89.0867 14.93C88.1773 14.93 87.4147 15.194 86.7987 15.722C86.1827 16.25 85.772 16.9687 85.5667 17.878H92.0127C91.954 16.91 91.6387 16.1767 91.0667 15.678C90.5093 15.1793 89.8493 14.93 89.0867 14.93ZM88.1407 11.278L90.4727 7.736H92.7827L89.7027 11.278H88.1407ZM99.4784 24.5L94.2204 10.2H96.1124L100.666 22.74H100.138L104.692 10.2H106.54L101.326 24.5H99.4784ZM115.314 20.958H116.964C116.847 21.6767 116.583 22.322 116.172 22.894C115.776 23.4513 115.248 23.8987 114.588 24.236C113.943 24.5587 113.195 24.72 112.344 24.72C111.317 24.72 110.393 24.478 109.572 23.994C108.751 23.4953 108.098 22.8207 107.614 21.97C107.145 21.1047 106.91 20.122 106.91 19.022C106.91 17.922 107.137 16.9393 107.592 16.074C108.061 15.2087 108.699 14.5267 109.506 14.028C110.313 13.5293 111.222 13.28 112.234 13.28C113.305 13.28 114.207 13.522 114.94 14.006C115.688 14.4753 116.238 15.172 116.59 16.096C116.957 17.0053 117.103 18.1273 117.03 19.462H108.67C108.743 20.1807 108.941 20.8113 109.264 21.354C109.587 21.8967 110.012 22.322 110.54 22.63C111.068 22.9233 111.669 23.07 112.344 23.07C113.092 23.07 113.723 22.8793 114.236 22.498C114.764 22.102 115.123 21.5887 115.314 20.958ZM112.3 14.93C111.391 14.93 110.628 15.194 110.012 15.722C109.396 16.25 108.985 16.9687 108.78 17.878H115.226C115.167 16.91 114.852 16.1767 114.28 15.678C113.723 15.1793 113.063 14.93 112.3 14.93ZM119.52 13.5H121.28V24.5H119.52V13.5ZM124.8 15.15C124.052 15.15 123.421 15.3407 122.908 15.722C122.409 16.0887 122.013 16.5433 121.72 17.086C121.441 17.614 121.258 18.1273 121.17 18.626L121.148 17.35C121.148 17.218 121.177 16.998 121.236 16.69C121.294 16.382 121.404 16.0373 121.566 15.656C121.727 15.26 121.94 14.886 122.204 14.534C122.482 14.1673 122.834 13.8667 123.26 13.632C123.685 13.3973 124.198 13.28 124.8 13.28V15.15ZM126.473 20.958H128.101C128.145 21.5887 128.38 22.102 128.805 22.498C129.245 22.894 129.876 23.092 130.697 23.092C131.196 23.092 131.585 23.026 131.863 22.894C132.157 22.762 132.369 22.586 132.501 22.366C132.633 22.1313 132.699 21.8747 132.699 21.596C132.699 21.2587 132.611 20.9947 132.435 20.804C132.274 20.5987 132.047 20.43 131.753 20.298C131.475 20.166 131.152 20.0413 130.785 19.924C130.36 19.7627 129.92 19.594 129.465 19.418C129.025 19.2273 128.607 19.0073 128.211 18.758C127.83 18.494 127.522 18.1787 127.287 17.812C127.053 17.4307 126.935 16.976 126.935 16.448C126.935 16.008 127.023 15.5973 127.199 15.216C127.375 14.82 127.625 14.4827 127.947 14.204C128.285 13.9107 128.673 13.6833 129.113 13.522C129.568 13.3607 130.067 13.28 130.609 13.28C131.343 13.28 131.959 13.4267 132.457 13.72C132.971 14.0133 133.359 14.4313 133.623 14.974C133.902 15.502 134.049 16.118 134.063 16.822H132.545C132.443 16.162 132.23 15.6853 131.907 15.392C131.599 15.084 131.152 14.93 130.565 14.93C129.964 14.93 129.502 15.062 129.179 15.326C128.857 15.59 128.695 15.942 128.695 16.382C128.695 16.7047 128.813 16.976 129.047 17.196C129.282 17.4013 129.583 17.592 129.949 17.768C130.331 17.9293 130.734 18.098 131.159 18.274C131.585 18.45 131.995 18.626 132.391 18.802C132.787 18.978 133.139 19.1833 133.447 19.418C133.755 19.6527 133.997 19.946 134.173 20.298C134.364 20.6353 134.459 21.0607 134.459 21.574C134.459 22.19 134.313 22.74 134.019 23.224C133.741 23.6933 133.323 24.06 132.765 24.324C132.223 24.588 131.555 24.72 130.763 24.72C130.045 24.72 129.429 24.632 128.915 24.456C128.417 24.2653 127.999 24.0233 127.661 23.73C127.324 23.422 127.06 23.0993 126.869 22.762C126.693 22.4247 126.576 22.0947 126.517 21.772C126.459 21.4493 126.444 21.178 126.473 20.958ZM144.72 20.958H146.37C146.253 21.6767 145.989 22.322 145.578 22.894C145.182 23.4513 144.654 23.8987 143.994 24.236C143.349 24.5587 142.601 24.72 141.75 24.72C140.724 24.72 139.8 24.478 138.978 23.994C138.157 23.4953 137.504 22.8207 137.02 21.97C136.551 21.1047 136.316 20.122 136.316 19.022C136.316 17.922 136.544 16.9393 136.998 16.074C137.468 15.2087 138.106 14.5267 138.912 14.028C139.719 13.5293 140.628 13.28 141.64 13.28C142.711 13.28 143.613 13.522 144.346 14.006C145.094 14.4753 145.644 15.172 145.996 16.096C146.363 17.0053 146.51 18.1273 146.436 19.462H138.076C138.15 20.1807 138.348 20.8113 138.67 21.354C138.993 21.8967 139.418 22.322 139.946 22.63C140.474 22.9233 141.076 23.07 141.75 23.07C142.498 23.07 143.129 22.8793 143.642 22.498C144.17 22.102 144.53 21.5887 144.72 20.958ZM141.706 14.93C140.797 14.93 140.034 15.194 139.418 15.722C138.802 16.25 138.392 16.9687 138.186 17.878H144.632C144.574 16.91 144.258 16.1767 143.686 15.678C143.129 15.1793 142.469 14.93 141.706 14.93Z" fill="#1D1D1D"/>
</svg>
