<svg width="501" height="501" viewBox="0 0 501 501" fill="none" xmlns="http://www.w3.org/2000/svg">
<path d="M24.7298 296.126C23.3595 296.126 22.011 295.865 20.706 295.365C17.1173 293.951 14.5725 290.732 13.9635 286.926C11.8755 273.441 10.8533 261.413 10.8533 250.147C10.8533 118.233 118.19 10.8967 250.103 10.8967C368.402 10.8967 467.69 95.8087 486.156 212.802C486.787 216.847 485.134 220.871 481.828 223.285C479.936 224.656 477.674 225.373 475.412 225.373C473.737 225.373 472.084 224.982 470.518 224.221C440.677 209.235 404.506 199.273 365.922 195.445C361.289 194.989 357.44 191.617 356.396 187.072C347.195 147.378 312.439 119.647 271.832 119.647C224.743 119.647 186.659 156.643 185.136 203.863C184.984 208.452 181.982 212.454 177.611 213.846C127.847 229.919 80.0183 256.084 31.3418 293.842C29.4495 295.343 27.1223 296.126 24.7298 296.126Z" fill="#FB7823"/>
<path d="M250.125 489.375C142.093 489.375 47.1323 416.317 19.2053 311.721C18.0961 307.567 19.5533 303.13 22.9028 300.433C72.5363 260.587 121.452 232.834 172.456 215.564C173.587 215.173 174.761 214.999 175.936 214.999C177.828 214.999 179.699 215.477 181.373 216.456C184.092 218.022 185.984 220.676 186.593 223.742C194.706 264.241 230.55 293.647 271.853 293.647C319.703 293.647 358.723 254.693 358.832 206.843C358.832 203.754 360.158 200.796 362.464 198.752C364.465 196.968 367.031 195.989 369.707 195.989C370.12 195.989 370.533 196.011 370.925 196.055C412.293 200.731 449.768 211.91 479.327 228.397C484.547 229.071 488.483 233.095 488.766 238.358L488.984 241.925C489.158 244.644 489.353 247.385 489.353 250.169C489.375 382.039 382.039 489.375 250.125 489.375Z" fill="#FB7823"/>
<path d="M250.125 10.875C240.925 10.875 231.877 11.5057 222.938 12.528C329.034 24.5557 413.946 105.923 431.498 210.236C448.202 220.915 468.19 228.332 488.635 235.27C480.914 110.099 377.232 10.875 250.125 10.875Z" fill="#FB7823"/>
<path d="M431.498 210.236C433.673 223.22 435 236.51 435 250.125C435 373.056 342.258 474.215 222.937 487.722C231.877 488.744 240.925 489.375 250.125 489.375C382.256 489.375 489.375 382.256 489.375 250.125C489.375 245.101 488.918 240.207 488.635 235.27C468.19 228.332 448.202 220.915 431.498 210.236Z" fill="#FB7823"/>
<path d="M271.875 293.625C223.894 293.625 184.875 254.606 184.875 206.625C184.875 158.644 223.894 119.625 271.875 119.625C319.856 119.625 358.875 158.644 358.875 206.625C358.875 254.606 319.856 293.625 271.875 293.625ZM271.875 184.875C259.891 184.875 250.125 194.641 250.125 206.625C250.125 218.609 259.891 228.375 271.875 228.375C283.859 228.375 293.625 218.609 293.625 206.625C293.625 194.641 283.859 184.875 271.875 184.875Z" fill="#FB7823"/>
<path d="M250.125 500.25C112.208 500.25 0 388.042 0 250.125C0 112.208 112.208 0 250.125 0C388.042 0 500.25 112.208 500.25 250.125C500.25 388.042 388.042 500.25 250.125 500.25ZM250.125 21.75C124.193 21.75 21.75 124.193 21.75 250.125C21.75 376.057 124.193 478.5 250.125 478.5C376.057 478.5 478.5 376.057 478.5 250.125C478.5 124.193 376.057 21.75 250.125 21.75Z" fill="#31395A"/>
<path d="M271.875 304.5C217.913 304.5 174 260.587 174 206.625C174 152.663 217.913 108.75 271.875 108.75C325.837 108.75 369.75 152.663 369.75 206.625C369.75 260.587 325.837 304.5 271.875 304.5ZM271.875 130.5C229.898 130.5 195.75 164.648 195.75 206.625C195.75 248.602 229.898 282.75 271.875 282.75C313.852 282.75 348 248.602 348 206.625C348 164.648 313.852 130.5 271.875 130.5Z" fill="#31395A"/>
<path d="M271.875 239.25C253.888 239.25 239.25 224.612 239.25 206.625C239.25 188.638 253.888 174 271.875 174C289.862 174 304.5 188.638 304.5 206.625C304.5 224.612 289.862 239.25 271.875 239.25ZM271.875 195.75C265.872 195.75 261 200.622 261 206.625C261 212.628 265.872 217.5 271.875 217.5C277.878 217.5 282.75 212.628 282.75 206.625C282.75 200.622 277.878 195.75 271.875 195.75Z" fill="#31395A"/>
<path d="M479.348 239.25C477.543 239.25 475.738 238.793 474.063 237.88C442.243 220.132 402.092 208.887 358.027 205.363C352.045 204.885 347.587 199.643 348.065 193.64C348.544 187.681 353.633 183.352 359.788 183.679C406.942 187.441 450.138 199.621 484.699 218.892C489.94 221.806 491.833 228.44 488.896 233.682C486.852 237.249 483.154 239.25 479.348 239.25Z" fill="#31395A"/>
<path d="M21.75 312.199C18.5745 312.199 15.4208 310.829 13.2675 308.154C9.5048 303.478 10.2225 296.627 14.8988 292.864C70.1655 248.32 124.715 218.283 181.656 201.057C187.398 199.295 193.466 202.558 195.206 208.321C196.946 214.063 193.706 220.132 187.942 221.872C133.719 238.271 81.5843 267.046 28.536 309.785C26.5568 311.395 24.1425 312.199 21.75 312.199Z" fill="#31395A"/>
<path d="M271.875 217.5C277.881 217.5 282.75 212.631 282.75 206.625C282.75 200.619 277.881 195.75 271.875 195.75C265.869 195.75 261 200.619 261 206.625C261 212.631 265.869 217.5 271.875 217.5Z" fill="#FB7823"/>
</svg>
