<svg width="535" height="66" viewBox="0 0 535 66" fill="none" xmlns="http://www.w3.org/2000/svg">
<path d="M3.52 17.708V22.35H11.902V24H1.76V9.7H11.88V11.35H3.52V16.058H10.362V17.708H3.52ZM23.8829 13L19.6149 18.984L16.1169 24H13.9829L18.5369 17.686L21.7489 13H23.8829ZM13.9829 13H16.1829L19.5929 17.73L24.1029 24H21.9689L18.4049 18.984L13.9829 13ZM31.7977 24.22C30.9911 24.22 30.3311 24.0367 29.8177 23.67C29.3044 23.2887 28.9011 22.8047 28.6077 22.218C28.3291 21.6167 28.1311 20.9933 28.0137 20.348C27.8964 19.688 27.8377 19.0793 27.8377 18.522C27.8377 17.73 27.8891 16.9893 27.9917 16.3C28.1091 15.6107 28.3071 15.002 28.5857 14.474C28.8644 13.946 29.2604 13.5353 29.7737 13.242C30.3017 12.934 30.9764 12.78 31.7977 12.78C32.6777 12.78 33.4771 13.0293 34.1957 13.528C34.9144 14.0267 35.4864 14.7087 35.9117 15.574C36.3517 16.4393 36.5717 17.422 36.5717 18.522C36.5717 19.622 36.3517 20.6047 35.9117 21.47C35.4717 22.3207 34.8851 22.9953 34.1517 23.494C33.4331 23.978 32.6484 24.22 31.7977 24.22ZM31.3577 22.548C32.0324 22.548 32.6264 22.3793 33.1397 22.042C33.6677 21.69 34.0784 21.2133 34.3717 20.612C34.6651 19.996 34.8117 19.2993 34.8117 18.522C34.8117 17.3487 34.5111 16.3807 33.9097 15.618C33.3084 14.8407 32.4577 14.452 31.3577 14.452C30.7124 14.452 30.1404 14.628 29.6417 14.98C29.1431 15.3173 28.7544 15.794 28.4757 16.41C28.1971 17.0113 28.0577 17.7153 28.0577 18.522C28.0577 19.2553 28.1751 19.93 28.4097 20.546C28.6591 21.1473 29.0257 21.6313 29.5097 21.998C29.9937 22.3647 30.6097 22.548 31.3577 22.548ZM26.2977 13H27.9917L28.0577 15.31V28.4H26.2977V13ZM39.2631 8.6H41.0231V24H39.2631V8.6ZM49.1074 24.22C48.1688 24.22 47.2888 23.9927 46.4674 23.538C45.6461 23.0833 44.9788 22.4307 44.4654 21.58C43.9668 20.7147 43.7174 19.6953 43.7174 18.522C43.7174 17.3487 43.9668 16.3367 44.4654 15.486C44.9788 14.6207 45.6461 13.9533 46.4674 13.484C47.2888 13.0147 48.1688 12.78 49.1074 12.78C50.0461 12.78 50.9188 13.0147 51.7254 13.484C52.5468 13.9533 53.2068 14.6207 53.7054 15.486C54.2041 16.3367 54.4534 17.3487 54.4534 18.522C54.4534 19.6953 54.2041 20.7147 53.7054 21.58C53.2068 22.4307 52.5468 23.0833 51.7254 23.538C50.9188 23.9927 50.0461 24.22 49.1074 24.22ZM49.1074 22.57C49.7234 22.57 50.3028 22.416 50.8454 22.108C51.3881 21.8 51.8281 21.3453 52.1654 20.744C52.5174 20.128 52.6934 19.3873 52.6934 18.522C52.6934 17.6567 52.5174 16.9233 52.1654 16.322C51.8281 15.706 51.3881 15.2367 50.8454 14.914C50.3028 14.5913 49.7234 14.43 49.1074 14.43C48.4914 14.43 47.9048 14.5913 47.3474 14.914C46.8048 15.222 46.3574 15.684 46.0054 16.3C45.6534 16.9013 45.4774 17.642 45.4774 18.522C45.4774 19.3873 45.6461 20.128 45.9834 20.744C46.3354 21.3453 46.7901 21.8 47.3474 22.108C47.9048 22.416 48.4914 22.57 49.1074 22.57ZM56.907 13H58.667V24H56.907V13ZM62.187 14.65C61.439 14.65 60.8083 14.8407 60.295 15.222C59.7963 15.5887 59.4003 16.0433 59.107 16.586C58.8283 17.114 58.645 17.6273 58.557 18.126L58.535 16.85C58.535 16.718 58.5643 16.498 58.623 16.19C58.6816 15.882 58.7916 15.5373 58.953 15.156C59.1143 14.76 59.327 14.386 59.591 14.034C59.8696 13.6673 60.2216 13.3667 60.647 13.132C61.0723 12.8973 61.5856 12.78 62.187 12.78V14.65ZM72.1767 20.458H73.8267C73.7093 21.1767 73.4453 21.822 73.0347 22.394C72.6387 22.9513 72.1107 23.3987 71.4507 23.736C70.8053 24.0587 70.0573 24.22 69.2067 24.22C68.18 24.22 67.256 23.978 66.4347 23.494C65.6133 22.9953 64.9607 22.3207 64.4767 21.47C64.0073 20.6047 63.7727 19.622 63.7727 18.522C63.7727 17.422 64 16.4393 64.4547 15.574C64.924 14.7087 65.562 14.0267 66.3687 13.528C67.1753 13.0293 68.0847 12.78 69.0967 12.78C70.1673 12.78 71.0693 13.022 71.8027 13.506C72.5507 13.9753 73.1007 14.672 73.4527 15.596C73.8193 16.5053 73.966 17.6273 73.8927 18.962H65.5327C65.606 19.6807 65.804 20.3113 66.1267 20.854C66.4493 21.3967 66.8747 21.822 67.4027 22.13C67.9307 22.4233 68.532 22.57 69.2067 22.57C69.9547 22.57 70.5853 22.3793 71.0987 21.998C71.6267 21.602 71.986 21.0887 72.1767 20.458ZM69.1627 14.43C68.2533 14.43 67.4907 14.694 66.8747 15.222C66.2587 15.75 65.848 16.4687 65.6427 17.378H72.0887C72.03 16.41 71.7147 15.6767 71.1427 15.178C70.5853 14.6793 69.9253 14.43 69.1627 14.43ZM83.3113 17.708V22.35H91.6933V24H81.5513V9.7H91.6713V11.35H83.3113V16.058H90.1533V17.708H83.3113ZM98.6853 22.482H98.1573L101.523 13H103.437L99.2573 24H97.6073L93.4493 13H95.3633L98.6853 22.482ZM112.996 20.458H114.646C114.529 21.1767 114.265 21.822 113.854 22.394C113.458 22.9513 112.93 23.3987 112.27 23.736C111.625 24.0587 110.877 24.22 110.026 24.22C108.999 24.22 108.075 23.978 107.254 23.494C106.433 22.9953 105.78 22.3207 105.296 21.47C104.827 20.6047 104.592 19.622 104.592 18.522C104.592 17.422 104.819 16.4393 105.274 15.574C105.743 14.7087 106.381 14.0267 107.188 13.528C107.995 13.0293 108.904 12.78 109.916 12.78C110.987 12.78 111.889 13.022 112.622 13.506C113.37 13.9753 113.92 14.672 114.272 15.596C114.639 16.5053 114.785 17.6273 114.712 18.962H106.352C106.425 19.6807 106.623 20.3113 106.946 20.854C107.269 21.3967 107.694 21.822 108.222 22.13C108.75 22.4233 109.351 22.57 110.026 22.57C110.774 22.57 111.405 22.3793 111.918 21.998C112.446 21.602 112.805 21.0887 112.996 20.458ZM109.982 14.43C109.073 14.43 108.31 14.694 107.694 15.222C107.078 15.75 106.667 16.4687 106.462 17.378H112.908C112.849 16.41 112.534 15.6767 111.962 15.178C111.405 14.6793 110.745 14.43 109.982 14.43ZM117.202 13H118.962V24H117.202V13ZM122.482 14.65C121.734 14.65 121.103 14.8407 120.59 15.222C120.091 15.5887 119.695 16.0433 119.402 16.586C119.123 17.114 118.94 17.6273 118.852 18.126L118.83 16.85C118.83 16.718 118.859 16.498 118.918 16.19C118.976 15.882 119.086 15.5373 119.248 15.156C119.409 14.76 119.622 14.386 119.886 14.034C120.164 13.6673 120.516 13.3667 120.942 13.132C121.367 12.8973 121.88 12.78 122.482 12.78V14.65ZM123.693 13H125.585L129.523 23.56L127.983 24L123.693 13ZM133.923 13L127.785 28.4H125.871L128.533 22.46L132.053 13H133.923ZM141.18 24V9.7H147.494C148.491 9.7 149.342 9.854 150.046 10.162C150.75 10.4553 151.285 10.9027 151.652 11.504C152.033 12.1053 152.224 12.8607 152.224 13.77C152.224 14.386 152.121 14.914 151.916 15.354C151.725 15.794 151.454 16.168 151.102 16.476C150.75 16.7693 150.332 16.9967 149.848 17.158C149.379 17.3193 148.865 17.422 148.308 17.466L148.242 17.356C149.019 17.3853 149.687 17.4807 150.244 17.642C150.801 17.8033 151.234 18.0967 151.542 18.522C151.85 18.9473 152.004 19.5853 152.004 20.436V24H150.244V20.436C150.244 19.8493 150.141 19.3947 149.936 19.072C149.745 18.7347 149.415 18.5 148.946 18.368C148.491 18.2213 147.861 18.148 147.054 18.148H142.94V24H141.18ZM142.94 16.498H147.494C148.491 16.498 149.232 16.2487 149.716 15.75C150.215 15.2367 150.464 14.5767 150.464 13.77C150.464 12.9927 150.215 12.3987 149.716 11.988C149.232 11.5627 148.491 11.35 147.494 11.35H142.94V16.498ZM162.973 20.458H164.623C164.506 21.1767 164.242 21.822 163.831 22.394C163.435 22.9513 162.907 23.3987 162.247 23.736C161.602 24.0587 160.854 24.22 160.003 24.22C158.976 24.22 158.052 23.978 157.231 23.494C156.41 22.9953 155.757 22.3207 155.273 21.47C154.804 20.6047 154.569 19.622 154.569 18.522C154.569 17.422 154.796 16.4393 155.251 15.574C155.72 14.7087 156.358 14.0267 157.165 13.528C157.972 13.0293 158.881 12.78 159.893 12.78C160.964 12.78 161.866 13.022 162.599 13.506C163.347 13.9753 163.897 14.672 164.249 15.596C164.616 16.5053 164.762 17.6273 164.689 18.962H156.329C156.402 19.6807 156.6 20.3113 156.923 20.854C157.246 21.3967 157.671 21.822 158.199 22.13C158.727 22.4233 159.328 22.57 160.003 22.57C160.751 22.57 161.382 22.3793 161.895 21.998C162.423 21.602 162.782 21.0887 162.973 20.458ZM159.959 14.43C159.05 14.43 158.287 14.694 157.671 15.222C157.055 15.75 156.644 16.4687 156.439 17.378H162.885C162.826 16.41 162.511 15.6767 161.939 15.178C161.382 14.6793 160.722 14.43 159.959 14.43ZM171.117 22.262C170.339 22.262 169.599 22.0787 168.895 21.712C168.205 21.3307 167.641 20.788 167.201 20.084C166.775 19.38 166.563 18.5367 166.563 17.554C166.563 16.5713 166.775 15.728 167.201 15.024C167.626 14.3053 168.183 13.7553 168.873 13.374C169.562 12.978 170.31 12.78 171.117 12.78C171.366 12.78 171.601 12.802 171.821 12.846C172.055 12.8753 172.275 12.9267 172.481 13H176.947V14.892C176.316 14.892 175.685 14.7747 175.055 14.54C174.439 14.3053 173.911 14.0633 173.471 13.814L173.383 13.726C173.896 14.0047 174.314 14.3347 174.637 14.716C174.974 15.0973 175.223 15.53 175.385 16.014C175.561 16.4833 175.649 16.9967 175.649 17.554C175.649 18.5367 175.436 19.38 175.011 20.084C174.6 20.788 174.05 21.3307 173.361 21.712C172.671 22.0787 171.923 22.262 171.117 22.262ZM174.351 28.4V27.916C174.351 27.1387 174.145 26.574 173.735 26.222C173.339 25.87 172.737 25.694 171.931 25.694H169.731C169.247 25.694 168.821 25.65 168.455 25.562C168.103 25.4887 167.809 25.3713 167.575 25.21C167.34 25.0487 167.164 24.8507 167.047 24.616C166.929 24.3813 166.871 24.1173 166.871 23.824C166.871 23.2667 167.039 22.8487 167.377 22.57C167.714 22.2767 168.132 22.0933 168.631 22.02C169.129 21.9467 169.606 21.9467 170.061 22.02L171.117 22.262C170.325 22.306 169.709 22.3867 169.269 22.504C168.843 22.6213 168.631 22.8707 168.631 23.252C168.631 23.472 168.711 23.6553 168.873 23.802C169.049 23.934 169.305 24 169.643 24H171.931C172.693 24 173.39 24.1027 174.021 24.308C174.651 24.528 175.157 24.8873 175.539 25.386C175.92 25.8993 176.111 26.596 176.111 27.476V28.4H174.351ZM171.117 20.612C171.601 20.612 172.048 20.4947 172.459 20.26C172.884 20.0253 173.229 19.6807 173.493 19.226C173.757 18.7713 173.889 18.214 173.889 17.554C173.889 16.894 173.757 16.3367 173.493 15.882C173.243 15.4127 172.906 15.0607 172.481 14.826C172.055 14.5767 171.601 14.452 171.117 14.452C170.633 14.452 170.178 14.5767 169.753 14.826C169.327 15.0607 168.983 15.4053 168.719 15.86C168.455 16.3147 168.323 16.8793 168.323 17.554C168.323 18.214 168.455 18.7713 168.719 19.226C168.983 19.6807 169.327 20.0253 169.753 20.26C170.178 20.4947 170.633 20.612 171.117 20.612ZM181.414 8.6V10.734H179.126V8.6H181.414ZM179.39 13H181.15V24H179.39V13ZM189.15 24.22C188.212 24.22 187.332 23.9927 186.51 23.538C185.689 23.0833 185.022 22.4307 184.508 21.58C184.01 20.7147 183.76 19.6953 183.76 18.522C183.76 17.3487 184.01 16.3367 184.508 15.486C185.022 14.6207 185.689 13.9533 186.51 13.484C187.332 13.0147 188.212 12.78 189.15 12.78C190.089 12.78 190.962 13.0147 191.768 13.484C192.59 13.9533 193.25 14.6207 193.748 15.486C194.247 16.3367 194.496 17.3487 194.496 18.522C194.496 19.6953 194.247 20.7147 193.748 21.58C193.25 22.4307 192.59 23.0833 191.768 23.538C190.962 23.9927 190.089 24.22 189.15 24.22ZM189.15 22.57C189.766 22.57 190.346 22.416 190.888 22.108C191.431 21.8 191.871 21.3453 192.208 20.744C192.56 20.128 192.736 19.3873 192.736 18.522C192.736 17.6567 192.56 16.9233 192.208 16.322C191.871 15.706 191.431 15.2367 190.888 14.914C190.346 14.5913 189.766 14.43 189.15 14.43C188.534 14.43 187.948 14.5913 187.39 14.914C186.848 15.222 186.4 15.684 186.048 16.3C185.696 16.9013 185.52 17.642 185.52 18.522C185.52 19.3873 185.689 20.128 186.026 20.744C186.378 21.3453 186.833 21.8 187.39 22.108C187.948 22.416 188.534 22.57 189.15 22.57ZM196.95 13H198.71V24H196.95V13ZM202.494 12.78C203.081 12.78 203.609 12.868 204.078 13.044C204.547 13.22 204.943 13.4767 205.266 13.814C205.589 14.1513 205.838 14.562 206.014 15.046C206.19 15.5153 206.278 16.0507 206.278 16.652V24H204.518V17.092C204.518 16.2413 204.32 15.6033 203.924 15.178C203.528 14.7527 202.934 14.54 202.142 14.54C201.541 14.54 200.983 14.694 200.47 15.002C199.957 15.31 199.531 15.7353 199.194 16.278C198.871 16.806 198.673 17.422 198.6 18.126L198.578 16.85C198.651 16.234 198.798 15.6767 199.018 15.178C199.253 14.6793 199.539 14.254 199.876 13.902C200.228 13.5353 200.624 13.2567 201.064 13.066C201.519 12.8753 201.995 12.78 202.494 12.78ZM209.549 27.124L209.087 26.64C209.322 26.2293 209.527 25.8187 209.703 25.408C209.879 25.012 209.975 24.6233 209.989 24.242L208.911 24V21.866H211.287V23.406C211.287 24.3007 211.104 25.034 210.737 25.606C210.385 26.178 209.989 26.684 209.549 27.124ZM6.402 42.7C7.83933 42.7 9.042 42.8907 10.01 43.272C10.9927 43.6387 11.7773 44.152 12.364 44.812C12.9507 45.472 13.376 46.2273 13.64 47.078C13.904 47.9287 14.036 48.8307 14.036 49.784C14.036 50.7373 13.8967 51.6467 13.618 52.512C13.3393 53.3773 12.892 54.1473 12.276 54.822C11.6747 55.4967 10.89 56.032 9.922 56.428C8.954 56.8093 7.78067 57 6.402 57H1.76V42.7H6.402ZM3.52 55.35H6.402C7.56067 55.35 8.514 55.1887 9.262 54.866C10.0247 54.5433 10.626 54.118 11.066 53.59C11.506 53.0473 11.814 52.446 11.99 51.786C12.1807 51.126 12.276 50.4587 12.276 49.784C12.276 49.1093 12.1807 48.4493 11.99 47.804C11.814 47.1587 11.506 46.5793 11.066 46.066C10.626 45.538 10.0247 45.12 9.262 44.812C8.514 44.504 7.56067 44.35 6.402 44.35H3.52V55.35ZM18.9745 41.6V43.734H16.6865V41.6H18.9745ZM16.9505 46H18.7105V57H16.9505V46ZM21.4084 53.458H23.0364C23.0804 54.0887 23.3151 54.602 23.7404 54.998C24.1804 55.394 24.8111 55.592 25.6324 55.592C26.1311 55.592 26.5197 55.526 26.7984 55.394C27.0917 55.262 27.3044 55.086 27.4364 54.866C27.5684 54.6313 27.6344 54.3747 27.6344 54.096C27.6344 53.7587 27.5464 53.4947 27.3704 53.304C27.2091 53.0987 26.9817 52.93 26.6884 52.798C26.4097 52.666 26.0871 52.5413 25.7204 52.424C25.2951 52.2627 24.8551 52.094 24.4004 51.918C23.9604 51.7273 23.5424 51.5073 23.1464 51.258C22.7651 50.994 22.4571 50.6787 22.2224 50.312C21.9877 49.9307 21.8704 49.476 21.8704 48.948C21.8704 48.508 21.9584 48.0973 22.1344 47.716C22.3104 47.32 22.5597 46.9827 22.8824 46.704C23.2197 46.4107 23.6084 46.1833 24.0484 46.022C24.5031 45.8607 25.0017 45.78 25.5444 45.78C26.2777 45.78 26.8937 45.9267 27.3924 46.22C27.9057 46.5133 28.2944 46.9313 28.5584 47.474C28.8371 48.002 28.9837 48.618 28.9984 49.322H27.4804C27.3777 48.662 27.1651 48.1853 26.8424 47.892C26.5344 47.584 26.0871 47.43 25.5004 47.43C24.8991 47.43 24.4371 47.562 24.1144 47.826C23.7917 48.09 23.6304 48.442 23.6304 48.882C23.6304 49.2047 23.7477 49.476 23.9824 49.696C24.2171 49.9013 24.5177 50.092 24.8844 50.268C25.2657 50.4293 25.6691 50.598 26.0944 50.774C26.5197 50.95 26.9304 51.126 27.3264 51.302C27.7224 51.478 28.0744 51.6833 28.3824 51.918C28.6904 52.1527 28.9324 52.446 29.1084 52.798C29.2991 53.1353 29.3944 53.5607 29.3944 54.074C29.3944 54.69 29.2477 55.24 28.9544 55.724C28.6757 56.1933 28.2577 56.56 27.7004 56.824C27.1577 57.088 26.4904 57.22 25.6984 57.22C24.9797 57.22 24.3637 57.132 23.8504 56.956C23.3517 56.7653 22.9337 56.5233 22.5964 56.23C22.2591 55.922 21.9951 55.5993 21.8044 55.262C21.6284 54.9247 21.5111 54.5947 21.4524 54.272C21.3937 53.9493 21.3791 53.678 21.4084 53.458ZM41.6353 52.864C41.5327 53.7733 41.2393 54.558 40.7553 55.218C40.286 55.8633 39.692 56.362 38.9733 56.714C38.2547 57.0513 37.4773 57.22 36.6413 57.22C35.7027 57.22 34.8227 56.9927 34.0013 56.538C33.18 56.0833 32.5127 55.4307 31.9993 54.58C31.5007 53.7147 31.2513 52.6953 31.2513 51.522C31.2513 50.3487 31.5007 49.3367 31.9993 48.486C32.5127 47.6207 33.18 46.9533 34.0013 46.484C34.8227 46.0147 35.7027 45.78 36.6413 45.78C37.4773 45.78 38.2473 45.956 38.9513 46.308C39.67 46.66 40.264 47.1587 40.7333 47.804C41.2173 48.4493 41.518 49.2193 41.6353 50.114H40.0293C39.78 49.278 39.3473 48.6253 38.7313 48.156C38.1153 47.672 37.4187 47.43 36.6413 47.43C36.0107 47.43 35.4167 47.5913 34.8593 47.914C34.302 48.2367 33.8547 48.706 33.5173 49.322C33.18 49.9233 33.0113 50.6567 33.0113 51.522C33.0113 52.3727 33.18 53.106 33.5173 53.722C33.8547 54.3233 34.2947 54.7853 34.8373 55.108C35.3947 55.416 35.996 55.57 36.6413 55.57C37.536 55.57 38.262 55.3353 38.8193 54.866C39.3913 54.382 39.802 53.7147 40.0513 52.864H41.6353ZM48.8711 57.22C47.9324 57.22 47.0524 56.9927 46.2311 56.538C45.4098 56.0833 44.7424 55.4307 44.2291 54.58C43.7304 53.7147 43.4811 52.6953 43.4811 51.522C43.4811 50.3487 43.7304 49.3367 44.2291 48.486C44.7424 47.6207 45.4098 46.9533 46.2311 46.484C47.0524 46.0147 47.9324 45.78 48.8711 45.78C49.8098 45.78 50.6824 46.0147 51.4891 46.484C52.3104 46.9533 52.9704 47.6207 53.4691 48.486C53.9678 49.3367 54.2171 50.3487 54.2171 51.522C54.2171 52.6953 53.9678 53.7147 53.4691 54.58C52.9704 55.4307 52.3104 56.0833 51.4891 56.538C50.6824 56.9927 49.8098 57.22 48.8711 57.22ZM48.8711 55.57C49.4871 55.57 50.0664 55.416 50.6091 55.108C51.1518 54.8 51.5918 54.3453 51.9291 53.744C52.2811 53.128 52.4571 52.3873 52.4571 51.522C52.4571 50.6567 52.2811 49.9233 51.9291 49.322C51.5918 48.706 51.1518 48.2367 50.6091 47.914C50.0664 47.5913 49.4871 47.43 48.8711 47.43C48.2551 47.43 47.6684 47.5913 47.1111 47.914C46.5684 48.222 46.1211 48.684 45.7691 49.3C45.4171 49.9013 45.2411 50.642 45.2411 51.522C45.2411 52.3873 45.4098 53.128 45.7471 53.744C46.0991 54.3453 46.5538 54.8 47.1111 55.108C47.6684 55.416 48.2551 55.57 48.8711 55.57ZM60.5944 55.482H60.0664L63.4324 46H65.3464L61.1664 57H59.5164L55.3584 46H57.2724L60.5944 55.482ZM74.9052 53.458H76.5552C76.4379 54.1767 76.1739 54.822 75.7632 55.394C75.3672 55.9513 74.8392 56.3987 74.1792 56.736C73.5339 57.0587 72.7859 57.22 71.9352 57.22C70.9085 57.22 69.9845 56.978 69.1632 56.494C68.3419 55.9953 67.6892 55.3207 67.2052 54.47C66.7359 53.6047 66.5012 52.622 66.5012 51.522C66.5012 50.422 66.7285 49.4393 67.1832 48.574C67.6525 47.7087 68.2905 47.0267 69.0972 46.528C69.9039 46.0293 70.8132 45.78 71.8252 45.78C72.8959 45.78 73.7979 46.022 74.5312 46.506C75.2792 46.9753 75.8292 47.672 76.1812 48.596C76.5479 49.5053 76.6945 50.6273 76.6212 51.962H68.2612C68.3345 52.6807 68.5325 53.3113 68.8552 53.854C69.1779 54.3967 69.6032 54.822 70.1312 55.13C70.6592 55.4233 71.2605 55.57 71.9352 55.57C72.6832 55.57 73.3139 55.3793 73.8272 54.998C74.3552 54.602 74.7145 54.0887 74.9052 53.458ZM71.8912 47.43C70.9819 47.43 70.2192 47.694 69.6032 48.222C68.9872 48.75 68.5765 49.4687 68.3712 50.378H74.8172C74.7585 49.41 74.4432 48.6767 73.8712 48.178C73.3139 47.6793 72.6539 47.43 71.8912 47.43ZM79.1106 46H80.8706V57H79.1106V46ZM84.3906 47.65C83.6426 47.65 83.012 47.8407 82.4986 48.222C82 48.5887 81.604 49.0433 81.3106 49.586C81.032 50.114 80.8486 50.6273 80.7606 51.126L80.7386 49.85C80.7386 49.718 80.768 49.498 80.8266 49.19C80.8853 48.882 80.9953 48.5373 81.1566 48.156C81.318 47.76 81.5306 47.386 81.7946 47.034C82.0733 46.6673 82.4253 46.3667 82.8506 46.132C83.276 45.8973 83.7893 45.78 84.3906 45.78V47.65ZM93.5215 50.708V55.35H101.903V57H91.7615V42.7H101.881V44.35H93.5215V49.058H100.363V50.708H93.5215ZM108.896 55.482H108.368L111.734 46H113.648L109.468 57H107.818L103.66 46H105.574L108.896 55.482ZM123.206 53.458H124.856C124.739 54.1767 124.475 54.822 124.064 55.394C123.668 55.9513 123.14 56.3987 122.48 56.736C121.835 57.0587 121.087 57.22 120.236 57.22C119.21 57.22 118.286 56.978 117.464 56.494C116.643 55.9953 115.99 55.3207 115.506 54.47C115.037 53.6047 114.802 52.622 114.802 51.522C114.802 50.422 115.03 49.4393 115.484 48.574C115.954 47.7087 116.592 47.0267 117.398 46.528C118.205 46.0293 119.114 45.78 120.126 45.78C121.197 45.78 122.099 46.022 122.832 46.506C123.58 46.9753 124.13 47.672 124.482 48.596C124.849 49.5053 124.996 50.6273 124.922 51.962H116.562C116.636 52.6807 116.834 53.3113 117.156 53.854C117.479 54.3967 117.904 54.822 118.432 55.13C118.96 55.4233 119.562 55.57 120.236 55.57C120.984 55.57 121.615 55.3793 122.128 54.998C122.656 54.602 123.016 54.0887 123.206 53.458ZM120.192 47.43C119.283 47.43 118.52 47.694 117.904 48.222C117.288 48.75 116.878 49.4687 116.672 50.378H123.118C123.06 49.41 122.744 48.6767 122.172 48.178C121.615 47.6793 120.955 47.43 120.192 47.43ZM127.412 46H129.172V57H127.412V46ZM132.692 47.65C131.944 47.65 131.313 47.8407 130.8 48.222C130.301 48.5887 129.905 49.0433 129.612 49.586C129.333 50.114 129.15 50.6273 129.062 51.126L129.04 49.85C129.04 49.718 129.069 49.498 129.128 49.19C129.186 48.882 129.296 48.5373 129.458 48.156C129.619 47.76 129.832 47.386 130.096 47.034C130.374 46.6673 130.726 46.3667 131.152 46.132C131.577 45.8973 132.09 45.78 132.692 45.78V47.65ZM133.904 46H135.796L139.734 56.56L138.194 57L133.904 46ZM144.134 46L137.996 61.4H136.082L138.744 55.46L142.264 46H144.134ZM150.422 52.358H152.006C152.05 52.974 152.233 53.524 152.556 54.008C152.879 54.492 153.319 54.8733 153.876 55.152C154.448 55.4307 155.115 55.57 155.878 55.57C156.538 55.57 157.088 55.4747 157.528 55.284C157.983 55.0787 158.32 54.8 158.54 54.448C158.775 54.096 158.892 53.6853 158.892 53.216C158.892 52.732 158.775 52.3433 158.54 52.05C158.305 51.7567 157.968 51.5073 157.528 51.302C157.088 51.0967 156.567 50.8987 155.966 50.708C155.394 50.532 154.815 50.3267 154.228 50.092C153.641 49.8573 153.091 49.5713 152.578 49.234C152.079 48.8967 151.676 48.4933 151.368 48.024C151.06 47.54 150.906 46.9607 150.906 46.286C150.906 45.626 151.082 45.01 151.434 44.438C151.801 43.8513 152.329 43.382 153.018 43.03C153.722 42.6633 154.565 42.48 155.548 42.48C157.088 42.48 158.239 42.898 159.002 43.734C159.765 44.57 160.131 45.6773 160.102 47.056H158.518C158.489 46.0147 158.195 45.2667 157.638 44.812C157.081 44.3573 156.355 44.13 155.46 44.13C154.712 44.13 154.059 44.306 153.502 44.658C152.945 44.9953 152.666 45.5307 152.666 46.264C152.666 46.5867 152.725 46.8727 152.842 47.122C152.974 47.3567 153.179 47.5767 153.458 47.782C153.751 47.9873 154.14 48.1927 154.624 48.398C155.123 48.5887 155.731 48.8013 156.45 49.036C156.919 49.1827 157.396 49.3587 157.88 49.564C158.379 49.7693 158.833 50.026 159.244 50.334C159.669 50.642 160.007 51.038 160.256 51.522C160.52 51.9913 160.652 52.5853 160.652 53.304C160.652 53.9933 160.483 54.6387 160.146 55.24C159.823 55.8267 159.31 56.3033 158.606 56.67C157.917 57.0367 157.022 57.22 155.922 57.22C154.983 57.22 154.177 57.0953 153.502 56.846C152.842 56.582 152.299 56.2447 151.874 55.834C151.449 55.4233 151.119 54.998 150.884 54.558C150.664 54.1033 150.517 53.678 150.444 53.282C150.371 52.886 150.363 52.578 150.422 52.358ZM168.682 57.22C167.876 57.22 167.216 57.0367 166.702 56.67C166.189 56.2887 165.786 55.8047 165.492 55.218C165.214 54.6167 165.016 53.9933 164.898 53.348C164.781 52.688 164.722 52.0793 164.722 51.522C164.722 50.73 164.774 49.9893 164.876 49.3C164.994 48.6107 165.192 48.002 165.47 47.474C165.749 46.946 166.145 46.5353 166.658 46.242C167.186 45.934 167.861 45.78 168.682 45.78C169.562 45.78 170.362 46.0293 171.08 46.528C171.799 47.0267 172.371 47.7087 172.796 48.574C173.236 49.4393 173.456 50.422 173.456 51.522C173.456 52.622 173.236 53.6047 172.796 54.47C172.356 55.3207 171.77 55.9953 171.036 56.494C170.318 56.978 169.533 57.22 168.682 57.22ZM168.242 55.548C168.917 55.548 169.511 55.3793 170.024 55.042C170.552 54.69 170.963 54.2133 171.256 53.612C171.55 52.996 171.696 52.2993 171.696 51.522C171.696 50.3487 171.396 49.3807 170.794 48.618C170.193 47.8407 169.342 47.452 168.242 47.452C167.597 47.452 167.025 47.628 166.526 47.98C166.028 48.3173 165.639 48.794 165.36 49.41C165.082 50.0113 164.942 50.7153 164.942 51.522C164.942 52.2553 165.06 52.93 165.294 53.546C165.544 54.1473 165.91 54.6313 166.394 54.998C166.878 55.3647 167.494 55.548 168.242 55.548ZM163.182 46H164.876L164.942 48.31V61.4H163.182V46ZM183.716 53.458H185.366C185.248 54.1767 184.984 54.822 184.574 55.394C184.178 55.9513 183.65 56.3987 182.99 56.736C182.344 57.0587 181.596 57.22 180.746 57.22C179.719 57.22 178.795 56.978 177.974 56.494C177.152 55.9953 176.5 55.3207 176.016 54.47C175.546 53.6047 175.312 52.622 175.312 51.522C175.312 50.422 175.539 49.4393 175.994 48.574C176.463 47.7087 177.101 47.0267 177.908 46.528C178.714 46.0293 179.624 45.78 180.636 45.78C181.706 45.78 182.608 46.022 183.342 46.506C184.09 46.9753 184.64 47.672 184.992 48.596C185.358 49.5053 185.505 50.6273 185.432 51.962H177.072C177.145 52.6807 177.343 53.3113 177.666 53.854C177.988 54.3967 178.414 54.822 178.942 55.13C179.47 55.4233 180.071 55.57 180.746 55.57C181.494 55.57 182.124 55.3793 182.638 54.998C183.166 54.602 183.525 54.0887 183.716 53.458ZM180.702 47.43C179.792 47.43 179.03 47.694 178.414 48.222C177.798 48.75 177.387 49.4687 177.182 50.378H183.628C183.569 49.41 183.254 48.6767 182.682 48.178C182.124 47.6793 181.464 47.43 180.702 47.43ZM197.689 52.864C197.587 53.7733 197.293 54.558 196.809 55.218C196.34 55.8633 195.746 56.362 195.027 56.714C194.309 57.0513 193.531 57.22 192.695 57.22C191.757 57.22 190.877 56.9927 190.055 56.538C189.234 56.0833 188.567 55.4307 188.053 54.58C187.555 53.7147 187.305 52.6953 187.305 51.522C187.305 50.3487 187.555 49.3367 188.053 48.486C188.567 47.6207 189.234 46.9533 190.055 46.484C190.877 46.0147 191.757 45.78 192.695 45.78C193.531 45.78 194.301 45.956 195.005 46.308C195.724 46.66 196.318 47.1587 196.787 47.804C197.271 48.4493 197.572 49.2193 197.689 50.114H196.083C195.834 49.278 195.401 48.6253 194.785 48.156C194.169 47.672 193.473 47.43 192.695 47.43C192.065 47.43 191.471 47.5913 190.913 47.914C190.356 48.2367 189.909 48.706 189.571 49.322C189.234 49.9233 189.065 50.6567 189.065 51.522C189.065 52.3727 189.234 53.106 189.571 53.722C189.909 54.3233 190.349 54.7853 190.891 55.108C191.449 55.416 192.05 55.57 192.695 55.57C193.59 55.57 194.316 55.3353 194.873 54.866C195.445 54.382 195.856 53.7147 196.105 52.864H197.689ZM202.329 41.6V43.734H200.041V41.6H202.329ZM200.305 46H202.065V57H200.305V46ZM213.079 53.458H214.729C214.612 54.1767 214.348 54.822 213.937 55.394C213.541 55.9513 213.013 56.3987 212.353 56.736C211.708 57.0587 210.96 57.22 210.109 57.22C209.082 57.22 208.158 56.978 207.337 56.494C206.516 55.9953 205.863 55.3207 205.379 54.47C204.91 53.6047 204.675 52.622 204.675 51.522C204.675 50.422 204.902 49.4393 205.357 48.574C205.826 47.7087 206.464 47.0267 207.271 46.528C208.078 46.0293 208.987 45.78 209.999 45.78C211.07 45.78 211.972 46.022 212.705 46.506C213.453 46.9753 214.003 47.672 214.355 48.596C214.722 49.5053 214.868 50.6273 214.795 51.962H206.435C206.508 52.6807 206.706 53.3113 207.029 53.854C207.352 54.3967 207.777 54.822 208.305 55.13C208.833 55.4233 209.434 55.57 210.109 55.57C210.857 55.57 211.488 55.3793 212.001 54.998C212.529 54.602 212.888 54.0887 213.079 53.458ZM210.065 47.43C209.156 47.43 208.393 47.694 207.777 48.222C207.161 48.75 206.75 49.4687 206.545 50.378H212.991C212.932 49.41 212.617 48.6767 212.045 48.178C211.488 47.6793 210.828 47.43 210.065 47.43ZM216.756 53.458H218.384C218.428 54.0887 218.663 54.602 219.088 54.998C219.528 55.394 220.159 55.592 220.98 55.592C221.479 55.592 221.868 55.526 222.146 55.394C222.44 55.262 222.652 55.086 222.784 54.866C222.916 54.6313 222.982 54.3747 222.982 54.096C222.982 53.7587 222.894 53.4947 222.718 53.304C222.557 53.0987 222.33 52.93 222.036 52.798C221.758 52.666 221.435 52.5413 221.068 52.424C220.643 52.2627 220.203 52.094 219.748 51.918C219.308 51.7273 218.89 51.5073 218.494 51.258C218.113 50.994 217.805 50.6787 217.57 50.312C217.336 49.9307 217.218 49.476 217.218 48.948C217.218 48.508 217.306 48.0973 217.482 47.716C217.658 47.32 217.908 46.9827 218.23 46.704C218.568 46.4107 218.956 46.1833 219.396 46.022C219.851 45.8607 220.35 45.78 220.892 45.78C221.626 45.78 222.242 45.9267 222.74 46.22C223.254 46.5133 223.642 46.9313 223.906 47.474C224.185 48.002 224.332 48.618 224.346 49.322H222.828C222.726 48.662 222.513 48.1853 222.19 47.892C221.882 47.584 221.435 47.43 220.848 47.43C220.247 47.43 219.785 47.562 219.462 47.826C219.14 48.09 218.978 48.442 218.978 48.882C218.978 49.2047 219.096 49.476 219.33 49.696C219.565 49.9013 219.866 50.092 220.232 50.268C220.614 50.4293 221.017 50.598 221.442 50.774C221.868 50.95 222.278 51.126 222.674 51.302C223.07 51.478 223.422 51.6833 223.73 51.918C224.038 52.1527 224.28 52.446 224.456 52.798C224.647 53.1353 224.742 53.5607 224.742 54.074C224.742 54.69 224.596 55.24 224.302 55.724C224.024 56.1933 223.606 56.56 223.048 56.824C222.506 57.088 221.838 57.22 221.046 57.22C220.328 57.22 219.712 57.132 219.198 56.956C218.7 56.7653 218.282 56.5233 217.944 56.23C217.607 55.922 217.343 55.5993 217.152 55.262C216.976 54.9247 216.859 54.5947 216.8 54.272C216.742 53.9493 216.727 53.678 216.756 53.458ZM229.503 54.844V57H227.215V54.844H229.503Z" fill="#1D1D1D"/>
<path d="M139.42 28.114H172.702V29.764H139.42V28.114ZM177.759 28.114H207.921V29.764H177.759V28.114ZM149.63 61.114H161.53V62.764H149.63V61.114ZM166.595 61.114H225.785V62.764H166.595V61.114Z" fill="#1D1D1D"/>
<path d="M349.168 13.948C349.072 14.7267 348.805 15.3933 348.368 15.948C347.941 16.5027 347.381 16.9293 346.688 17.228C345.995 17.5267 345.205 17.676 344.32 17.676C343.52 17.676 342.784 17.5533 342.112 17.308C341.451 17.0627 340.875 16.7107 340.384 16.252C339.893 15.7933 339.509 15.2333 339.232 14.572C338.955 13.9 338.816 13.148 338.816 12.316C338.816 11.4733 338.955 10.7213 339.232 10.06C339.509 9.39867 339.893 8.83867 340.384 8.38C340.875 7.91067 341.451 7.55333 342.112 7.308C342.784 7.06267 343.52 6.94 344.32 6.94C345.216 6.94 346.011 7.09467 346.704 7.404C347.397 7.70267 347.957 8.13467 348.384 8.7C348.821 9.25467 349.088 9.92133 349.184 10.7H347.712C347.573 10.1987 347.344 9.772 347.024 9.42C346.704 9.068 346.315 8.80133 345.856 8.62C345.397 8.428 344.885 8.332 344.32 8.332C343.595 8.332 342.933 8.48667 342.336 8.796C341.739 9.10533 341.259 9.55333 340.896 10.14C340.544 10.7267 340.368 11.452 340.368 12.316C340.368 13.1693 340.544 13.8947 340.896 14.492C341.259 15.0787 341.739 15.5267 342.336 15.836C342.933 16.1347 343.595 16.284 344.32 16.284C344.885 16.284 345.392 16.1933 345.84 16.012C346.299 15.8307 346.688 15.564 347.008 15.212C347.328 14.86 347.563 14.4387 347.712 13.948H349.168ZM354.464 17.66C353.781 17.66 353.157 17.484 352.592 17.132C352.027 16.78 351.579 16.2947 351.248 15.676C350.917 15.0467 350.752 14.3267 350.752 13.516C350.752 12.7053 350.917 11.9907 351.248 11.372C351.589 10.7427 352.053 10.252 352.64 9.9C353.227 9.53733 353.883 9.356 354.608 9.356C355.408 9.356 356.027 9.54267 356.464 9.916C356.912 10.2893 357.221 10.7907 357.392 11.42C357.573 12.0493 357.664 12.748 357.664 13.516C357.664 13.9427 357.611 14.396 357.504 14.876C357.397 15.356 357.227 15.8093 356.992 16.236C356.757 16.6627 356.432 17.0093 356.016 17.276C355.6 17.532 355.083 17.66 354.464 17.66ZM354.896 16.332C355.461 16.332 355.936 16.2093 356.32 15.964C356.715 15.708 357.008 15.3667 357.2 14.94C357.392 14.5133 357.488 14.0387 357.488 13.516C357.488 12.9507 357.387 12.4547 357.184 12.028C356.992 11.6013 356.699 11.2707 356.304 11.036C355.92 10.8013 355.451 10.684 354.896 10.684C354.064 10.684 353.419 10.9507 352.96 11.484C352.512 12.0173 352.288 12.6947 352.288 13.516C352.288 14.0707 352.4 14.5613 352.624 14.988C352.848 15.404 353.152 15.7347 353.536 15.98C353.931 16.2147 354.384 16.332 354.896 16.332ZM357.488 9.516H359.024V17.5H357.616C357.616 17.5 357.605 17.404 357.584 17.212C357.563 17.0093 357.541 16.7693 357.52 16.492C357.499 16.2147 357.488 15.9693 357.488 15.756V9.516ZM360.627 9.516H365.795V10.844H360.627V9.516ZM362.451 7.404H363.971V17.5H362.451V7.404ZM375.093 14.46C375.029 15.1213 374.816 15.6973 374.453 16.188C374.101 16.668 373.637 17.036 373.061 17.292C372.485 17.548 371.845 17.676 371.141 17.676C370.363 17.676 369.648 17.516 368.997 17.196C368.347 16.8653 367.824 16.3907 367.429 15.772C367.045 15.1427 366.853 14.396 366.853 13.532C366.853 12.6573 367.045 11.9107 367.429 11.292C367.824 10.6627 368.347 10.1827 368.997 9.852C369.648 9.52133 370.363 9.356 371.141 9.356C371.845 9.356 372.48 9.484 373.045 9.74C373.611 9.996 374.075 10.364 374.437 10.844C374.8 11.3133 375.019 11.8787 375.093 12.54H373.701C373.52 11.964 373.195 11.5107 372.725 11.18C372.267 10.8387 371.739 10.668 371.141 10.668C370.651 10.668 370.192 10.78 369.765 11.004C369.349 11.228 369.013 11.5533 368.757 11.98C368.512 12.396 368.389 12.9133 368.389 13.532C368.389 14.1293 368.512 14.6413 368.757 15.068C369.013 15.484 369.349 15.804 369.765 16.028C370.181 16.2413 370.64 16.348 371.141 16.348C371.824 16.348 372.379 16.1827 372.805 15.852C373.232 15.5213 373.536 15.0573 373.717 14.46H375.093ZM383.043 17.5V12.684C383.043 12.2573 382.974 11.9053 382.835 11.628C382.696 11.3507 382.488 11.1427 382.211 11.004C381.934 10.8547 381.582 10.78 381.155 10.78C380.686 10.78 380.254 10.892 379.859 11.116C379.475 11.3293 379.16 11.6227 378.915 11.996C378.67 12.3587 378.52 12.7693 378.467 13.228L378.451 12.316C378.504 11.9 378.616 11.5107 378.787 11.148C378.968 10.7853 379.192 10.4707 379.459 10.204C379.736 9.93733 380.056 9.72933 380.419 9.58C380.782 9.43067 381.176 9.356 381.603 9.356C382.051 9.356 382.456 9.42 382.819 9.548C383.182 9.66533 383.491 9.852 383.747 10.108C384.014 10.3533 384.216 10.6573 384.355 11.02C384.494 11.372 384.563 11.7773 384.563 12.236V17.5H383.043ZM377.043 17.5V6.316H378.563V17.5H377.043ZM389.044 7.116H398.148V8.492H389.044V7.116ZM392.82 8.332H394.372V17.5H392.82V8.332ZM404.679 17.5V12.684C404.679 12.2573 404.61 11.9053 404.471 11.628C404.333 11.3507 404.125 11.1427 403.847 11.004C403.57 10.8547 403.218 10.78 402.791 10.78C402.322 10.78 401.89 10.892 401.495 11.116C401.111 11.3293 400.797 11.6227 400.551 11.996C400.306 12.3587 400.157 12.7693 400.103 13.228L400.087 12.316C400.141 11.9 400.253 11.5107 400.423 11.148C400.605 10.7853 400.829 10.4707 401.095 10.204C401.373 9.93733 401.693 9.72933 402.055 9.58C402.418 9.43067 402.813 9.356 403.239 9.356C403.687 9.356 404.093 9.42 404.455 9.548C404.818 9.66533 405.127 9.852 405.383 10.108C405.65 10.3533 405.853 10.6573 405.991 11.02C406.13 11.372 406.199 11.7773 406.199 12.236V17.5H404.679ZM398.679 17.5V6.316H400.199V17.5H398.679ZM414.542 14.908H415.998C415.912 15.4307 415.71 15.9 415.39 16.316C415.07 16.732 414.648 17.0627 414.126 17.308C413.603 17.5533 412.99 17.676 412.286 17.676C411.454 17.676 410.712 17.5 410.062 17.148C409.411 16.796 408.899 16.3107 408.526 15.692C408.152 15.0733 407.966 14.3533 407.966 13.532C407.966 12.7 408.147 11.9747 408.51 11.356C408.872 10.7267 409.374 10.236 410.014 9.884C410.654 9.532 411.384 9.356 412.206 9.356C413.07 9.356 413.795 9.52667 414.382 9.868C414.968 10.2093 415.4 10.716 415.678 11.388C415.966 12.0493 416.083 12.876 416.03 13.868H409.486C409.539 14.348 409.683 14.7747 409.918 15.148C410.163 15.5213 410.483 15.8147 410.878 16.028C411.283 16.2413 411.747 16.348 412.27 16.348C412.856 16.348 413.347 16.2147 413.742 15.948C414.136 15.6813 414.403 15.3347 414.542 14.908ZM412.222 10.668C411.528 10.668 410.952 10.8547 410.494 11.228C410.035 11.5907 409.731 12.076 409.582 12.684H414.494C414.451 12.0333 414.216 11.5373 413.79 11.196C413.363 10.844 412.84 10.668 412.222 10.668ZM417.807 9.516H419.343V17.5H417.807V9.516ZM422.383 9.356C422.831 9.356 423.237 9.42 423.599 9.548C423.962 9.676 424.271 9.868 424.527 10.124C424.783 10.3693 424.981 10.6787 425.119 11.052C425.269 11.4147 425.343 11.8307 425.343 12.3V17.5H423.823V12.636C423.823 12.0067 423.669 11.5373 423.359 11.228C423.061 10.908 422.602 10.748 421.983 10.748C421.503 10.748 421.066 10.86 420.671 11.084C420.277 11.308 419.951 11.6067 419.695 11.98C419.45 12.3427 419.301 12.7533 419.247 13.212L419.231 12.332C419.285 11.9053 419.397 11.5107 419.567 11.148C419.749 10.7853 419.973 10.4707 420.239 10.204C420.517 9.92667 420.837 9.71867 421.199 9.58C421.562 9.43067 421.957 9.356 422.383 9.356ZM428.239 9.356C428.687 9.356 429.093 9.42 429.455 9.548C429.818 9.676 430.127 9.868 430.383 10.124C430.639 10.3693 430.837 10.6787 430.975 11.052C431.125 11.4147 431.199 11.8307 431.199 12.3V17.5H429.679V12.636C429.679 12.0067 429.525 11.5373 429.215 11.228C428.917 10.908 428.458 10.748 427.839 10.748C427.359 10.748 426.922 10.86 426.527 11.084C426.133 11.308 425.807 11.6067 425.551 11.98C425.306 12.3427 425.157 12.7533 425.103 13.212L425.087 12.316C425.141 11.8893 425.253 11.5 425.423 11.148C425.605 10.7853 425.834 10.4707 426.111 10.204C426.389 9.92667 426.709 9.71867 427.071 9.58C427.434 9.43067 427.823 9.356 428.239 9.356ZM438.601 14.924V13.548H444.169V14.924H438.601ZM436.345 17.5L440.585 7.116H442.217L446.489 17.5H444.825L441.113 8.124H441.689L437.993 17.5H436.345ZM448.119 6.316H449.655V17.5H448.119V6.316ZM452.17 6.316H453.706V17.5H452.17V6.316ZM465.096 17.676C464.019 17.676 463.059 17.4573 462.216 17.02C461.384 16.5827 460.728 15.964 460.248 15.164C459.779 14.364 459.544 13.4147 459.544 12.316C459.544 11.2067 459.779 10.252 460.248 9.452C460.728 8.652 461.384 8.03333 462.216 7.596C463.059 7.15867 464.019 6.94 465.096 6.94C466.184 6.94 467.144 7.15867 467.976 7.596C468.808 8.03333 469.464 8.652 469.944 9.452C470.424 10.252 470.664 11.2067 470.664 12.316C470.664 13.4147 470.424 14.364 469.944 15.164C469.464 15.964 468.808 16.5827 467.976 17.02C467.144 17.4573 466.184 17.676 465.096 17.676ZM465.096 16.284C465.864 16.284 466.547 16.1347 467.144 15.836C467.741 15.5373 468.216 15.0947 468.568 14.508C468.92 13.9213 469.096 13.1907 469.096 12.316C469.096 11.4413 468.92 10.7107 468.568 10.124C468.216 9.53733 467.741 9.09467 467.144 8.796C466.547 8.48667 465.864 8.332 465.096 8.332C464.349 8.332 463.672 8.48667 463.064 8.796C462.456 9.09467 461.976 9.53733 461.624 10.124C461.272 10.7107 461.096 11.4413 461.096 12.316C461.096 13.1907 461.272 13.9213 461.624 14.508C461.976 15.0947 462.456 15.5373 463.064 15.836C463.672 16.1347 464.349 16.284 465.096 16.284ZM472.646 9.516H474.182V17.5H472.646V9.516ZM477.222 9.356C477.67 9.356 478.075 9.42 478.438 9.548C478.801 9.676 479.11 9.868 479.366 10.124C479.622 10.3693 479.819 10.6787 479.958 11.052C480.107 11.4147 480.182 11.8307 480.182 12.3V17.5H478.662V12.636C478.662 12.0067 478.507 11.5373 478.198 11.228C477.899 10.908 477.441 10.748 476.822 10.748C476.342 10.748 475.905 10.86 475.51 11.084C475.115 11.308 474.79 11.6067 474.534 11.98C474.289 12.3427 474.139 12.7533 474.086 13.212L474.07 12.332C474.123 11.9053 474.235 11.5107 474.406 11.148C474.587 10.7853 474.811 10.4707 475.078 10.204C475.355 9.92667 475.675 9.71867 476.038 9.58C476.401 9.43067 476.795 9.356 477.222 9.356ZM494.829 7.116L490.877 14.028V17.5H489.341V14.028L485.389 7.116H487.149L490.509 13.18H489.773L493.069 7.116H494.829ZM498.732 17.676C497.953 17.676 497.239 17.5107 496.588 17.18C495.937 16.8493 495.42 16.3747 495.036 15.756C494.652 15.1373 494.46 14.396 494.46 13.532C494.46 12.6573 494.652 11.9107 495.036 11.292C495.42 10.6627 495.937 10.1827 496.588 9.852C497.239 9.52133 497.953 9.356 498.732 9.356C499.511 9.356 500.22 9.52133 500.86 9.852C501.5 10.1827 502.012 10.6627 502.396 11.292C502.78 11.9107 502.972 12.6573 502.972 13.532C502.972 14.396 502.78 15.1373 502.396 15.756C502.012 16.3747 501.5 16.8493 500.86 17.18C500.22 17.5107 499.511 17.676 498.732 17.676ZM498.732 16.348C499.212 16.348 499.655 16.2413 500.06 16.028C500.476 15.804 500.807 15.484 501.052 15.068C501.308 14.6413 501.436 14.1293 501.436 13.532C501.436 12.924 501.308 12.4067 501.052 11.98C500.807 11.5533 500.476 11.228 500.06 11.004C499.655 10.78 499.212 10.668 498.732 10.668C498.252 10.668 497.804 10.78 497.388 11.004C496.972 11.2173 496.636 11.5373 496.38 11.964C496.124 12.3907 495.996 12.9133 495.996 13.532C495.996 14.1293 496.119 14.6413 496.364 15.068C496.62 15.484 496.956 15.804 497.372 16.028C497.788 16.2413 498.241 16.348 498.732 16.348ZM512.275 17.5H510.755V9.516H512.275V17.5ZM510.835 13.74L510.851 14.22C510.841 14.3587 510.803 14.5667 510.739 14.844C510.686 15.1107 510.59 15.404 510.451 15.724C510.323 16.044 510.142 16.3533 509.907 16.652C509.683 16.9507 509.395 17.196 509.043 17.388C508.691 17.58 508.265 17.676 507.763 17.676C507.422 17.676 507.07 17.628 506.707 17.532C506.355 17.436 506.03 17.276 505.731 17.052C505.433 16.828 505.193 16.524 505.011 16.14C504.83 15.7453 504.739 15.2547 504.739 14.668V9.516H506.275V14.348C506.275 14.8387 506.35 15.2227 506.499 15.5C506.659 15.7773 506.883 15.9747 507.171 16.092C507.459 16.2093 507.785 16.268 508.147 16.268C508.702 16.268 509.166 16.1347 509.539 15.868C509.923 15.5907 510.222 15.26 510.435 14.876C510.649 14.4813 510.782 14.1027 510.835 13.74ZM514.446 9.516H515.982V17.5H514.446V9.516ZM518.686 10.876C518.131 10.876 517.657 11.004 517.262 11.26C516.878 11.516 516.569 11.8307 516.334 12.204C516.11 12.5773 515.961 12.9347 515.886 13.276L515.87 12.364C515.881 12.2573 515.907 12.092 515.95 11.868C516.003 11.6333 516.094 11.372 516.222 11.084C516.35 10.796 516.521 10.524 516.734 10.268C516.947 10.0013 517.214 9.78267 517.534 9.612C517.854 9.44133 518.238 9.356 518.686 9.356V10.876ZM344.512 34.836V28.116H346.048V34.868C346.048 35.4013 345.963 35.8973 345.792 36.356C345.632 36.8147 345.392 37.22 345.072 37.572C344.752 37.9133 344.352 38.18 343.872 38.372C343.403 38.564 342.859 38.66 342.24 38.66C341.728 38.66 341.243 38.5907 340.784 38.452C340.336 38.3027 339.936 38.0893 339.584 37.812C339.232 37.524 338.949 37.172 338.736 36.756C338.533 36.34 338.421 35.8653 338.4 35.332H339.824C339.931 35.972 340.203 36.4573 340.64 36.788C341.077 37.108 341.611 37.268 342.24 37.268C342.773 37.268 343.205 37.1613 343.536 36.948C343.867 36.7347 344.112 36.4467 344.272 36.084C344.432 35.7213 344.512 35.3053 344.512 34.836ZM352.337 38.676C351.558 38.676 350.843 38.5107 350.192 38.18C349.542 37.8493 349.024 37.3747 348.64 36.756C348.256 36.1373 348.064 35.396 348.064 34.532C348.064 33.6573 348.256 32.9107 348.64 32.292C349.024 31.6627 349.542 31.1827 350.192 30.852C350.843 30.5213 351.558 30.356 352.337 30.356C353.115 30.356 353.824 30.5213 354.464 30.852C355.104 31.1827 355.617 31.6627 356.001 32.292C356.385 32.9107 356.576 33.6573 356.576 34.532C356.576 35.396 356.385 36.1373 356.001 36.756C355.617 37.3747 355.104 37.8493 354.464 38.18C353.824 38.5107 353.115 38.676 352.337 38.676ZM352.337 37.348C352.817 37.348 353.259 37.2413 353.665 37.028C354.081 36.804 354.411 36.484 354.657 36.068C354.913 35.6413 355.041 35.1293 355.041 34.532C355.041 33.924 354.913 33.4067 354.657 32.98C354.411 32.5533 354.081 32.228 353.665 32.004C353.259 31.78 352.817 31.668 352.337 31.668C351.856 31.668 351.408 31.78 350.993 32.004C350.577 32.2173 350.24 32.5373 349.984 32.964C349.728 33.3907 349.6 33.9133 349.6 34.532C349.6 35.1293 349.723 35.6413 349.968 36.068C350.224 36.484 350.56 36.804 350.977 37.028C351.393 37.2413 351.846 37.348 352.337 37.348ZM365.88 38.5H364.36V30.516H365.88V38.5ZM364.44 34.74L364.456 35.22C364.445 35.3587 364.408 35.5667 364.344 35.844C364.29 36.1107 364.194 36.404 364.056 36.724C363.928 37.044 363.746 37.3533 363.512 37.652C363.288 37.9507 363 38.196 362.648 38.388C362.296 38.58 361.869 38.676 361.368 38.676C361.026 38.676 360.674 38.628 360.312 38.532C359.96 38.436 359.634 38.276 359.336 38.052C359.037 37.828 358.797 37.524 358.616 37.14C358.434 36.7453 358.344 36.2547 358.344 35.668V30.516H359.88V35.348C359.88 35.8387 359.954 36.2227 360.104 36.5C360.264 36.7773 360.488 36.9747 360.776 37.092C361.064 37.2093 361.389 37.268 361.752 37.268C362.306 37.268 362.77 37.1347 363.144 36.868C363.528 36.5907 363.826 36.26 364.04 35.876C364.253 35.4813 364.386 35.1027 364.44 34.74ZM368.05 30.516H369.586V38.5H368.05V30.516ZM372.29 31.876C371.736 31.876 371.261 32.004 370.866 32.26C370.482 32.516 370.173 32.8307 369.938 33.204C369.714 33.5773 369.565 33.9347 369.49 34.276L369.474 33.364C369.485 33.2573 369.512 33.092 369.554 32.868C369.608 32.6333 369.698 32.372 369.826 32.084C369.954 31.796 370.125 31.524 370.338 31.268C370.552 31.0013 370.818 30.7827 371.138 30.612C371.458 30.4413 371.842 30.356 372.29 30.356V31.876ZM373.835 30.516H375.371V38.5H373.835V30.516ZM378.411 30.356C378.859 30.356 379.265 30.42 379.627 30.548C379.99 30.676 380.299 30.868 380.555 31.124C380.811 31.3693 381.009 31.6787 381.148 32.052C381.297 32.4147 381.372 32.8307 381.372 33.3V38.5H379.851V33.636C379.851 33.0067 379.697 32.5373 379.387 32.228C379.089 31.908 378.63 31.748 378.011 31.748C377.531 31.748 377.094 31.86 376.699 32.084C376.305 32.308 375.979 32.6067 375.723 32.98C375.478 33.3427 375.329 33.7533 375.275 34.212L375.259 33.332C375.313 32.9053 375.425 32.5107 375.595 32.148C375.777 31.7853 376.001 31.4707 376.267 31.204C376.545 30.9267 376.865 30.7187 377.227 30.58C377.59 30.4307 377.985 30.356 378.411 30.356ZM389.702 35.908H391.158C391.073 36.4307 390.87 36.9 390.55 37.316C390.23 37.732 389.809 38.0627 389.286 38.308C388.764 38.5533 388.15 38.676 387.446 38.676C386.614 38.676 385.873 38.5 385.222 38.148C384.572 37.796 384.06 37.3107 383.686 36.692C383.313 36.0733 383.126 35.3533 383.126 34.532C383.126 33.7 383.308 32.9747 383.67 32.356C384.033 31.7267 384.534 31.236 385.174 30.884C385.814 30.532 386.545 30.356 387.366 30.356C388.23 30.356 388.956 30.5267 389.542 30.868C390.129 31.2093 390.561 31.716 390.838 32.388C391.126 33.0493 391.244 33.876 391.19 34.868H384.646C384.7 35.348 384.844 35.7747 385.078 36.148C385.324 36.5213 385.644 36.8147 386.038 37.028C386.444 37.2413 386.908 37.348 387.43 37.348C388.017 37.348 388.508 37.2147 388.902 36.948C389.297 36.6813 389.564 36.3347 389.702 35.908ZM387.382 31.668C386.689 31.668 386.113 31.8547 385.654 32.228C385.196 32.5907 384.892 33.076 384.742 33.684H389.654C389.612 33.0333 389.377 32.5373 388.95 32.196C388.524 31.844 388.001 31.668 387.382 31.668ZM391.982 30.516H393.614L396.67 38.18L395.342 38.5L391.982 30.516ZM400.126 30.516L395.342 41.7H393.726L395.79 37.364L398.51 30.516H400.126ZM403.896 28.116H413V29.492H403.896V28.116ZM407.672 29.332H409.224V38.5H407.672V29.332ZM416.898 38.676C416.119 38.676 415.404 38.5107 414.754 38.18C414.103 37.8493 413.586 37.3747 413.202 36.756C412.818 36.1373 412.626 35.396 412.626 34.532C412.626 33.6573 412.818 32.9107 413.202 32.292C413.586 31.6627 414.103 31.1827 414.754 30.852C415.404 30.5213 416.119 30.356 416.898 30.356C417.676 30.356 418.386 30.5213 419.026 30.852C419.666 31.1827 420.178 31.6627 420.562 32.292C420.946 32.9107 421.138 33.6573 421.138 34.532C421.138 35.396 420.946 36.1373 420.562 36.756C420.178 37.3747 419.666 37.8493 419.026 38.18C418.386 38.5107 417.676 38.676 416.898 38.676ZM416.898 37.348C417.378 37.348 417.82 37.2413 418.226 37.028C418.642 36.804 418.972 36.484 419.218 36.068C419.474 35.6413 419.602 35.1293 419.602 34.532C419.602 33.924 419.474 33.4067 419.218 32.98C418.972 32.5533 418.642 32.228 418.226 32.004C417.82 31.78 417.378 31.668 416.898 31.668C416.418 31.668 415.97 31.78 415.554 32.004C415.138 32.2173 414.802 32.5373 414.546 32.964C414.29 33.3907 414.162 33.9133 414.162 34.532C414.162 35.1293 414.284 35.6413 414.53 36.068C414.786 36.484 415.122 36.804 415.538 37.028C415.954 37.2413 416.407 37.348 416.898 37.348ZM426.837 38.5V28.116H431.509C432.682 28.116 433.589 28.356 434.229 28.836C434.869 29.316 435.189 30.004 435.189 30.9C435.189 31.4547 435.066 31.9027 434.821 32.244C434.586 32.5853 434.25 32.8413 433.813 33.012C433.375 33.172 432.863 33.2787 432.277 33.332L432.309 33.22C432.746 33.2413 433.157 33.2893 433.541 33.364C433.935 33.4387 434.277 33.5613 434.565 33.732C434.863 33.9027 435.098 34.1373 435.269 34.436C435.45 34.7347 435.541 35.124 435.541 35.604C435.541 36.2333 435.391 36.7613 435.093 37.188C434.794 37.604 434.378 37.9187 433.845 38.132C433.322 38.3453 432.714 38.468 432.021 38.5H426.837ZM428.373 37.124H431.733C432.437 37.124 432.986 36.996 433.381 36.74C433.775 36.484 433.973 36.0787 433.973 35.524C433.973 35.0973 433.85 34.7773 433.605 34.564C433.359 34.3507 433.039 34.212 432.645 34.148C432.261 34.084 431.861 34.052 431.445 34.052H428.373V37.124ZM428.373 32.692H431.381C432.085 32.692 432.634 32.5533 433.029 32.276C433.423 31.988 433.621 31.572 433.621 31.028C433.621 30.4733 433.423 30.0787 433.029 29.844C432.634 29.6093 432.133 29.492 431.525 29.492H428.373V32.692ZM443.557 35.908H445.013C444.927 36.4307 444.725 36.9 444.405 37.316C444.085 37.732 443.663 38.0627 443.141 38.308C442.618 38.5533 442.005 38.676 441.301 38.676C440.469 38.676 439.727 38.5 439.077 38.148C438.426 37.796 437.914 37.3107 437.541 36.692C437.167 36.0733 436.981 35.3533 436.981 34.532C436.981 33.7 437.162 32.9747 437.525 32.356C437.887 31.7267 438.389 31.236 439.029 30.884C439.669 30.532 440.399 30.356 441.221 30.356C442.085 30.356 442.81 30.5267 443.397 30.868C443.983 31.2093 444.415 31.716 444.693 32.388C444.981 33.0493 445.098 33.876 445.045 34.868H438.501C438.554 35.348 438.698 35.7747 438.933 36.148C439.178 36.5213 439.498 36.8147 439.893 37.028C440.298 37.2413 440.762 37.348 441.285 37.348C441.871 37.348 442.362 37.2147 442.757 36.948C443.151 36.6813 443.418 36.3347 443.557 35.908ZM441.237 31.668C440.543 31.668 439.967 31.8547 439.509 32.228C439.05 32.5907 438.746 33.076 438.597 33.684H443.509C443.466 33.0333 443.231 32.5373 442.805 32.196C442.378 31.844 441.855 31.668 441.237 31.668ZM454.646 35.46C454.582 36.1213 454.369 36.6973 454.006 37.188C453.654 37.668 453.19 38.036 452.614 38.292C452.038 38.548 451.398 38.676 450.694 38.676C449.916 38.676 449.201 38.516 448.55 38.196C447.9 37.8653 447.377 37.3907 446.982 36.772C446.598 36.1427 446.406 35.396 446.406 34.532C446.406 33.6573 446.598 32.9107 446.982 32.292C447.377 31.6627 447.9 31.1827 448.55 30.852C449.201 30.5213 449.916 30.356 450.694 30.356C451.398 30.356 452.033 30.484 452.598 30.74C453.164 30.996 453.628 31.364 453.99 31.844C454.353 32.3133 454.572 32.8787 454.646 33.54H453.254C453.073 32.964 452.748 32.5107 452.278 32.18C451.82 31.8387 451.292 31.668 450.694 31.668C450.204 31.668 449.745 31.78 449.318 32.004C448.902 32.228 448.566 32.5533 448.31 32.98C448.065 33.396 447.942 33.9133 447.942 34.532C447.942 35.1293 448.065 35.6413 448.31 36.068C448.566 36.484 448.902 36.804 449.318 37.028C449.734 37.2413 450.193 37.348 450.694 37.348C451.377 37.348 451.932 37.1827 452.358 36.852C452.785 36.5213 453.089 36.0573 453.27 35.46H454.646ZM460.26 38.676C459.482 38.676 458.767 38.5107 458.116 38.18C457.466 37.8493 456.948 37.3747 456.564 36.756C456.18 36.1373 455.988 35.396 455.988 34.532C455.988 33.6573 456.18 32.9107 456.564 32.292C456.948 31.6627 457.466 31.1827 458.116 30.852C458.767 30.5213 459.482 30.356 460.26 30.356C461.039 30.356 461.748 30.5213 462.388 30.852C463.028 31.1827 463.54 31.6627 463.924 32.292C464.308 32.9107 464.5 33.6573 464.5 34.532C464.5 35.396 464.308 36.1373 463.924 36.756C463.54 37.3747 463.028 37.8493 462.388 38.18C461.748 38.5107 461.039 38.676 460.26 38.676ZM460.26 37.348C460.74 37.348 461.183 37.2413 461.588 37.028C462.004 36.804 462.335 36.484 462.58 36.068C462.836 35.6413 462.964 35.1293 462.964 34.532C462.964 33.924 462.836 33.4067 462.58 32.98C462.335 32.5533 462.004 32.228 461.588 32.004C461.183 31.78 460.74 31.668 460.26 31.668C459.78 31.668 459.332 31.78 458.916 32.004C458.5 32.2173 458.164 32.5373 457.908 32.964C457.652 33.3907 457.524 33.9133 457.524 34.532C457.524 35.1293 457.647 35.6413 457.892 36.068C458.148 36.484 458.484 36.804 458.9 37.028C459.316 37.2413 459.77 37.348 460.26 37.348ZM466.267 30.516H467.803V38.5H466.267V30.516ZM470.843 30.356C471.291 30.356 471.697 30.42 472.059 30.548C472.422 30.676 472.731 30.868 472.987 31.124C473.243 31.3693 473.441 31.6787 473.579 32.052C473.729 32.4147 473.803 32.8307 473.803 33.3V38.5H472.283V33.636C472.283 33.0067 472.129 32.5373 471.819 32.228C471.521 31.908 471.062 31.748 470.443 31.748C469.963 31.748 469.526 31.86 469.131 32.084C468.737 32.308 468.411 32.6067 468.155 32.98C467.91 33.3427 467.761 33.7533 467.707 34.212L467.691 33.332C467.745 32.9053 467.857 32.5107 468.027 32.148C468.209 31.7853 468.433 31.4707 468.699 31.204C468.977 30.9267 469.297 30.7187 469.659 30.58C470.022 30.4307 470.417 30.356 470.843 30.356ZM476.699 30.356C477.147 30.356 477.553 30.42 477.915 30.548C478.278 30.676 478.587 30.868 478.843 31.124C479.099 31.3693 479.297 31.6787 479.435 32.052C479.585 32.4147 479.659 32.8307 479.659 33.3V38.5H478.139V33.636C478.139 33.0067 477.985 32.5373 477.675 32.228C477.377 31.908 476.918 31.748 476.299 31.748C475.819 31.748 475.382 31.86 474.987 32.084C474.593 32.308 474.267 32.6067 474.011 32.98C473.766 33.3427 473.617 33.7533 473.563 34.212L473.547 33.316C473.601 32.8893 473.713 32.5 473.883 32.148C474.065 31.7853 474.294 31.4707 474.571 31.204C474.849 30.9267 475.169 30.7187 475.531 30.58C475.894 30.4307 476.283 30.356 476.699 30.356ZM487.994 35.908H489.45C489.364 36.4307 489.162 36.9 488.842 37.316C488.522 37.732 488.1 38.0627 487.578 38.308C487.055 38.5533 486.442 38.676 485.738 38.676C484.906 38.676 484.164 38.5 483.514 38.148C482.863 37.796 482.351 37.3107 481.978 36.692C481.604 36.0733 481.418 35.3533 481.418 34.532C481.418 33.7 481.599 32.9747 481.962 32.356C482.324 31.7267 482.826 31.236 483.466 30.884C484.106 30.532 484.836 30.356 485.658 30.356C486.522 30.356 487.247 30.5267 487.834 30.868C488.42 31.2093 488.852 31.716 489.13 32.388C489.418 33.0493 489.535 33.876 489.482 34.868H482.938C482.991 35.348 483.135 35.7747 483.37 36.148C483.615 36.5213 483.935 36.8147 484.33 37.028C484.735 37.2413 485.199 37.348 485.722 37.348C486.308 37.348 486.799 37.2147 487.194 36.948C487.588 36.6813 487.855 36.3347 487.994 35.908ZM485.674 31.668C484.98 31.668 484.404 31.8547 483.946 32.228C483.487 32.5907 483.183 33.076 483.034 33.684H487.946C487.903 33.0333 487.668 32.5373 487.242 32.196C486.815 31.844 486.292 31.668 485.674 31.668ZM340.848 57.244V55.468H347.696V57.244H340.848ZM338.272 59.5L343.136 49.148H345.44L350.352 59.5H348.032L343.776 50.172H344.8L340.576 59.5H338.272ZM354.484 49.148H365.396V50.924H354.484V49.148ZM358.884 50.7H361.012V59.5H358.884V50.7ZM366.002 51.548H368.082V59.5H366.002V51.548ZM371.138 53.26C370.541 53.26 370.024 53.3773 369.586 53.612C369.149 53.836 368.797 54.1133 368.53 54.444C368.264 54.7747 368.077 55.0947 367.97 55.404L367.954 54.524C367.965 54.396 368.008 54.2093 368.082 53.964C368.157 53.708 368.269 53.436 368.418 53.148C368.568 52.8493 368.765 52.5667 369.01 52.3C369.256 52.0227 369.554 51.7987 369.906 51.628C370.258 51.4573 370.669 51.372 371.138 51.372V53.26ZM381.784 59.5H379.704V51.548H381.784V59.5ZM379.816 55.676L379.832 56.22C379.811 56.3693 379.758 56.588 379.672 56.876C379.587 57.1533 379.454 57.452 379.272 57.772C379.102 58.092 378.878 58.4013 378.6 58.7C378.323 58.988 377.982 59.228 377.576 59.42C377.171 59.6013 376.691 59.692 376.136 59.692C375.699 59.692 375.267 59.6387 374.84 59.532C374.424 59.4253 374.046 59.2493 373.704 59.004C373.363 58.748 373.091 58.4067 372.888 57.98C372.686 57.5533 372.584 57.0147 372.584 56.364V51.548H374.664V56.012C374.664 56.524 374.744 56.9293 374.904 57.228C375.075 57.516 375.32 57.7187 375.64 57.836C375.96 57.9533 376.339 58.012 376.776 58.012C377.352 58.012 377.848 57.8893 378.264 57.644C378.68 57.388 379.016 57.0787 379.272 56.716C379.539 56.3533 379.72 56.0067 379.816 55.676ZM391.086 56.86H393.102C393.017 57.404 392.787 57.8893 392.414 58.316C392.051 58.7427 391.555 59.0787 390.926 59.324C390.297 59.5693 389.529 59.692 388.622 59.692C387.609 59.692 386.713 59.532 385.934 59.212C385.155 58.8813 384.547 58.4067 384.11 57.788C383.673 57.1693 383.454 56.4227 383.454 55.548C383.454 54.6733 383.667 53.9267 384.094 53.308C384.521 52.6787 385.113 52.1987 385.87 51.868C386.638 51.5373 387.534 51.372 388.558 51.372C389.603 51.372 390.473 51.5373 391.166 51.868C391.859 52.1987 392.371 52.7 392.702 53.372C393.043 54.0333 393.187 54.8813 393.134 55.916H385.55C385.603 56.3213 385.753 56.6893 385.998 57.02C386.254 57.3507 386.595 57.612 387.022 57.804C387.459 57.996 387.977 58.092 388.574 58.092C389.235 58.092 389.785 57.98 390.222 57.756C390.67 57.5213 390.958 57.2227 391.086 56.86ZM388.462 52.956C387.694 52.956 387.07 53.1267 386.59 53.468C386.11 53.7987 385.801 54.2093 385.662 54.7H391.07C391.017 54.1667 390.761 53.7453 390.302 53.436C389.854 53.116 389.241 52.956 388.462 52.956ZM397.581 49.148H408.493V50.924H397.581V49.148ZM401.981 50.7H404.109V59.5H401.981V50.7ZM409.099 51.548H411.179V59.5H409.099V51.548ZM414.235 53.26C413.638 53.26 413.121 53.3773 412.683 53.612C412.246 53.836 411.894 54.1133 411.627 54.444C411.361 54.7747 411.174 55.0947 411.067 55.404L411.051 54.524C411.062 54.396 411.105 54.2093 411.179 53.964C411.254 53.708 411.366 53.436 411.515 53.148C411.665 52.8493 411.862 52.5667 412.107 52.3C412.353 52.0227 412.651 51.7987 413.003 51.628C413.355 51.4573 413.766 51.372 414.235 51.372V53.26ZM419.553 59.676C418.764 59.676 418.044 59.5053 417.393 59.164C416.753 58.812 416.241 58.3267 415.857 57.708C415.484 57.0787 415.297 56.3533 415.297 55.532C415.297 54.6893 415.489 53.9587 415.873 53.34C416.257 52.7213 416.775 52.2413 417.425 51.9C418.087 51.548 418.833 51.372 419.665 51.372C420.583 51.372 421.319 51.5587 421.873 51.932C422.439 52.2947 422.849 52.7907 423.105 53.42C423.361 54.0493 423.489 54.7533 423.489 55.532C423.489 56.0013 423.415 56.4813 423.265 56.972C423.116 57.452 422.887 57.9 422.577 58.316C422.268 58.7213 421.863 59.052 421.361 59.308C420.86 59.5533 420.257 59.676 419.553 59.676ZM420.225 58.076C420.855 58.076 421.399 57.9693 421.857 57.756C422.316 57.5427 422.668 57.244 422.913 56.86C423.159 56.476 423.281 56.0333 423.281 55.532C423.281 54.988 423.153 54.5293 422.897 54.156C422.652 53.772 422.3 53.484 421.841 53.292C421.393 53.0893 420.855 52.988 420.225 52.988C419.34 52.988 418.652 53.2227 418.161 53.692C417.671 54.1507 417.425 54.764 417.425 55.532C417.425 56.044 417.543 56.492 417.777 56.876C418.012 57.2493 418.337 57.5427 418.753 57.756C419.18 57.9693 419.671 58.076 420.225 58.076ZM423.281 51.548H425.361V59.5H423.425C423.425 59.5 423.409 59.3987 423.377 59.196C423.356 58.9827 423.335 58.716 423.313 58.396C423.292 58.076 423.281 57.7613 423.281 57.452V51.548ZM429.788 48.06V49.884H427.372V48.06H429.788ZM427.532 51.548H429.612V59.5H427.532V51.548ZM431.845 51.548H433.925V59.5H431.845V51.548ZM437.621 51.372C438.112 51.372 438.565 51.436 438.981 51.564C439.397 51.692 439.76 51.8893 440.069 52.156C440.378 52.4227 440.618 52.764 440.789 53.18C440.96 53.5853 441.045 54.0707 441.045 54.636V59.5H438.965V55.004C438.965 54.332 438.8 53.8413 438.469 53.532C438.149 53.212 437.621 53.052 436.885 53.052C436.33 53.052 435.829 53.1587 435.381 53.372C434.933 53.5853 434.57 53.8573 434.293 54.188C434.016 54.508 433.856 54.844 433.813 55.196L433.797 54.38C433.85 54.0067 433.973 53.644 434.165 53.292C434.357 52.94 434.613 52.62 434.933 52.332C435.264 52.0333 435.653 51.7987 436.101 51.628C436.549 51.4573 437.056 51.372 437.621 51.372ZM450.347 56.86H452.363C452.277 57.404 452.048 57.8893 451.675 58.316C451.312 58.7427 450.816 59.0787 450.187 59.324C449.557 59.5693 448.789 59.692 447.883 59.692C446.869 59.692 445.973 59.532 445.195 59.212C444.416 58.8813 443.808 58.4067 443.371 57.788C442.933 57.1693 442.715 56.4227 442.715 55.548C442.715 54.6733 442.928 53.9267 443.355 53.308C443.781 52.6787 444.373 52.1987 445.131 51.868C445.899 51.5373 446.795 51.372 447.819 51.372C448.864 51.372 449.733 51.5373 450.427 51.868C451.12 52.1987 451.632 52.7 451.963 53.372C452.304 54.0333 452.448 54.8813 452.395 55.916H444.811C444.864 56.3213 445.013 56.6893 445.259 57.02C445.515 57.3507 445.856 57.612 446.283 57.804C446.72 57.996 447.237 58.092 447.835 58.092C448.496 58.092 449.045 57.98 449.483 57.756C449.931 57.5213 450.219 57.2227 450.347 56.86ZM447.723 52.956C446.955 52.956 446.331 53.1267 445.851 53.468C445.371 53.7987 445.061 54.2093 444.923 54.7H450.331C450.277 54.1667 450.021 53.7453 449.563 53.436C449.115 53.116 448.501 52.956 447.723 52.956ZM454.103 51.548H456.183V59.5H454.103V51.548ZM459.239 53.26C458.641 53.26 458.124 53.3773 457.687 53.612C457.249 53.836 456.897 54.1133 456.631 54.444C456.364 54.7747 456.177 55.0947 456.071 55.404L456.055 54.524C456.065 54.396 456.108 54.2093 456.183 53.964C456.257 53.708 456.369 53.436 456.519 53.148C456.668 52.8493 456.865 52.5667 457.111 52.3C457.356 52.0227 457.655 51.7987 458.007 51.628C458.359 51.4573 458.769 51.372 459.239 51.372V53.26Z" fill="#1D1D1D"/>
</svg>
