<svg width="1136" height="240" viewBox="0 0 1136 240" fill="none" xmlns="http://www.w3.org/2000/svg">
<g clip-path="url(#clip0_55_115)">
<g clip-path="url(#clip1_55_115)">
<path d="M56.05 24.975L34.2 67.06V91H23.37V67.06L1.425 24.975H13.49L28.785 57.37L44.08 24.975H56.05ZM87.3495 91.855C82.4095 91.855 77.9445 90.7467 73.9545 88.53C69.9645 86.25 66.8295 83.0833 64.5495 79.03C62.2695 74.9133 61.1295 70.1633 61.1295 64.78C61.1295 59.46 62.3012 54.7417 64.6445 50.625C66.9879 46.5083 70.1862 43.3417 74.2395 41.125C78.2929 38.9083 82.8212 37.8 87.8245 37.8C92.8279 37.8 97.3562 38.9083 101.41 41.125C105.463 43.3417 108.661 46.5083 111.005 50.625C113.348 54.7417 114.52 59.46 114.52 64.78C114.52 70.1 113.316 74.8183 110.91 78.935C108.503 83.0517 105.21 86.25 101.03 88.53C96.9129 90.7467 92.3529 91.855 87.3495 91.855ZM87.3495 82.45C90.1362 82.45 92.7329 81.785 95.1395 80.455C97.6095 79.125 99.6045 77.13 101.125 74.47C102.645 71.81 103.405 68.58 103.405 64.78C103.405 60.98 102.676 57.7817 101.22 55.185C99.7629 52.525 97.8312 50.53 95.4245 49.2C93.0179 47.87 90.4212 47.205 87.6345 47.205C84.8479 47.205 82.2512 47.87 79.8445 49.2C77.5012 50.53 75.6329 52.525 74.2395 55.185C72.8462 57.7817 72.1495 60.98 72.1495 64.78C72.1495 70.4167 73.5745 74.7867 76.4245 77.89C79.3379 80.93 82.9795 82.45 87.3495 82.45ZM172.631 38.655V91H161.801V84.825C160.091 86.9783 157.842 88.6883 155.056 89.955C152.332 91.1583 149.419 91.76 146.316 91.76C142.199 91.76 138.494 90.905 135.201 89.195C131.971 87.485 129.406 84.9517 127.506 81.595C125.669 78.2383 124.751 74.185 124.751 69.435V38.655H135.486V67.82C135.486 72.5067 136.657 76.1167 139.001 78.65C141.344 81.12 144.542 82.355 148.596 82.355C152.649 82.355 155.847 81.12 158.191 78.65C160.597 76.1167 161.801 72.5067 161.801 67.82V38.655H172.631ZM197.75 46.255C199.333 43.595 201.423 41.5367 204.02 40.08C206.68 38.56 209.815 37.8 213.425 37.8V49.01H210.67C206.427 49.01 203.197 50.0867 200.98 52.24C198.827 54.3933 197.75 58.13 197.75 63.45V91H186.92V38.655H197.75V46.255ZM258.793 24.975V67.06C258.793 72.0633 260.091 75.8317 262.688 78.365C265.348 80.8983 269.021 82.165 273.708 82.165C278.458 82.165 282.131 80.8983 284.728 78.365C287.388 75.8317 288.718 72.0633 288.718 67.06V24.975H299.548V66.87C299.548 72.2533 298.376 76.8133 296.033 80.55C293.689 84.2867 290.554 87.0733 286.628 88.91C282.701 90.7467 278.363 91.665 273.613 91.665C268.863 91.665 264.524 90.7467 260.598 88.91C256.734 87.0733 253.663 84.2867 251.383 80.55C249.103 76.8133 247.963 72.2533 247.963 66.87V24.975H258.793ZM324.478 20.7V91H313.648V20.7H324.478ZM351.332 47.49V76.465C351.332 78.4283 351.776 79.8533 352.662 80.74C353.612 81.5633 355.196 81.975 357.412 81.975H364.062V91H355.512C350.636 91 346.899 89.86 344.302 87.58C341.706 85.3 340.407 81.595 340.407 76.465V47.49H334.232V38.655H340.407V25.64H351.332V38.655H364.062V47.49H351.332ZM379.554 31.72C377.591 31.72 375.944 31.055 374.614 29.725C373.284 28.395 372.619 26.7483 372.619 24.785C372.619 22.8217 373.284 21.175 374.614 19.845C375.944 18.515 377.591 17.85 379.554 17.85C381.454 17.85 383.069 18.515 384.399 19.845C385.729 21.175 386.394 22.8217 386.394 24.785C386.394 26.7483 385.729 28.395 384.399 29.725C383.069 31.055 381.454 31.72 379.554 31.72ZM384.874 38.655V91H374.044V38.655H384.874ZM462.458 37.8C466.574 37.8 470.248 38.655 473.478 40.365C476.771 42.075 479.336 44.6083 481.173 47.965C483.073 51.3217 484.023 55.375 484.023 60.125V91H473.288V61.74C473.288 57.0533 472.116 53.475 469.773 51.005C467.429 48.4717 464.231 47.205 460.178 47.205C456.124 47.205 452.894 48.4717 450.488 51.005C448.144 53.475 446.973 57.0533 446.973 61.74V91H436.238V61.74C436.238 57.0533 435.066 53.475 432.723 51.005C430.379 48.4717 427.181 47.205 423.128 47.205C419.074 47.205 415.844 48.4717 413.438 51.005C411.094 53.475 409.923 57.0533 409.923 61.74V91H399.093V38.655H409.923V44.64C411.696 42.4867 413.944 40.8083 416.668 39.605C419.391 38.4017 422.304 37.8 425.408 37.8C429.588 37.8 433.324 38.6867 436.618 40.46C439.911 42.2333 442.444 44.7983 444.218 48.155C445.801 44.9883 448.271 42.4867 451.628 40.65C454.984 38.75 458.594 37.8 462.458 37.8ZM494.194 64.59C494.194 59.3333 495.27 54.6783 497.424 50.625C499.64 46.5717 502.617 43.4367 506.354 41.22C510.154 38.94 514.334 37.8 518.894 37.8C523.01 37.8 526.589 38.6233 529.629 40.27C532.732 41.8533 535.202 43.8483 537.039 46.255V38.655H547.964V91H537.039V83.21C535.202 85.68 532.7 87.7383 529.534 89.385C526.367 91.0317 522.757 91.855 518.704 91.855C514.207 91.855 510.09 90.715 506.354 88.435C502.617 86.0917 499.64 82.8617 497.424 78.745C495.27 74.565 494.194 69.8467 494.194 64.59ZM537.039 64.78C537.039 61.17 536.279 58.035 534.759 55.375C533.302 52.715 531.37 50.6883 528.964 49.295C526.557 47.9017 523.96 47.205 521.174 47.205C518.387 47.205 515.79 47.9017 513.384 49.295C510.977 50.625 509.014 52.62 507.494 55.28C506.037 57.8767 505.309 60.98 505.309 64.59C505.309 68.2 506.037 71.3667 507.494 74.09C509.014 76.8133 510.977 78.9033 513.384 80.36C515.854 81.7533 518.45 82.45 521.174 82.45C523.96 82.45 526.557 81.7533 528.964 80.36C531.37 78.9667 533.302 76.94 534.759 74.28C536.279 71.5567 537.039 68.39 537.039 64.78ZM574.823 47.49V76.465C574.823 78.4283 575.267 79.8533 576.153 80.74C577.103 81.5633 578.687 81.975 580.903 81.975H587.553V91H579.003C574.127 91 570.39 89.86 567.793 87.58C565.197 85.3 563.898 81.595 563.898 76.465V47.49H557.723V38.655H563.898V25.64H574.823V38.655H587.553V47.49H574.823ZM645.51 63.545C645.51 65.5083 645.383 67.2817 645.13 68.865H605.135C605.452 73.045 607.003 76.4017 609.79 78.935C612.577 81.4683 615.997 82.735 620.05 82.735C625.877 82.735 629.993 80.2967 632.4 75.42H644.085C642.502 80.2333 639.62 84.1917 635.44 87.295C631.323 90.335 626.193 91.855 620.05 91.855C615.047 91.855 610.55 90.7467 606.56 88.53C602.633 86.25 599.53 83.0833 597.25 79.03C595.033 74.9133 593.925 70.1633 593.925 64.78C593.925 59.3967 595.002 54.6783 597.155 50.625C599.372 46.5083 602.443 43.3417 606.37 41.125C610.36 38.9083 614.92 37.8 620.05 37.8C624.99 37.8 629.392 38.8767 633.255 41.03C637.118 43.1833 640.127 46.2233 642.28 50.15C644.433 54.0133 645.51 58.4783 645.51 63.545ZM634.205 60.125C634.142 56.135 632.717 52.9367 629.93 50.53C627.143 48.1233 623.692 46.92 619.575 46.92C615.838 46.92 612.64 48.1233 609.98 50.53C607.32 52.8733 605.737 56.0717 605.23 60.125H634.205ZM728.631 43.975C726.921 40.6817 724.546 38.2117 721.506 36.565C718.466 34.855 714.951 34 710.961 34C706.591 34 702.696 34.9817 699.276 36.945C695.856 38.9083 693.164 41.695 691.201 45.305C689.301 48.915 688.351 53.095 688.351 57.845C688.351 62.595 689.301 66.8067 691.201 70.48C693.164 74.09 695.856 76.8767 699.276 78.84C702.696 80.8033 706.591 81.785 710.961 81.785C716.851 81.785 721.632 80.1383 725.306 76.845C728.979 73.5517 731.227 69.0867 732.051 63.45H707.256V54.805H743.641V63.26C742.944 68.39 741.107 73.1083 738.131 77.415C735.217 81.7217 731.386 85.1733 726.636 87.77C721.949 90.3033 716.724 91.57 710.961 91.57C704.754 91.57 699.086 90.145 693.956 87.295C688.826 84.3817 684.741 80.36 681.701 75.23C678.724 70.1 677.236 64.305 677.236 57.845C677.236 51.385 678.724 45.59 681.701 40.46C684.741 35.33 688.826 31.34 693.956 28.49C699.149 25.5767 704.817 24.12 710.961 24.12C717.991 24.12 724.229 25.8617 729.676 29.345C735.186 32.765 739.176 37.6417 741.646 43.975H728.631ZM801.727 38.655V91H790.897V84.825C789.187 86.9783 786.939 88.6883 784.152 89.955C781.429 91.1583 778.516 91.76 775.412 91.76C771.296 91.76 767.591 90.905 764.297 89.195C761.067 87.485 758.502 84.9517 756.602 81.595C754.766 78.2383 753.847 74.185 753.847 69.435V38.655H764.582V67.82C764.582 72.5067 765.754 76.1167 768.097 78.65C770.441 81.12 773.639 82.355 777.692 82.355C781.746 82.355 784.944 81.12 787.287 78.65C789.694 76.1167 790.897 72.5067 790.897 67.82V38.655H801.727ZM821.527 31.72C819.563 31.72 817.917 31.055 816.587 29.725C815.257 28.395 814.592 26.7483 814.592 24.785C814.592 22.8217 815.257 21.175 816.587 19.845C817.917 18.515 819.563 17.85 821.527 17.85C823.427 17.85 825.042 18.515 826.372 19.845C827.702 21.175 828.367 22.8217 828.367 24.785C828.367 26.7483 827.702 28.395 826.372 29.725C825.042 31.055 823.427 31.72 821.527 31.72ZM826.847 38.655V91H816.017V38.655H826.847ZM837.455 64.59C837.455 59.3333 838.532 54.6783 840.685 50.625C842.902 46.5717 845.879 43.4367 849.615 41.22C853.415 38.94 857.627 37.8 862.25 37.8C865.67 37.8 869.027 38.56 872.32 40.08C875.677 41.5367 878.337 43.5 880.3 45.97V20.7H891.225V91H880.3V83.115C878.527 85.6483 876.057 87.7383 872.89 89.385C869.787 91.0317 866.209 91.855 862.155 91.855C857.595 91.855 853.415 90.715 849.615 88.435C845.879 86.0917 842.902 82.8617 840.685 78.745C838.532 74.565 837.455 69.8467 837.455 64.59ZM880.3 64.78C880.3 61.17 879.54 58.035 878.02 55.375C876.564 52.715 874.632 50.6883 872.225 49.295C869.819 47.9017 867.222 47.205 864.435 47.205C861.649 47.205 859.052 47.9017 856.645 49.295C854.239 50.625 852.275 52.62 850.755 55.28C849.299 57.8767 848.57 60.98 848.57 64.59C848.57 68.2 849.299 71.3667 850.755 74.09C852.275 76.8133 854.239 78.9033 856.645 80.36C859.115 81.7533 861.712 82.45 864.435 82.45C867.222 82.45 869.819 81.7533 872.225 80.36C874.632 78.9667 876.564 76.94 878.02 74.28C879.54 71.5567 880.3 68.39 880.3 64.78ZM953.425 63.545C953.425 65.5083 953.299 67.2817 953.045 68.865H913.05C913.367 73.045 914.919 76.4017 917.705 78.935C920.492 81.4683 923.912 82.735 927.965 82.735C933.792 82.735 937.909 80.2967 940.315 75.42H952C950.417 80.2333 947.535 84.1917 943.355 87.295C939.239 90.335 934.109 91.855 927.965 91.855C922.962 91.855 918.465 90.7467 914.475 88.53C910.549 86.25 907.445 83.0833 905.165 79.03C902.949 74.9133 901.84 70.1633 901.84 64.78C901.84 59.3967 902.917 54.6783 905.07 50.625C907.287 46.5083 910.359 43.3417 914.285 41.125C918.275 38.9083 922.835 37.8 927.965 37.8C932.905 37.8 937.307 38.8767 941.17 41.03C945.034 43.1833 948.042 46.2233 950.195 50.15C952.349 54.0133 953.425 58.4783 953.425 63.545ZM942.12 60.125C942.057 56.135 940.632 52.9367 937.845 50.53C935.059 48.1233 931.607 46.92 927.49 46.92C923.754 46.92 920.555 48.1233 917.895 50.53C915.235 52.8733 913.652 56.0717 913.145 60.125H942.12ZM1031.42 24.975V33.81H1013.84V91H1003.01V33.81H985.341V24.975H1031.42ZM1065.09 91.855C1060.15 91.855 1055.68 90.7467 1051.69 88.53C1047.7 86.25 1044.57 83.0833 1042.29 79.03C1040.01 74.9133 1038.87 70.1633 1038.87 64.78C1038.87 59.46 1040.04 54.7417 1042.38 50.625C1044.73 46.5083 1047.93 43.3417 1051.98 41.125C1056.03 38.9083 1060.56 37.8 1065.56 37.8C1070.57 37.8 1075.1 38.9083 1079.15 41.125C1083.2 43.3417 1086.4 46.5083 1088.74 50.625C1091.09 54.7417 1092.26 59.46 1092.26 64.78C1092.26 70.1 1091.06 74.8183 1088.65 78.935C1086.24 83.0517 1082.95 86.25 1078.77 88.53C1074.65 90.7467 1070.09 91.855 1065.09 91.855ZM1065.09 82.45C1067.88 82.45 1070.47 81.785 1072.88 80.455C1075.35 79.125 1077.34 77.13 1078.86 74.47C1080.38 71.81 1081.14 68.58 1081.14 64.78C1081.14 60.98 1080.42 57.7817 1078.96 55.185C1077.5 52.525 1075.57 50.53 1073.16 49.2C1070.76 47.87 1068.16 47.205 1065.37 47.205C1062.59 47.205 1059.99 47.87 1057.58 49.2C1055.24 50.53 1053.37 52.525 1051.98 55.185C1050.59 57.7817 1049.89 60.98 1049.89 64.78C1049.89 70.4167 1051.31 74.7867 1054.16 77.89C1057.08 80.93 1060.72 82.45 1065.09 82.45Z" fill="#1D1D1D"/>
<path d="M49.78 148.975V157.81H32.205V215H21.375V157.81H3.705V148.975H49.78ZM87.823 161.8C91.813 161.8 95.3597 162.655 98.463 164.365C101.63 166.075 104.1 168.608 105.873 171.965C107.71 175.322 108.628 179.375 108.628 184.125V215H97.893V185.74C97.893 181.053 96.7214 177.475 94.378 175.005C92.0347 172.472 88.8364 171.205 84.783 171.205C80.7297 171.205 77.4997 172.472 75.093 175.005C72.7497 177.475 71.578 181.053 71.578 185.74V215H60.748V144.7H71.578V168.735C73.4147 166.518 75.7264 164.808 78.513 163.605C81.363 162.402 84.4664 161.8 87.823 161.8ZM170.417 187.545C170.417 189.508 170.291 191.282 170.037 192.865H130.042C130.359 197.045 131.911 200.402 134.697 202.935C137.484 205.468 140.904 206.735 144.957 206.735C150.784 206.735 154.901 204.297 157.307 199.42H168.992C167.409 204.233 164.527 208.192 160.347 211.295C156.231 214.335 151.101 215.855 144.957 215.855C139.954 215.855 135.457 214.747 131.467 212.53C127.541 210.25 124.437 207.083 122.157 203.03C119.941 198.913 118.832 194.163 118.832 188.78C118.832 183.397 119.909 178.678 122.062 174.625C124.279 170.508 127.351 167.342 131.277 165.125C135.267 162.908 139.827 161.8 144.957 161.8C149.897 161.8 154.299 162.877 158.162 165.03C162.026 167.183 165.034 170.223 167.187 174.15C169.341 178.013 170.417 182.478 170.417 187.545ZM159.112 184.125C159.049 180.135 157.624 176.937 154.837 174.53C152.051 172.123 148.599 170.92 144.482 170.92C140.746 170.92 137.547 172.123 134.887 174.53C132.227 176.873 130.644 180.072 130.137 184.125H159.112ZM291.728 148.975L272.158 215H259.903L246.033 165.03L231.308 215L219.148 215.095L200.433 148.975H211.928L225.608 202.745L240.428 148.975H252.588L266.363 202.46L280.138 148.975H291.728ZM323.365 215.855C318.425 215.855 313.96 214.747 309.97 212.53C305.98 210.25 302.845 207.083 300.565 203.03C298.285 198.913 297.145 194.163 297.145 188.78C297.145 183.46 298.317 178.742 300.66 174.625C303.003 170.508 306.202 167.342 310.255 165.125C314.308 162.908 318.837 161.8 323.84 161.8C328.843 161.8 333.372 162.908 337.425 165.125C341.478 167.342 344.677 170.508 347.02 174.625C349.363 178.742 350.535 183.46 350.535 188.78C350.535 194.1 349.332 198.818 346.925 202.935C344.518 207.052 341.225 210.25 337.045 212.53C332.928 214.747 328.368 215.855 323.365 215.855ZM323.365 206.45C326.152 206.45 328.748 205.785 331.155 204.455C333.625 203.125 335.62 201.13 337.14 198.47C338.66 195.81 339.42 192.58 339.42 188.78C339.42 184.98 338.692 181.782 337.235 179.185C335.778 176.525 333.847 174.53 331.44 173.2C329.033 171.87 326.437 171.205 323.65 171.205C320.863 171.205 318.267 171.87 315.86 173.2C313.517 174.53 311.648 176.525 310.255 179.185C308.862 181.782 308.165 184.98 308.165 188.78C308.165 194.417 309.59 198.787 312.44 201.89C315.353 204.93 318.995 206.45 323.365 206.45ZM372.071 170.255C373.655 167.595 375.745 165.537 378.341 164.08C381.001 162.56 384.136 161.8 387.746 161.8V173.01H384.991C380.748 173.01 377.518 174.087 375.301 176.24C373.148 178.393 372.071 182.13 372.071 187.45V215H361.241V162.655H372.071V170.255ZM408.531 144.7V215H397.701V144.7H408.531ZM419.14 188.59C419.14 183.333 420.217 178.678 422.37 174.625C424.587 170.572 427.563 167.437 431.3 165.22C435.1 162.94 439.312 161.8 443.935 161.8C447.355 161.8 450.712 162.56 454.005 164.08C457.362 165.537 460.022 167.5 461.985 169.97V144.7H472.91V215H461.985V207.115C460.212 209.648 457.742 211.738 454.575 213.385C451.472 215.032 447.893 215.855 443.84 215.855C439.28 215.855 435.1 214.715 431.3 212.435C427.563 210.092 424.587 206.862 422.37 202.745C420.217 198.565 419.14 193.847 419.14 188.59ZM461.985 188.78C461.985 185.17 461.225 182.035 459.705 179.375C458.248 176.715 456.317 174.688 453.91 173.295C451.503 171.902 448.907 171.205 446.12 171.205C443.333 171.205 440.737 171.902 438.33 173.295C435.923 174.625 433.96 176.62 432.44 179.28C430.983 181.877 430.255 184.98 430.255 188.59C430.255 192.2 430.983 195.367 432.44 198.09C433.96 200.813 435.923 202.903 438.33 204.36C440.8 205.753 443.397 206.45 446.12 206.45C448.907 206.45 451.503 205.753 453.91 204.36C456.317 202.967 458.248 200.94 459.705 198.28C461.225 195.557 461.985 192.39 461.985 188.78ZM541.928 215.665C535.784 215.665 530.116 214.24 524.923 211.39C519.793 208.477 515.708 204.455 512.668 199.325C509.691 194.132 508.203 188.305 508.203 181.845C508.203 175.385 509.691 169.59 512.668 164.46C515.708 159.33 519.793 155.34 524.923 152.49C530.116 149.577 535.784 148.12 541.928 148.12C548.134 148.12 553.803 149.577 558.933 152.49C564.126 155.34 568.211 159.33 571.188 164.46C574.164 169.59 575.653 175.385 575.653 181.845C575.653 188.305 574.164 194.132 571.188 199.325C568.211 204.455 564.126 208.477 558.933 211.39C553.803 214.24 548.134 215.665 541.928 215.665ZM541.928 206.26C546.298 206.26 550.193 205.278 553.613 203.315C557.033 201.288 559.693 198.438 561.593 194.765C563.556 191.028 564.538 186.722 564.538 181.845C564.538 176.968 563.556 172.693 561.593 169.02C559.693 165.347 557.033 162.528 553.613 160.565C550.193 158.602 546.298 157.62 541.928 157.62C537.558 157.62 533.663 158.602 530.243 160.565C526.823 162.528 524.131 165.347 522.168 169.02C520.268 172.693 519.318 176.968 519.318 181.845C519.318 186.722 520.268 191.028 522.168 194.765C524.131 198.438 526.823 201.288 530.243 203.315C533.663 205.278 537.558 206.26 541.928 206.26ZM608.255 171.49H598.565V215H587.64V171.49H581.465V162.655H587.64V158.95C587.64 152.933 589.223 148.563 592.39 145.84C595.62 143.053 600.655 141.66 607.495 141.66V150.685C604.201 150.685 601.89 151.318 600.56 152.585C599.23 153.788 598.565 155.91 598.565 158.95V162.655H608.255V171.49ZM688.7 168.64C688.7 171.997 687.909 175.163 686.325 178.14C684.742 181.117 682.209 183.555 678.725 185.455C675.242 187.292 670.777 188.21 665.33 188.21H653.36V215H642.53V148.975H665.33C670.397 148.975 674.672 149.862 678.155 151.635C681.702 153.345 684.33 155.688 686.04 158.665C687.814 161.642 688.7 164.967 688.7 168.64ZM665.33 179.375C669.447 179.375 672.519 178.457 674.545 176.62C676.572 174.72 677.585 172.06 677.585 168.64C677.585 161.42 673.5 157.81 665.33 157.81H653.36V179.375H665.33ZM721.734 215.855C716.794 215.855 712.329 214.747 708.339 212.53C704.349 210.25 701.214 207.083 698.934 203.03C696.654 198.913 695.514 194.163 695.514 188.78C695.514 183.46 696.686 178.742 699.029 174.625C701.373 170.508 704.571 167.342 708.624 165.125C712.678 162.908 717.206 161.8 722.209 161.8C727.213 161.8 731.741 162.908 735.794 165.125C739.848 167.342 743.046 170.508 745.389 174.625C747.733 178.742 748.904 183.46 748.904 188.78C748.904 194.1 747.701 198.818 745.294 202.935C742.888 207.052 739.594 210.25 735.414 212.53C731.298 214.747 726.738 215.855 721.734 215.855ZM721.734 206.45C724.521 206.45 727.118 205.785 729.524 204.455C731.994 203.125 733.989 201.13 735.509 198.47C737.029 195.81 737.789 192.58 737.789 188.78C737.789 184.98 737.061 181.782 735.604 179.185C734.148 176.525 732.216 174.53 729.809 173.2C727.403 171.87 724.806 171.205 722.019 171.205C719.233 171.205 716.636 171.87 714.229 173.2C711.886 174.53 710.018 176.525 708.624 179.185C707.231 181.782 706.534 184.98 706.534 188.78C706.534 194.417 707.959 198.787 710.809 201.89C713.723 204.93 717.364 206.45 721.734 206.45ZM780.32 188.875L804.45 215H789.82L770.44 192.485V215H759.61V144.7H770.44V185.55L789.44 162.655H804.45L780.32 188.875ZM860.188 187.545C860.188 189.508 860.061 191.282 859.808 192.865H819.813C820.13 197.045 821.681 200.402 824.468 202.935C827.255 205.468 830.675 206.735 834.728 206.735C840.555 206.735 844.671 204.297 847.078 199.42H858.763C857.18 204.233 854.298 208.192 850.118 211.295C846.001 214.335 840.871 215.855 834.728 215.855C829.725 215.855 825.228 214.747 821.238 212.53C817.311 210.25 814.208 207.083 811.928 203.03C809.711 198.913 808.603 194.163 808.603 188.78C808.603 183.397 809.68 178.678 811.833 174.625C814.05 170.508 817.121 167.342 821.048 165.125C825.038 162.908 829.598 161.8 834.728 161.8C839.668 161.8 844.07 162.877 847.933 165.03C851.796 167.183 854.805 170.223 856.958 174.15C859.111 178.013 860.188 182.478 860.188 187.545ZM848.883 184.125C848.82 180.135 847.395 176.937 844.608 174.53C841.821 172.123 838.37 170.92 834.253 170.92C830.516 170.92 827.318 172.123 824.658 174.53C821.998 176.873 820.415 180.072 819.908 184.125H848.883ZM934.211 161.8C938.327 161.8 942.001 162.655 945.231 164.365C948.524 166.075 951.089 168.608 952.926 171.965C954.826 175.322 955.776 179.375 955.776 184.125V215H945.041V185.74C945.041 181.053 943.869 177.475 941.526 175.005C939.182 172.472 935.984 171.205 931.931 171.205C927.877 171.205 924.647 172.472 922.241 175.005C919.897 177.475 918.726 181.053 918.726 185.74V215H907.991V185.74C907.991 181.053 906.819 177.475 904.476 175.005C902.132 172.472 898.934 171.205 894.881 171.205C890.827 171.205 887.597 172.472 885.191 175.005C882.847 177.475 881.676 181.053 881.676 185.74V215H870.846V162.655H881.676V168.64C883.449 166.487 885.697 164.808 888.421 163.605C891.144 162.402 894.057 161.8 897.161 161.8C901.341 161.8 905.077 162.687 908.371 164.46C911.664 166.233 914.197 168.798 915.971 172.155C917.554 168.988 920.024 166.487 923.381 164.65C926.737 162.75 930.347 161.8 934.211 161.8ZM992.262 215.855C987.322 215.855 982.857 214.747 978.867 212.53C974.877 210.25 971.742 207.083 969.462 203.03C967.182 198.913 966.042 194.163 966.042 188.78C966.042 183.46 967.213 178.742 969.557 174.625C971.9 170.508 975.098 167.342 979.152 165.125C983.205 162.908 987.733 161.8 992.737 161.8C997.74 161.8 1002.27 162.908 1006.32 165.125C1010.37 167.342 1013.57 170.508 1015.92 174.625C1018.26 178.742 1019.43 183.46 1019.43 188.78C1019.43 194.1 1018.23 198.818 1015.82 202.935C1013.41 207.052 1010.12 210.25 1005.94 212.53C1001.82 214.747 997.265 215.855 992.262 215.855ZM992.262 206.45C995.048 206.45 997.645 205.785 1000.05 204.455C1002.52 203.125 1004.52 201.13 1006.04 198.47C1007.56 195.81 1008.32 192.58 1008.32 188.78C1008.32 184.98 1007.59 181.782 1006.13 179.185C1004.67 176.525 1002.74 174.53 1000.34 173.2C997.93 171.87 995.333 171.205 992.547 171.205C989.76 171.205 987.163 171.87 984.757 173.2C982.413 174.53 980.545 176.525 979.152 179.185C977.758 181.782 977.062 184.98 977.062 188.78C977.062 194.417 978.487 198.787 981.337 201.89C984.25 204.93 987.892 206.45 992.262 206.45ZM1056.55 161.8C1060.66 161.8 1064.34 162.655 1067.57 164.365C1070.86 166.075 1073.43 168.608 1075.26 171.965C1077.1 175.322 1078.02 179.375 1078.02 184.125V215H1067.28V185.74C1067.28 181.053 1066.11 177.475 1063.77 175.005C1061.42 172.472 1058.23 171.205 1054.17 171.205C1050.12 171.205 1046.89 172.472 1044.48 175.005C1042.14 177.475 1040.97 181.053 1040.97 185.74V215H1030.14V162.655H1040.97V168.64C1042.74 166.487 1044.99 164.808 1047.71 163.605C1050.5 162.402 1053.44 161.8 1056.55 161.8ZM1110.83 215.855C1106.72 215.855 1103.01 215.127 1099.72 213.67C1096.49 212.15 1093.92 210.123 1092.02 207.59C1090.12 204.993 1089.11 202.112 1088.98 198.945H1100.19C1100.38 201.162 1101.43 203.03 1103.33 204.55C1105.29 206.007 1107.73 206.735 1110.64 206.735C1113.68 206.735 1116.03 206.165 1117.67 205.025C1119.38 203.822 1120.24 202.302 1120.24 200.465C1120.24 198.502 1119.29 197.045 1117.39 196.095C1115.55 195.145 1112.61 194.1 1108.55 192.96C1104.63 191.883 1101.43 190.838 1098.96 189.825C1096.49 188.812 1094.33 187.26 1092.5 185.17C1090.72 183.08 1089.84 180.325 1089.84 176.905C1089.84 174.118 1090.66 171.585 1092.31 169.305C1093.95 166.962 1096.3 165.125 1099.34 163.795C1102.44 162.465 1105.99 161.8 1109.98 161.8C1115.93 161.8 1120.71 163.32 1124.32 166.36C1128 169.337 1129.96 173.422 1130.21 178.615H1119.38C1119.19 176.272 1118.24 174.403 1116.53 173.01C1114.82 171.617 1112.51 170.92 1109.6 170.92C1106.75 170.92 1104.56 171.458 1103.04 172.535C1101.52 173.612 1100.76 175.037 1100.76 176.81C1100.76 178.203 1101.27 179.375 1102.28 180.325C1103.3 181.275 1104.53 182.035 1105.99 182.605C1107.44 183.112 1109.6 183.777 1112.45 184.6C1116.25 185.613 1119.35 186.658 1121.76 187.735C1124.23 188.748 1126.35 190.268 1128.12 192.295C1129.9 194.322 1130.81 197.013 1130.88 200.37C1130.88 203.347 1130.05 206.007 1128.41 208.35C1126.76 210.693 1124.42 212.53 1121.38 213.86C1118.4 215.19 1114.89 215.855 1110.83 215.855Z" fill="#1D1D1D"/>
</g>
</g>
<defs>
<clipPath id="clip0_55_115">
<rect width="1136" height="240" fill="white"/>
</clipPath>
<clipPath id="clip1_55_115">
<rect width="1136" height="240" fill="white"/>
</clipPath>
</defs>
</svg>
