<svg width="104" height="104" viewBox="0 0 104 104" fill="none" xmlns="http://www.w3.org/2000/svg">
<path fill-rule="evenodd" clip-rule="evenodd" d="M63.2112 17.5013C63.5835 16.9696 64.3163 16.8403 64.848 17.2127L68.1816 19.5469C68.7134 19.9192 68.8426 20.652 68.4703 21.1837L62.1002 30.2812C65.4796 31.3609 67.782 32.5255 67.782 32.5255C67.782 32.5255 62.1542 42.206 52.6087 42.206C43.0632 42.206 36.2804 33.1835 36.2804 33.1835C36.2804 33.1835 38.6854 31.6488 42.2505 30.3323L35.2773 22.022C34.86 21.5248 34.9249 20.7834 35.4221 20.3662L38.5396 17.7503C39.0369 17.3331 39.7782 17.398 40.1954 17.8952L49.1981 28.6242C50.0249 28.5307 50.8671 28.4784 51.717 28.4784C52.9385 28.4784 54.1585 28.5713 55.3495 28.7289L63.2112 17.5013ZM38.2475 42.6644C35.7002 40.8451 31.8457 36.0968 31.8457 36.0968C31.8457 36.0968 22 43.8989 22 60.4423C22 76.9858 39.0215 86.9425 39.0215 86.9425C39.0215 86.9425 47.1542 78.7295 49.1506 68.3182C51.1471 57.907 46.1974 46.3465 46.1974 46.3465C46.1974 46.3465 40.7948 44.4836 38.2475 42.6644ZM65.6806 42.6644C68.2279 40.8451 72.0824 36.0968 72.0824 36.0968C72.0824 36.0968 81.9281 43.8989 81.9281 60.4423C81.9281 76.9858 64.9066 86.9425 64.9066 86.9425C64.9066 86.9425 56.7739 78.7295 54.7775 68.3182C52.781 57.907 57.7307 46.3465 57.7307 46.3465C57.7307 46.3465 63.1333 44.4836 65.6806 42.6644Z" fill="url(#paint0_linear_39_183)"/>
<defs>
<linearGradient id="paint0_linear_39_183" x1="22" y1="17" x2="22" y2="86.9425" gradientUnits="userSpaceOnUse">
<stop stop-color="#92BC2C"/>
<stop offset="1" stop-color="#AFC836"/>
</linearGradient>
</defs>
</svg>
