<svg width="105" height="104" viewBox="0 0 105 104" fill="none" xmlns="http://www.w3.org/2000/svg">
<path fill-rule="evenodd" clip-rule="evenodd" d="M56.3292 51.8471C56.8081 51.5577 57.2145 50.9515 57.5423 50.2777C61.8552 52.0237 64.8859 56.1492 64.8859 60.9605C64.8859 67.3522 59.5371 72.5336 52.9392 72.5336C50.2307 72.5336 48.81 72.3027 46.3254 70.9868C44.9106 70.0854 44.5307 69.5845 44.0881 69.3421C43.4017 68.9662 42.9516 68.7198 42.6697 68.7583C41.8457 68.8708 42.085 69.6217 42.3024 70.3038C42.45 70.7672 42.5876 71.1988 42.3747 71.3768C42.1518 71.5632 41.4302 70.8817 40.5869 70.0854C39.4391 69.0014 38.0659 67.7046 37.4184 68.0941C36.9064 68.4022 37.4035 69.2376 38.0119 70.2602L38.0571 70.3362C38.3141 70.7685 38.612 71.2087 38.8838 71.6104C39.4363 72.4268 39.8814 73.0846 39.6586 73.1959C39.3895 73.3305 37.5142 72.0767 35.9338 70.3362C35.3238 69.6644 34.7329 68.9362 34.1839 68.2596C32.9821 66.7784 31.9808 65.5444 31.4188 65.6906C30.7426 65.8664 31.2541 67.2478 32.0056 68.5772C32.3571 69.1988 32.7705 69.8319 33.1285 70.38C33.6851 71.2323 34.1077 71.8792 33.9544 71.9587C33.7476 72.0658 31.9282 70.3086 30.6925 68.0941C29.9585 66.7788 29.3422 65.3252 28.8432 64.1484C28.3021 62.8722 27.899 61.9215 27.6336 61.8259C26.7115 61.4935 26.7115 63.3557 27.0813 66.0435C27.1296 66.3941 27.2014 66.7619 27.2899 67.1363C30.8765 78.6307 41.8945 87 54.9303 87C70.8754 87 83.8015 74.4781 83.8015 59.0317C83.8015 44.3301 72.0921 32.2779 57.2151 31.1496C57.2338 30.457 57.5988 29.0836 57.5988 29.0836C57.5988 29.0836 60.2252 22.7897 60.364 21.4447C60.3732 21.3555 60.3841 21.2585 60.3957 21.1551C60.5594 19.702 60.8637 17 58.5169 17C57.2635 17 56.6807 17.9235 56.0141 18.9797C55.7582 19.3851 55.49 19.8102 55.1667 20.21C52.8384 23.0899 48.9231 26.6864 46.7031 28.6024C42.0108 32.6522 37.4071 35.9804 34.7222 37.9215C33.501 38.8044 32.6766 39.4004 32.4216 39.6467C30.4993 41.5027 23.607 53.8165 23.607 53.8165C23.607 53.8165 21.3781 57.7671 22.1703 58.5684C22.9626 59.3696 24.873 59.1859 24.873 59.1859C24.873 59.1859 50.539 53.354 52.8369 52.894C53.4556 52.7701 53.8923 52.6987 54.2277 52.6438C55.1379 52.4949 55.3014 52.4682 56.3292 51.8471ZM38.1823 44.3525C36.8047 45.6495 34.5198 48.7456 34.5198 48.7456C34.5198 48.7456 38.7663 49.0047 41.105 46.8028C43.4438 44.6008 42.9079 40.8482 42.9079 40.8482C42.9079 40.8482 39.56 43.0554 38.1823 44.3525Z" fill="url(#paint0_linear_39_129)"/>
<defs>
<linearGradient id="paint0_linear_39_129" x1="22.3984" y1="17" x2="22.3984" y2="86.0975" gradientUnits="userSpaceOnUse">
<stop stop-color="#0C69C8"/>
<stop offset="1" stop-color="#0180C7"/>
</linearGradient>
</defs>
</svg>
