<svg width="104" height="104" viewBox="0 0 104 104" fill="none" xmlns="http://www.w3.org/2000/svg">
<path fill-rule="evenodd" clip-rule="evenodd" d="M31.2638 72.4812L42.1865 69.3141L51.7545 86.8084C51.8465 86.9767 52.0881 86.9767 52.1801 86.8084L61.7482 69.314L72.6713 72.4812C72.8555 72.5346 73.0259 72.3633 72.9715 72.1794L69.8057 61.4792L86.8084 52.1801C86.9766 52.0881 86.9766 51.8465 86.8084 51.7545L69.6629 42.3772L72.9715 31.1941C73.0259 31.0102 72.8555 30.8389 72.6713 30.8923L61.4833 34.1364L52.1801 17.1262C52.0881 16.9579 51.8465 16.9579 51.7545 17.1262L42.4514 34.1362L31.2638 30.8923C31.0796 30.8389 30.9092 31.0102 30.9636 31.1941L34.2722 42.377L17.1262 51.7545C16.9579 51.8465 16.9579 52.0881 17.1262 52.1801L34.1293 61.4794L30.9636 72.1794C30.9092 72.3633 31.0796 72.5346 31.2638 72.4812ZM39.993 52.2724L47.6559 56.4633L51.8468 64.1262C51.9388 64.2944 52.1805 64.2944 52.2725 64.1262L56.4634 56.4633L64.1263 52.2724C64.2945 52.1804 64.2945 51.9387 64.1263 51.8467L56.4634 47.6558L52.2725 39.9929C52.1805 39.8247 51.9388 39.8247 51.8468 39.9929L47.6559 47.6558L39.993 51.8467C39.8248 51.9387 39.8248 52.1804 39.993 52.2724Z" fill="url(#paint0_linear_39_105)"/>
<defs>
<linearGradient id="paint0_linear_39_105" x1="17.574" y1="17" x2="17.574" y2="85.7867" gradientUnits="userSpaceOnUse">
<stop stop-color="#EC8CE5"/>
<stop offset="1" stop-color="#F3A7E7"/>
</linearGradient>
</defs>
</svg>
