<svg width="105" height="104" viewBox="0 0 105 104" fill="none" xmlns="http://www.w3.org/2000/svg">
<path fill-rule="evenodd" clip-rule="evenodd" d="M29.8339 22.8424C30.6938 19.4846 33.768 17 37.3899 17C40.1008 17 42.5049 18.3919 43.9033 20.5H46.2153C47.634 19.0603 49.6091 18.1667 51.7813 18.1667C54.9657 18.1667 57.7267 20.0873 58.9317 22.8334H60.8698C62.0645 22.0938 63.4721 21.6666 64.974 21.6666C68.1584 21.6666 70.9195 23.5873 72.1244 26.3334H75.8166C76.0829 26.3334 76.3354 26.3929 76.5614 26.4993C77.0798 26.3905 77.6168 26.3334 78.1663 26.3334C82.4465 26.3334 85.9617 29.8031 85.9617 34.0834V57.5882C85.9617 57.7175 85.9585 57.8463 85.952 57.9745C85.5255 74.0702 70.9271 87 52.9808 87C34.766 87 20 73.6805 20 57.25C20 49.319 23.4405 42.1129 29.0485 36.7797C29.0345 44.5117 29.1664 52.5052 29.7742 52.3679C31.3993 52.0011 30.1338 28.1215 29.8339 22.8424Z" fill="url(#paint0_linear_39_211)"/>
<defs>
<linearGradient id="paint0_linear_39_211" x1="20.4252" y1="17" x2="20.4252" y2="86.0975" gradientUnits="userSpaceOnUse">
<stop stop-color="#CE4265"/>
<stop offset="1" stop-color="#E74347"/>
</linearGradient>
</defs>
</svg>
