<svg width="105" height="104" viewBox="0 0 105 104" fill="none" xmlns="http://www.w3.org/2000/svg">
<path fill-rule="evenodd" clip-rule="evenodd" d="M65.7892 71.0578C66.6625 67.8954 64.9675 61.3939 64.9675 61.3939C64.9675 61.3939 63.7382 66.6904 61.8172 68.6478C60.1785 70.3177 58.1707 71.4758 55.2909 71.7801C57.6452 70.6476 59.2644 68.286 59.2644 65.5562C59.2644 61.7246 56.0742 58.6184 52.1388 58.6184C48.2034 58.6184 45.0132 61.7246 45.0132 65.5562C45.0132 66.6027 45.2512 67.595 45.6772 68.4848C43.2162 66.5426 42.8291 63.4289 42.8291 63.4289C42.8291 63.4289 40.0807 74.7314 47.654 80.0481C55.2272 85.3649 70.0628 80.7949 70.0628 80.7949C70.0628 80.7949 48.8321 95.5911 33.1 79.4873C19.5479 65.6151 29.5628 47.3519 29.5628 47.3519C29.5628 47.3519 29.1303 49.0461 29.1303 51.0129C29.1303 52.9796 30.2068 54.476 30.2068 54.476C30.2068 54.476 33.4182 47.7714 35.9175 45.0448C38.2828 42.4644 41.2479 40.3715 43.8089 38.5638C45.7803 37.1722 47.5123 35.9497 48.5469 34.804C54.2444 28.4938 50.7509 17 50.7509 17C50.7509 17 57.1736 22.6082 58.9667 29.8513C59.6502 32.6122 59.2105 35.7536 58.8173 38.5628C58.179 43.1231 57.6632 46.8081 62.2742 46.5689C69.7255 46.1825 63.2506 34.804 63.2506 34.804C63.2506 34.804 80.153 43.6031 78.8902 58.9925C77.6274 74.3818 60.415 77.8804 60.415 77.8804C60.415 77.8804 64.9159 74.2202 65.7892 71.0578Z" fill="url(#paint0_linear_39_171)"/>
<defs>
<linearGradient id="paint0_linear_39_171" x1="26" y1="17" x2="26" y2="87" gradientUnits="userSpaceOnUse">
<stop stop-color="#FB9B51"/>
<stop offset="1" stop-color="#FBAE46"/>
</linearGradient>
</defs>
</svg>
