<svg width="104" height="104" viewBox="0 0 104 104" fill="none" xmlns="http://www.w3.org/2000/svg">
<path d="M39.0374 36.4523C29.6967 37.3249 12.7093 44.3058 15.2574 63.5033C17.8054 82.7008 32.2445 85.4528 44.9844 84.446C57.7242 83.4392 67.9175 66.9937 64.5194 69.6116C61.1212 72.2294 53.4784 71.3568 53.4784 71.3568C64.0028 65.8564 67.695 63.6743 71.3142 58.2676C62.2307 60.9892 58.8058 61.1748 53.4777 60.8854C73.0116 54.7771 76.0782 47.6496 80.6578 40.8153C64.0727 48.6468 58.3738 50.2021 52.6291 49.5415C78.4046 38.2544 84.944 31.4727 90 19C68.0327 29.8609 48.3782 35.5796 39.0374 36.4523Z" fill="url(#paint0_linear_39_207)"/>
<defs>
<linearGradient id="paint0_linear_39_207" x1="15" y1="19" x2="15" y2="84.625" gradientUnits="userSpaceOnUse">
<stop stop-color="#90A7DA"/>
<stop offset="1" stop-color="#A6C2F2"/>
</linearGradient>
</defs>
</svg>
