<svg width="105" height="104" viewBox="0 0 105 104" fill="none" xmlns="http://www.w3.org/2000/svg">
<path fill-rule="evenodd" clip-rule="evenodd" d="M53.3092 86.594C52.9861 86.6026 52.6618 86.6069 52.3365 86.6069C32.8207 86.6069 17 71.0249 17 51.8035C17 32.582 32.8207 17 52.3365 17C71.8524 17 87.6731 32.582 87.6731 51.8035C87.6731 61.5155 83.6341 70.2984 77.1201 76.6117C79.9699 77.5904 82.8704 78.4052 85.1317 78.9911C86.6195 79.3766 86.8519 81.2698 85.4374 81.8657C79.5305 84.3543 67.5122 88.2742 53.3092 86.594ZM47.3673 46.8344C47.3673 49.7768 44.8954 52.162 41.846 52.162C38.7967 52.162 36.3247 49.7768 36.3247 46.8344C36.3247 44.8612 37.4365 43.1385 39.0886 42.2177C39.1838 44.7833 41.3255 46.8344 43.9536 46.8344H47.3673ZM61.7228 52.162C58.6735 52.162 56.2015 49.7768 56.2015 46.8344H59.6152C62.2433 46.8344 64.385 44.7833 64.4802 42.2177C66.1323 43.1385 67.2441 44.8612 67.2441 46.8344C67.2441 49.7768 64.7722 52.162 61.7228 52.162Z" fill="url(#paint0_linear_39_149)"/>
<defs>
<linearGradient id="paint0_linear_39_149" x1="17.4556" y1="17" x2="17.4556" y2="86.0975" gradientUnits="userSpaceOnUse">
<stop stop-color="#516AAC"/>
<stop offset="1" stop-color="#7773D4"/>
</linearGradient>
</defs>
</svg>
