<svg width="104" height="104" viewBox="0 0 104 104" fill="none" xmlns="http://www.w3.org/2000/svg">
<path fill-rule="evenodd" clip-rule="evenodd" d="M30.6911 79.8971C41.299 87.2108 55.1168 87.4555 66.6916 75.8808C80.111 62.4613 72.9915 23.9915 72.9915 23.9915C72.9915 23.9915 40.8193 24.1044 28.1056 35.0156C15.392 45.9269 14.9341 64.929 25.8858 75.8808C26.2004 76.1953 26.5195 76.5029 26.8429 76.8033L36.4295 64.9544L36.4295 50.5049L39.9549 61.3701L47.5599 52.7822L46.0756 42.9416L50.2921 48.9017L61.2109 36.6336L53.5346 50.5049L61.2109 52.7822L51.5031 54.9124L42.9749 63.6105L56.3944 64.9544L39.9549 68.5096L30.6911 79.8971Z" fill="url(#paint0_linear_39_161)"/>
<defs>
<linearGradient id="paint0_linear_39_161" x1="56" y1="7" x2="6.50252" y2="56.4975" gradientUnits="userSpaceOnUse">
<stop stop-color="#5FBC51"/>
<stop offset="1" stop-color="#5AC178"/>
</linearGradient>
</defs>
</svg>
