<svg width="105" height="104" viewBox="0 0 105 104" fill="none" xmlns="http://www.w3.org/2000/svg">
<path fill-rule="evenodd" clip-rule="evenodd" d="M31.709 78.7247C31.5699 78.7247 31.4728 78.5869 31.5196 78.4559L50.5721 25.1335C50.6007 25.0534 50.6765 25 50.7615 25H70.9894C71.0747 25 71.1508 25.0539 71.1791 25.1343L89.949 78.4568C89.995 78.5877 89.898 78.7247 89.7593 78.7247H32.0416H31.709ZM15.2013 78.9347C15.0606 78.9347 14.9634 78.794 15.0132 78.6624L29.1625 41.2472C29.1921 41.169 29.267 41.1172 29.3506 41.1172H41.3936C41.5333 41.1172 41.6304 41.2562 41.5825 41.3874L27.9005 78.8026C27.8715 78.882 27.796 78.9347 27.7116 78.9347H15.2013Z" fill="url(#paint0_linear_39_201)"/>
<defs>
<linearGradient id="paint0_linear_39_201" x1="15.4832" y1="25" x2="15.4832" y2="78.2393" gradientUnits="userSpaceOnUse">
<stop stop-color="#DC7545"/>
<stop offset="1" stop-color="#D29463"/>
</linearGradient>
</defs>
</svg>
