<svg width="105" height="104" viewBox="0 0 105 104" fill="none" xmlns="http://www.w3.org/2000/svg">
<path fill-rule="evenodd" clip-rule="evenodd" d="M36.528 87C39.8652 87 42.7917 84.6641 44.4323 81.1557C46.0728 84.6641 48.9994 87 52.3365 87C55.3785 87 58.0793 85.0591 59.7759 82.0584C61.4724 85.0591 64.1732 87 67.2152 87C72.3509 87 76.5143 81.4677 76.5143 74.6433C76.5143 73.2985 76.3526 72.0038 76.0537 70.7918C83.1903 65.1396 87.6731 56.9733 87.6731 47.8917C87.6731 30.8307 71.8524 17 52.3365 17C32.8207 17 17 30.8307 17 47.8917C17 56.6454 21.165 64.5488 27.857 70.1699C27.4514 71.5571 27.2289 73.0657 27.2289 74.6433C27.2289 81.4677 31.3923 87 36.528 87ZM51.8717 64.1877C63.4271 64.1877 72.7946 57.1659 72.7946 48.5042C72.7946 39.8425 63.4271 32.8208 51.8717 32.8208C40.3163 32.8208 30.9487 39.8425 30.9487 48.5042C30.9487 57.1659 40.3163 64.1877 51.8717 64.1877Z" fill="url(#paint0_linear_39_113)"/>
<defs>
<linearGradient id="paint0_linear_39_113" x1="17" y1="17" x2="17" y2="87" gradientUnits="userSpaceOnUse">
<stop stop-color="#A864C7"/>
<stop offset="1" stop-color="#C261D4"/>
</linearGradient>
</defs>
</svg>
