<svg width="105" height="104" viewBox="0 0 105 104" fill="none" xmlns="http://www.w3.org/2000/svg">
<path fill-rule="evenodd" clip-rule="evenodd" d="M80.4547 75.1369C80.4547 75.1369 71.5424 82.2168 53.807 79.2869C40.3514 77.0641 33.1749 62.3726 33.1749 54.4758C33.1749 35.7528 47.1656 31.4921 56.6242 31.4921C66.0827 31.4921 72.253 40.6259 72.253 47.6978C72.253 54.7697 67.2032 60.9551 59.3446 60.9551C51.486 60.9551 49.1585 55.4905 49.1585 50.4666C49.1585 45.4427 53.2624 43.6727 57.0049 43.6727C60.7475 43.6727 62.0291 46.8375 62.0291 49.5577C62.0291 52.2778 59.8983 53.2518 58.1211 53.2518C56.3438 53.2518 55.6551 52.8105 55.4878 51.4305C55.3206 50.0504 56.425 47.3744 53.807 46.9645C51.1891 46.5547 50.8833 50.6283 50.8833 51.4305C50.8833 52.2327 51.7127 58.8651 59.3446 58.7298C66.9765 58.5944 70.5971 52.7505 69.5449 46.9645C68.4928 41.1786 62.8236 35.0303 52.8738 36.2727C42.9241 37.5151 38.8617 47.4726 40.6524 58.1138C42.443 68.7549 55.3137 74.9205 65.4334 72.7023C75.553 70.4841 85.632 63.2277 85.632 44.8297C85.632 26.4317 69.5449 15.3729 50.3624 17.1954C31.18 19.018 19.2723 35.6288 20.0345 55.5871C20.7967 75.5455 39.9169 86.4153 56.085 86.9756C72.253 87.5359 82.1648 78.2657 82.1648 78.2657C82.1648 78.2657 84.3939 76.2969 83.5199 74.7595C82.6459 73.222 80.4547 75.1369 80.4547 75.1369Z" fill="url(#paint0_linear_39_153)"/>
<defs>
<linearGradient id="paint0_linear_39_153" x1="20" y1="17" x2="20" y2="87" gradientUnits="userSpaceOnUse">
<stop stop-color="#F66F71"/>
<stop offset="1" stop-color="#FE9F92"/>
</linearGradient>
</defs>
</svg>
