<svg width="104" height="104" viewBox="0 0 104 104" fill="none" xmlns="http://www.w3.org/2000/svg">
<path fill-rule="evenodd" clip-rule="evenodd" d="M72.9633 50.9464C72.934 50.9065 72.9221 50.8563 72.9305 50.8074L77.6734 23.1518C77.6884 23.0641 77.7644 23 77.8534 23H79.1192C79.1989 23 79.2694 23.0517 79.2934 23.1276L89.9868 56.9858C90.0098 57.0585 89.9851 57.1378 89.925 57.1847L82.2032 63.2137C82.122 63.2771 82.0045 63.2608 81.9435 63.1778L72.9633 50.9464ZM15 69.2428C15 69.3218 15.0508 69.3919 15.1259 69.4164L31.2998 74.7048C31.3541 74.7225 31.4134 74.7139 31.4604 74.6815L67.8982 49.5258C67.9398 49.497 67.9676 49.4524 67.9751 49.4024L71.8587 23.344C71.8752 23.2336 71.7896 23.1344 71.678 23.1344H39.5518C39.4974 23.1344 39.4459 23.1586 39.4112 23.2005L15.042 52.5982C15.0149 52.6309 15 52.6722 15 52.7147V69.2428ZM38.1881 76.0913L55.9804 81.9196C56.0357 81.9377 56.0964 81.9283 56.1437 81.8944L77.2288 66.7699C77.309 66.7124 77.329 66.6016 77.274 66.5196L69.4717 54.9089C69.4151 54.8247 69.3007 54.8028 69.2169 54.8601L38.1881 76.0913Z" fill="url(#paint0_linear_39_194)"/>
<defs>
<linearGradient id="paint0_linear_39_194" x1="15" y1="23" x2="15" y2="81.9286" gradientUnits="userSpaceOnUse">
<stop stop-color="#C5B489"/>
<stop offset="1" stop-color="#D7CD90"/>
</linearGradient>
</defs>
</svg>
