<svg width="104" height="104" viewBox="0 0 104 104" fill="none" xmlns="http://www.w3.org/2000/svg">
<path fill-rule="evenodd" clip-rule="evenodd" d="M15.0511 52.5036C14.983 52.3873 14.983 52.2434 15.051 52.1271L33.7469 20.1843C33.8137 20.0702 33.9361 20 34.0684 20H71.1277C71.2606 20 71.3835 20.0708 71.4501 20.1859L89.9408 52.1286C90.0077 52.2441 90.0077 52.3866 89.9407 52.502L71.4501 84.4087C71.3835 84.5236 71.2607 84.5944 71.1278 84.5944H34.0682C33.936 84.5944 33.8137 84.5243 33.7468 84.4102L15.0511 52.5036ZM52.5002 69.688C62.1049 69.688 69.891 61.9018 69.891 52.2972C69.891 42.6925 62.1049 34.9064 52.5002 34.9064C42.8956 34.9064 35.1094 42.6925 35.1094 52.2972C35.1094 61.9018 42.8956 69.688 52.5002 69.688Z" fill="url(#paint0_linear_39_177)"/>
<defs>
<linearGradient id="paint0_linear_39_177" x1="15" y1="20" x2="15" y2="84.5944" gradientUnits="userSpaceOnUse">
<stop stop-color="#52869D"/>
<stop offset="1" stop-color="#58A6AA"/>
</linearGradient>
</defs>
</svg>
