<svg width="607" height="101" viewBox="0 0 607 101" fill="none" xmlns="http://www.w3.org/2000/svg">
<path d="M72.5153 29.7325C75.9593 50.1505 62.3063 67.7395 40.1663 71.5525C36.9683 72.0445 32.9093 71.9215 28.9733 71.6755C26.8823 71.5525 24.9143 71.5525 22.9463 71.5525H21.4703L21.7163 74.6275C21.8393 77.7025 22.0853 82.3765 21.9623 85.0825V86.1895C21.8393 88.8955 21.8393 91.8475 20.8553 94.0615C18.7643 98.9815 15.4433 100.457 12.9833 100.826C9.66233 101.441 6.58733 100.211 5.35733 98.7355L4.98833 98.3665C2.15933 96.8905 2.15933 93.6925 2.40533 89.7565C2.52833 87.2965 2.65133 84.7135 2.77433 82.2535C3.14333 77.3335 3.51233 72.2905 3.51233 67.3705C3.38933 58.5145 2.52833 49.6585 1.66733 41.0485C0.929334 32.9305 0.191333 24.6895 0.0683333 16.4485C-0.0546667 14.3575 -0.0546667 12.2665 0.437333 10.2985C1.05233 7.22346 2.89733 5.00946 5.60333 4.14845C6.21833 3.90246 6.95633 3.77946 7.69433 3.77946C9.66233 3.77946 11.7533 4.64045 13.4753 6.23946C13.7213 6.48546 13.9673 6.85445 14.3363 7.34646C14.4593 7.59245 14.7053 7.96145 14.9513 8.33046L15.6893 9.31446L16.7963 8.57645C22.7003 4.51746 28.9733 2.30345 36.4763 1.68845C55.5413 0.212449 69.3173 10.9135 72.5153 29.7325ZM45.3323 45.1075C50.2523 40.3105 51.7283 34.7755 49.6373 28.9945C48.8993 26.6575 46.9313 24.4435 44.8403 23.5825C39.4283 21.1225 29.8343 24.3205 26.6363 29.6095C23.0693 35.6365 21.3473 42.4015 21.3473 50.6425V51.9955H22.5773C23.5613 52.1185 24.4223 52.1185 25.2833 52.1185C34.0163 52.1185 40.2893 49.9045 45.3323 45.1075ZM202.848 79.9165C206.415 83.3605 207.03 87.9115 204.816 91.3555C202.479 94.9225 197.682 96.3985 193.254 94.4305C190.671 93.3235 188.457 91.6015 186.366 89.7565C181.077 85.0825 176.034 80.0395 170.007 74.3815C168.654 77.7025 167.178 80.6545 166.194 83.8525C164.226 90.0025 160.413 93.3235 155.247 92.9545C150.204 92.5855 146.637 88.7725 145.899 82.2535C145.407 78.6865 145.407 74.9965 145.653 71.4295C147.129 53.1025 148.851 34.6525 150.45 16.3255C150.573 15.3415 150.45 14.1115 151.065 13.4965C152.418 11.7745 154.017 9.06846 155.616 8.94546C157.584 8.94546 160.413 10.6675 161.397 12.5125C162.873 14.8495 163.488 18.0475 163.734 20.8765C164.472 29.7325 164.964 38.7115 165.579 47.6905C165.702 50.1505 165.825 52.6105 166.071 55.9315C169.638 53.2255 172.344 51.0115 175.296 49.0435C178.863 46.7065 182.307 44.3695 185.997 42.4015C190.425 40.1875 194.361 40.9255 196.206 43.8775C198.051 46.7065 197.19 50.1505 193.5 53.4715C190.056 56.4235 186.366 59.2525 182.799 62.2045C181.692 63.0655 180.831 64.0495 179.355 65.2795C185.013 68.6005 190.302 71.4295 195.468 74.5045C198.051 76.1035 200.757 77.8255 202.848 79.9165ZM263.9 42.8935C273.248 52.6105 270.419 66.1405 257.75 70.5685C251.108 72.9055 243.728 73.3975 236.102 74.7505C238.316 75.4885 240.407 76.2265 242.621 76.7185C246.803 77.4565 251.231 77.5795 255.29 78.9325C261.194 80.7775 262.67 86.1895 258.365 90.7405C256.028 93.0775 252.215 95.1685 249.017 95.5375C226.385 97.8745 213.962 82.8685 215.561 64.9105C216.176 57.4075 217.898 50.2735 222.08 43.8775C227.615 35.6365 236.594 31.7005 246.434 33.5455C253.199 34.7755 259.103 37.9735 263.9 42.8935ZM252.953 54.7015C253.322 54.7015 253.691 54.4555 254.429 54.0865C251.231 49.7815 246.065 47.6905 241.883 48.9205C238.193 50.0275 236.594 52.8565 235.61 56.5465C241.76 55.9315 247.418 55.3165 252.953 54.7015ZM244.589 27.2725C238.685 27.2725 236.471 23.4595 238.931 18.9085C241.883 13.4965 245.327 8.33046 248.771 3.28746C251.231 -0.156544 255.044 -0.894549 257.996 1.07346C261.194 3.16446 261.809 6.97745 259.349 10.6675C256.274 15.2185 253.199 19.6465 249.755 23.8285C248.279 25.6735 245.696 26.5345 244.589 27.2725ZM362.14 9.56046C365.953 12.0205 367.183 16.6945 365.092 21.4915L362.386 27.7645C353.407 48.0595 344.551 68.4775 335.572 88.7725C334.465 91.3555 333.481 93.0775 332.374 94.5535C330.283 97.3825 327.331 98.9815 324.133 99.1045C321.058 99.2275 318.106 97.8745 315.769 95.4145C313.924 93.3235 312.202 90.6175 310.603 87.1735C308.02 82.0075 305.56 76.7185 303.223 71.4295C300.763 66.1405 298.303 60.8515 295.72 55.5625C293.506 50.8885 291.169 46.3375 288.832 41.7865C286.864 37.8505 284.773 33.7915 282.805 29.8555C281.206 26.4115 279.607 23.0905 278.746 19.5235C277.762 15.3415 278.992 11.8975 282.313 10.1755C283.42 9.56046 284.65 9.19146 285.88 9.19146C288.217 9.19146 290.554 10.4215 292.276 12.5125C299.041 20.8765 305.437 29.1175 310.972 37.8505C314.293 43.1395 316.999 48.7975 319.951 54.7015C321.304 57.5305 322.657 60.2365 324.133 63.1885L325.363 65.7715L328.069 59.3755C328.93 57.1615 329.791 55.1935 330.529 53.2255C331.636 50.5195 332.866 47.6905 333.973 44.9845C337.048 37.6045 340.123 29.9785 343.444 22.5985C345.166 18.9085 347.38 15.3415 350.086 11.7745C353.161 7.96145 358.081 6.97745 362.14 9.56046ZM419.572 41.4175C428.92 51.1345 426.091 64.6645 413.422 69.0925C406.78 71.4295 399.4 71.9215 391.774 73.2745C393.988 74.0125 396.079 74.7505 398.293 75.2425C402.475 75.9805 406.903 76.1035 410.962 77.4565C416.866 79.3015 418.342 84.7135 414.037 89.2645C411.7 91.6015 407.887 93.8155 404.689 94.0615C382.057 96.3985 369.634 81.3925 371.233 63.4345C371.848 55.9315 373.57 48.7975 377.752 42.4015C383.287 34.1605 392.266 30.2245 402.106 32.0695C408.871 33.2995 414.775 36.4975 419.572 41.4175ZM408.625 53.2255C408.994 53.2255 409.363 52.9795 410.101 52.6105C406.903 48.3055 401.737 46.2145 397.555 47.4445C393.865 48.5515 392.266 51.3805 391.282 55.0705C397.432 54.4555 403.09 53.8405 408.625 53.2255ZM484.845 52.1185C485.583 54.4555 485.091 58.0225 483.738 59.7445C482.385 61.3435 478.941 61.8355 476.604 61.5895C474.021 61.4665 471.561 59.9905 469.224 58.7605C466.026 57.2845 463.443 57.8995 462.336 61.0975C460.368 66.7555 458.646 72.6595 457.293 78.5635C456.678 81.1465 457.539 84.0985 457.293 86.9275C456.678 92.8315 452.25 97.1365 446.715 97.5055C440.934 97.8745 436.26 94.1845 434.907 88.2805C434.538 86.8045 434.169 85.2055 434.292 83.7295C434.292 69.0925 434.415 54.3325 434.661 39.6955C434.661 38.2195 434.661 36.2515 435.522 35.2675C437.121 33.2995 439.335 30.5935 441.426 30.4705C443.64 30.2245 446.469 32.1925 448.191 34.0375C449.79 35.7595 450.159 38.4655 451.266 41.0485C459.015 36.8665 466.764 36.6205 474.636 40.5565C479.556 43.1395 483.369 46.8295 484.845 52.1185ZM536.782 65.4025C548.098 75.8575 545.023 90.2485 530.632 95.6605C525.958 97.3825 520.792 98.6125 515.872 98.3665C511.444 97.9975 506.77 96.0295 502.834 93.5695C498.283 90.7405 497.176 85.2055 499.021 81.0235C500.743 77.0875 505.171 75.2425 510.829 75.8575C514.642 76.3495 518.455 76.7185 522.391 77.0875C522.514 76.4725 522.637 75.9805 522.76 75.4885C519.808 74.3815 516.733 73.6435 513.904 72.1675C509.107 69.8305 503.941 67.8625 499.882 64.4185C493.609 59.0065 492.994 51.1345 496.807 43.7545C502.465 32.9305 517.225 26.7805 528.91 30.4705C534.691 32.3155 538.75 36.1285 539.488 42.2785C539.734 44.6155 538.75 47.8135 537.151 49.6585C535.06 52.1185 532.108 50.8885 529.402 49.5355C523.498 46.3375 519.193 47.0755 514.765 52.2415C516.856 53.3485 518.578 53.9635 520.177 54.9475C525.835 58.3915 532.108 61.0975 536.782 65.4025ZM601.309 41.4175C610.657 51.1345 607.828 64.6645 595.159 69.0925C588.517 71.4295 581.137 71.9215 573.511 73.2745C575.725 74.0125 577.816 74.7505 580.03 75.2425C584.212 75.9805 588.64 76.1035 592.699 77.4565C598.603 79.3015 600.079 84.7135 595.774 89.2645C593.437 91.6015 589.624 93.8155 586.426 94.0615C563.794 96.3985 551.371 81.3925 552.97 63.4345C553.585 55.9315 555.307 48.7975 559.489 42.4015C565.024 34.1605 574.003 30.2245 583.843 32.0695C590.608 33.2995 596.512 36.4975 601.309 41.4175ZM590.362 53.2255C590.731 53.2255 591.1 52.9795 591.838 52.6105C588.64 48.3055 583.474 46.2145 579.292 47.4445C575.602 48.5515 574.003 51.3805 573.019 55.0705C579.169 54.4555 584.827 53.8405 590.362 53.2255Z" fill="white"/>
<mask id="path-2-inside-1_41_73" fill="white">
<path fill-rule="evenodd" clip-rule="evenodd" d="M137.934 60.5533C138.072 62.0793 138.04 63.661 137.824 65.2795C136.594 74.0125 133.273 81.7615 126.877 87.9115C121.588 93.0775 115.315 95.5375 107.689 95.4145C106.132 95.0727 104.564 94.7778 102.994 94.4828C99.4799 93.8222 95.9615 93.1608 92.5605 91.9705C87.5487 90.2576 83.9112 87.3013 81.7661 83.4392C91.6376 70.0731 110.867 54.8268 137.934 60.5533Z"/>
</mask>
<path fill-rule="evenodd" clip-rule="evenodd" d="M137.934 60.5533C138.072 62.0793 138.04 63.661 137.824 65.2795C136.594 74.0125 133.273 81.7615 126.877 87.9115C121.588 93.0775 115.315 95.5375 107.689 95.4145C106.132 95.0727 104.564 94.7778 102.994 94.4828C99.4799 93.8222 95.9615 93.1608 92.5605 91.9705C87.5487 90.2576 83.9112 87.3013 81.7661 83.4392C91.6376 70.0731 110.867 54.8268 137.934 60.5533Z" fill="white"/>
<path d="M137.824 65.2795L141.785 65.8374L141.787 65.8228L141.789 65.8081L137.824 65.2795ZM137.934 60.5533L141.918 60.1929L141.651 57.2513L138.762 56.6399L137.934 60.5533ZM126.877 87.9115L124.105 85.0282L124.094 85.039L124.082 85.05L126.877 87.9115ZM107.689 95.4145L106.832 99.3215L107.224 99.4075L107.625 99.414L107.689 95.4145ZM102.994 94.4828L103.733 90.5516L103.733 90.5516L102.994 94.4828ZM92.5605 91.9705L93.8819 88.1951L93.868 88.1902L93.8541 88.1854L92.5605 91.9705ZM81.7661 83.4392L78.5485 81.0628L77.0201 83.1323L78.2693 85.3814L81.7661 83.4392ZM141.789 65.8081C142.043 63.9015 142.083 62.0216 141.918 60.1929L133.95 60.9138C134.061 62.1371 134.037 63.4205 133.859 64.7508L141.789 65.8081ZM129.65 90.7948C136.82 83.9002 140.458 75.261 141.785 65.8374L133.863 64.7216C132.731 72.7639 129.726 79.6228 124.105 85.0282L129.65 90.7948ZM107.625 99.414C116.284 99.5536 123.596 96.7076 129.672 90.773L124.082 85.05C119.58 89.4474 114.347 91.5213 107.754 91.415L107.625 99.414ZM102.255 98.4139C103.835 98.7108 105.344 98.9948 106.832 99.3215L108.547 91.5075C106.921 91.1506 105.293 90.8448 103.733 90.5516L102.255 98.4139ZM91.2391 95.7459C94.9725 97.0526 98.7897 97.7625 102.255 98.4139L103.733 90.5516C100.17 89.8819 96.9504 89.269 93.8819 88.1951L91.2391 95.7459ZM78.2693 85.3814C80.9605 90.2268 85.4533 93.7686 91.2669 95.7555L93.8541 88.1854C89.6442 86.7466 86.8619 84.3758 85.263 81.497L78.2693 85.3814ZM138.762 56.6399C109.564 50.4626 88.9233 67.0154 78.5485 81.0628L84.9837 85.8155C94.352 73.1309 112.17 59.1911 137.106 64.4667L138.762 56.6399Z" fill="#31395A" mask="url(#path-2-inside-1_41_73)"/>
<mask id="path-4-inside-2_41_73" fill="white">
<path fill-rule="evenodd" clip-rule="evenodd" d="M84.284 86.8616C93.4157 73.6409 110.867 58.7098 137.911 64.5355C138.978 53.7931 131.915 44.8255 120.973 43.2625C118.144 42.8935 115.315 42.4015 112.486 41.6635C107.443 40.1875 102.646 40.8025 98.2186 43.5085C88.0096 49.6585 81.4906 58.5145 79.7686 70.4455C78.8099 77.0761 80.3937 82.7729 84.284 86.8616Z"/>
</mask>
<path fill-rule="evenodd" clip-rule="evenodd" d="M84.284 86.8616C93.4157 73.6409 110.867 58.7098 137.911 64.5355C138.978 53.7931 131.915 44.8255 120.973 43.2625C118.144 42.8935 115.315 42.4015 112.486 41.6635C107.443 40.1875 102.646 40.8025 98.2186 43.5085C88.0096 49.6585 81.4906 58.5145 79.7686 70.4455C78.8099 77.0761 80.3937 82.7729 84.284 86.8616Z" fill="#DF2C2C"/>
<path d="M137.911 64.5355L137.069 68.4458L141.449 69.3893L141.891 64.9307L137.911 64.5355ZM84.284 86.8616L81.3861 89.6188L84.7783 93.1841L87.5752 89.1349L84.284 86.8616ZM120.973 43.2625L121.539 39.3027L121.515 39.2992L121.491 39.2961L120.973 43.2625ZM112.486 41.6635L111.363 45.5024L111.419 45.519L111.477 45.534L112.486 41.6635ZM98.2186 43.5085L100.283 46.9348L100.294 46.9282L100.304 46.9216L98.2186 43.5085ZM79.7686 70.4455L83.7274 71.0179L83.7275 71.0169L79.7686 70.4455ZM138.753 60.6252C109.517 54.3274 90.6291 70.637 80.9928 84.5883L87.5752 89.1349C96.2024 76.6447 112.216 63.0922 137.069 68.4458L138.753 60.6252ZM141.891 64.9307C143.174 52.0132 134.558 41.1625 121.539 39.3027L120.408 47.2223C129.271 48.4885 134.781 55.5729 133.93 64.1403L141.891 64.9307ZM121.491 39.2961C118.772 38.9415 116.117 38.4767 113.496 37.793L111.477 45.534C114.514 46.3263 117.517 46.8455 120.456 47.2289L121.491 39.2961ZM113.61 37.8245C107.505 36.0378 101.54 36.7906 96.1327 40.0954L100.304 46.9216C103.752 44.8144 107.382 44.3372 111.363 45.5024L113.61 37.8245ZM96.1545 40.0822C85.0374 46.7792 77.722 56.6235 75.8096 69.8741L83.7275 71.0169C85.2591 60.4054 90.9817 52.5378 100.283 46.9348L96.1545 40.0822ZM75.8097 69.8731C74.7103 77.4775 76.4962 84.4795 81.3861 89.6188L87.1819 84.1044C84.2912 81.0663 82.9095 76.6748 83.7274 71.0179L75.8097 69.8731Z" fill="#31395A" mask="url(#path-4-inside-2_41_73)"/>
<path d="M115.525 66.2011L115.52 66.2132L115.516 66.2255C114.368 69.5501 113.329 71.3924 112.234 72.4074C111.266 73.3042 110.073 73.7185 108.038 73.6141C105.698 73.4941 104.012 73.2437 102.847 72.8682C101.684 72.4932 101.304 72.081 101.163 71.8189C101.019 71.551 100.881 70.9885 101.203 69.7768C101.523 68.5722 102.228 66.9934 103.391 64.933L104.456 63.1585C105.611 61.457 106.457 60.3078 107.177 59.5537C107.894 58.8031 108.296 58.6494 108.523 58.612C108.761 58.5726 109.212 58.5952 110.171 59.0673C111.132 59.5405 112.341 60.3289 114.035 61.4987C115.195 62.3462 115.648 63.009 115.822 63.5589C115.994 64.1048 115.998 64.8847 115.525 66.2011Z" fill="white" stroke="#31395A" stroke-width="4"/>
</svg>
