<svg width="903" height="286" viewBox="0 0 903 286" fill="none" xmlns="http://www.w3.org/2000/svg">
<path d="M784.568 190.904L785.704 191.415L786.948 191.502C789.641 191.692 791.453 190.3 791.784 190.046C791.791 190.04 791.797 190.035 791.802 190.031C792.393 189.579 792.805 189.122 793.005 188.891C793.438 188.391 793.795 187.865 794.039 187.491C794.565 186.686 795.174 185.629 795.834 184.426L789.994 181.222L795.834 184.426C797.157 182.014 799.119 178.273 801.7 173.248L801.705 173.238L801.711 173.227C804.33 168.084 805.725 165.377 806.019 164.847L809.851 157.936L802.529 154.966C787.675 148.94 775.818 144.395 767.011 141.361L767.01 141.361C757.854 138.207 748.79 136.29 739.829 135.659C731.826 135.095 724.435 136.021 717.877 138.744C710.929 141.583 705.599 146.597 701.922 153.371C698.828 158.992 696.941 164.752 696.529 170.603C695.978 178.419 698.163 185.513 703.17 191.423C703.346 191.631 703.523 191.836 703.702 192.04L703.372 196.723C702.944 197.501 702.271 198.664 701.326 200.246C699.347 203.479 697.314 206.801 695.23 210.212C693.118 213.628 691.343 216.593 689.918 219.095L685.964 226.032L693.36 229.044C697.91 230.897 702.821 232.891 708.09 235.026L708.091 235.027C713.44 237.194 718.501 239.113 723.27 240.781C728.199 242.539 733.34 244.063 738.692 245.358C744.117 246.718 749.166 247.59 753.805 247.916C762.231 248.509 769.937 247.467 776.609 244.362C783.365 241.217 788.625 236.156 792.361 229.478L792.38 229.443L792.399 229.408C794.339 225.846 795.431 221.977 795.719 217.887C796.126 212.111 794.91 206.486 792.277 201.116C790.426 197.305 787.774 193.901 784.474 190.862C784.507 190.876 784.538 190.89 784.568 190.904ZM737.75 171.655C737.75 171.655 737.751 171.656 737.753 171.659C737.751 171.656 737.75 171.655 737.75 171.655ZM703.755 195.998C703.755 195.998 703.753 196.001 703.75 196.007C703.753 196.001 703.755 195.998 703.755 195.998Z" fill="#FBC418" stroke="#3F60B5" stroke-width="14"/>
<path d="M864.497 228.011L863.924 225.343L886.879 215.738L893.109 213.131L890.728 206.812C888.372 200.56 884.794 194.919 880.069 189.906C875.433 184.893 869.962 180.77 863.714 177.529C858.958 175.061 854.008 173.212 848.872 171.994L848.872 171.994C843.732 170.776 838.46 170.208 833.074 170.284L833.057 170.284L833.04 170.285C827.623 170.387 822.234 171.218 816.89 172.757L816.88 172.76L816.87 172.763C811.32 174.379 805.486 178.418 799.512 183.798L799.502 183.807L799.493 183.815C793.212 189.513 788.137 196.054 784.315 203.422C779.413 212.869 777.518 222.446 779.347 231.893C780.483 237.865 783.535 243.185 787.999 247.849L788.007 247.856L788.014 247.864C792.403 252.421 797.834 256.308 804.172 259.596C811.284 263.286 818.881 265.982 826.942 267.696C835 269.471 842.657 270.073 849.85 269.367C857.103 268.682 863.63 266.525 868.373 262.009L871.214 259.305L870.391 255.47L864.497 228.011Z" fill="#FBC418" stroke="#3F60B5" stroke-width="14"/>
<path d="M720.811 153.835L725.296 151.762L724.845 146.842C724.25 140.341 722.417 134.472 718.881 129.727C715.862 125.614 711.748 121.7 706.759 117.941C701.999 114.152 696.332 111.9 690.011 111.009C686.926 110.574 683.751 110.445 680.495 110.601L680.495 110.601C677.415 110.75 674.123 111.063 670.629 111.533L670.614 111.535L670.599 111.537C668.54 111.822 666.373 112.16 664.098 112.55L662.807 110.568L660.778 107.453L657.062 107.389L625.034 106.838L618.649 106.729L617.955 113.077L612.904 159.284C612.191 162.866 611.665 165.806 611.349 168.053C609.489 181.247 608.573 196.31 608.565 213.207L608.562 220.033L615.386 220.208L655.352 221.23L662.09 221.403L662.517 214.676C663.314 202.131 664.354 191.359 665.626 182.334C667.483 169.158 669.801 161.369 672.015 157.752C673.32 155.634 674.347 154.632 674.945 154.216C675.065 154.132 675.151 154.082 675.209 154.052C675.255 154.073 675.342 154.118 675.467 154.21C675.765 154.427 676.266 154.895 676.899 155.829L676.943 155.894L676.988 155.958C678.412 157.963 679.514 160.392 680.218 163.354L682.197 171.678L689.964 168.089L720.811 153.835ZM675.301 154.015C675.3 154.016 675.289 154.02 675.27 154.024C675.291 154.015 675.301 154.013 675.301 154.015Z" fill="#FBC418" stroke="#3F60B5" stroke-width="14"/>
<path d="M597.468 151.606L594.803 148.377L614.116 125.256L618.445 120.074L613.422 115.561C607.725 110.444 601.102 106.589 593.629 103.976C586.242 101.314 578.469 100 570.358 100C564.18 100 558.137 100.736 552.241 102.215L552.24 102.215C546.34 103.695 540.647 105.912 535.175 108.85L535.16 108.858L535.145 108.866C529.666 111.841 524.599 115.548 519.947 119.96L519.939 119.967L519.932 119.974C515.234 124.456 511.426 131.592 508.137 140.356L508.132 140.368L508.128 140.38C504.721 149.559 503 158.952 503 168.524C503 180.777 506.138 191.472 512.931 200.05C517.163 205.429 522.993 209.195 529.973 211.575L529.983 211.579L529.993 211.582C536.866 213.903 544.474 215 552.729 215C561.999 215 571.242 213.72 580.445 211.182C589.682 208.708 597.845 205.251 604.818 200.718C611.861 196.177 617.243 190.604 619.619 183.698L620.895 179.99L618.399 176.965L597.468 151.606ZM549.584 144.306L549.687 144.173L549.784 144.034C549.993 143.735 550.776 142.902 553.014 141.91C553.521 141.692 554.027 141.501 554.534 141.337L545.987 151.953C546.513 149.295 547.683 146.768 549.584 144.306Z" fill="#FBC418" stroke="#3F60B5" stroke-width="14"/>
<path d="M466.436 121.852L446.333 57.9353L444.899 53.3758L440.131 53.0516L395.475 50.0161L387.732 49.4898L388.004 57.2461L388.666 76.0515L388.853 81.3709L394.029 82.6124L402.972 84.7576L445.705 206.722L447.315 211.319L452.186 211.406L485.293 211.999L490.472 212.092L492.074 207.166L536.657 70.123L539.466 61.4871L530.399 60.9689L487.656 58.5257L481.824 58.1924L480.452 63.8696L466.436 121.852Z" fill="#FBC418" stroke="#3F60B5" stroke-width="14"/>
<path d="M229.072 64.8896L225.637 66.3257L224.908 69.9764L221.136 88.857L219.027 99.4101L229.529 97.0593L232.754 96.3374L239.25 221.374L239.602 228.137L246.373 228.01L283.009 227.32L290.236 227.184L289.868 219.964L288.58 194.728L357.666 232.155L368.742 238.155L367.987 225.581L366.14 194.803L365.948 191.612L363.411 189.667L289.887 133.319L323.887 84.1557L327.529 78.8885L322.606 74.7928L296.129 52.7655L291.074 48.5597L286.561 53.3431L277.871 62.5541V55V44.4859L268.17 48.5418L229.072 64.8896Z" fill="#FBC418" stroke="#3F60B5" stroke-width="14"/>
<mask id="path-7-outside-1_43_115" maskUnits="userSpaceOnUse" x="0" y="52" width="179" height="234" fill="black">
<rect fill="white" y="52" width="179" height="234"/>
<path fill-rule="evenodd" clip-rule="evenodd" d="M20 87.3673C28.5753 84.5324 36.619 81.9103 44.1313 79.5007C51.7144 77.0911 59.6873 74.8233 68.0498 72.6972C76.4126 70.5002 84.4207 68.7639 92.0748 67.4883C97.957 66.4961 103.981 66 110.146 66C120.423 66 127.155 66.2835 130.345 66.8504C135.164 67.7717 139.699 69.26 143.952 71.3152C148.275 73.3705 152.102 76.1344 155.432 79.6071C158.834 83.0089 161.598 87.0483 163.724 91.7259C164.575 93.6393 165 95.6591 165 97.7852C165 105.723 160.641 115.503 151.924 127.125C143.278 138.748 134.561 148.882 125.773 157.529C117.056 166.175 110.536 172.376 106.213 176.132L125.348 243.21L97.4963 263.302L48.7024 123.936C48.5606 123.936 47.8872 124.609 46.6826 125.956C45.4778 127.302 43.8831 129.074 41.8988 131.271C39.9853 133.397 38.7805 134.708 38.2844 135.205C38.0718 135.205 37.3631 133.681 36.1583 130.633C35.0244 127.586 33.4653 123.369 31.4809 117.983C29.5674 112.526 27.4059 106.502 24.9963 99.9112C22.5159 93.2494 20.8504 89.0682 20 87.3673ZM88.7792 116.92L97.4962 148.28C101.89 143.815 107.347 137.721 113.867 129.996C120.387 122.271 123.647 116.672 123.647 113.199C123.647 111.853 123.08 111.073 121.946 110.861C118.757 110.152 115.604 109.798 112.485 109.798C103.13 109.798 95.2283 112.172 88.7792 116.92Z"/>
</mask>
<path fill-rule="evenodd" clip-rule="evenodd" d="M20 87.3673C28.5753 84.5324 36.619 81.9103 44.1313 79.5007C51.7144 77.0911 59.6873 74.8233 68.0498 72.6972C76.4126 70.5002 84.4207 68.7639 92.0748 67.4883C97.957 66.4961 103.981 66 110.146 66C120.423 66 127.155 66.2835 130.345 66.8504C135.164 67.7717 139.699 69.26 143.952 71.3152C148.275 73.3705 152.102 76.1344 155.432 79.6071C158.834 83.0089 161.598 87.0483 163.724 91.7259C164.575 93.6393 165 95.6591 165 97.7852C165 105.723 160.641 115.503 151.924 127.125C143.278 138.748 134.561 148.882 125.773 157.529C117.056 166.175 110.536 172.376 106.213 176.132L125.348 243.21L97.4963 263.302L48.7024 123.936C48.5606 123.936 47.8872 124.609 46.6826 125.956C45.4778 127.302 43.8831 129.074 41.8988 131.271C39.9853 133.397 38.7805 134.708 38.2844 135.205C38.0718 135.205 37.3631 133.681 36.1583 130.633C35.0244 127.586 33.4653 123.369 31.4809 117.983C29.5674 112.526 27.4059 106.502 24.9963 99.9112C22.5159 93.2494 20.8504 89.0682 20 87.3673ZM88.7792 116.92L97.4962 148.28C101.89 143.815 107.347 137.721 113.867 129.996C120.387 122.271 123.647 116.672 123.647 113.199C123.647 111.853 123.08 111.073 121.946 110.861C118.757 110.152 115.604 109.798 112.485 109.798C103.13 109.798 95.2283 112.172 88.7792 116.92Z" fill="#FBC418"/>
<path d="M44.1313 79.5007L39.8917 66.158L39.8734 66.1638L39.8552 66.1697L44.1313 79.5007ZM20 87.3673L15.6057 74.0748L0.241334 79.154L7.47786 93.6279L20 87.3673ZM68.0498 72.6972L71.4994 86.2656L71.5533 86.2519L71.607 86.2377L68.0498 72.6972ZM92.0748 67.4883L94.3764 81.2978L94.3899 81.2955L94.4034 81.2932L92.0748 67.4883ZM130.345 66.8504L132.973 53.0995L132.884 53.0824L132.795 53.0665L130.345 66.8504ZM143.952 71.3152L137.859 83.9201L137.9 83.9397L137.941 83.9591L143.952 71.3152ZM155.432 79.6071L145.329 89.298L145.43 89.4034L145.533 89.5066L155.432 79.6071ZM163.724 91.7259L176.518 86.0402L176.494 85.9865L176.47 85.9331L163.724 91.7259ZM151.924 127.125L140.724 118.725L140.708 118.747L140.692 118.769L151.924 127.125ZM125.773 157.529L115.955 147.549L115.935 147.569L115.914 147.589L125.773 157.529ZM106.213 176.132L97.031 165.564L90.3067 171.406L92.7503 179.972L106.213 176.132ZM125.348 243.21L133.539 254.564L141.506 248.817L138.811 239.37L125.348 243.21ZM97.4963 263.302L84.2827 267.928L90.4792 285.627L105.687 274.656L97.4963 263.302ZM48.7024 123.936L61.9159 119.31L58.634 109.936H48.7024V123.936ZM46.6826 125.956L57.116 135.291L57.1168 135.29L46.6826 125.956ZM41.8988 131.271L31.5092 121.887L31.5009 121.897L31.4926 121.906L41.8988 131.271ZM38.2844 135.205V149.205H44.0839L48.1845 145.103L38.2844 135.205ZM36.1583 130.633L23.0372 135.516L23.0867 135.649L23.1389 135.781L36.1583 130.633ZM31.4809 117.983L18.2696 122.616L18.306 122.72L18.3441 122.823L31.4809 117.983ZM24.9963 99.9112L38.1452 95.1042L38.1309 95.0651L38.1164 95.0261L24.9963 99.9112ZM97.4962 148.28L84.0076 152.029L90.4918 175.357L107.475 158.1L97.4962 148.28ZM88.7792 116.92L80.4785 105.646L72.7055 111.369L75.2906 120.67L88.7792 116.92ZM113.867 129.996L124.566 139.026L124.566 139.026L113.867 129.996ZM121.946 110.861L118.91 124.527L119.137 124.578L119.365 124.621L121.946 110.861ZM39.8552 66.1697C32.2984 68.5936 24.215 71.2287 15.6057 74.0748L24.3943 100.66C32.9356 97.8361 40.9396 95.227 48.4073 92.8316L39.8552 66.1697ZM64.6002 59.1289C55.9941 61.3169 47.7566 63.659 39.8917 66.158L48.3708 92.8433C55.6722 90.5233 63.3804 88.3297 71.4994 86.2656L64.6002 59.1289ZM89.7733 53.6787C81.6521 55.0322 73.2235 56.863 64.4926 59.1567L71.607 86.2377C79.6017 84.1375 87.1893 82.4956 94.3764 81.2978L89.7733 53.6787ZM110.146 52C103.227 52 96.4231 52.557 89.7462 53.6833L94.4034 81.2932C99.4908 80.4351 104.735 80 110.146 80V52ZM132.795 53.0665C128.171 52.2445 120.161 52 110.146 52V80C120.684 80 126.14 80.3225 127.894 80.6343L132.795 53.0665ZM150.044 58.7104C144.65 56.1033 138.945 54.2412 132.973 53.0995L127.716 80.6014C131.382 81.3023 134.749 82.4167 137.859 83.9201L150.044 58.7104ZM165.536 69.9163C161.038 65.2259 155.826 61.4587 149.963 58.6713L137.941 83.9591C140.724 85.2822 143.166 87.0429 145.329 89.298L165.536 69.9163ZM176.47 85.9331C173.696 79.8312 169.999 74.3748 165.332 69.7076L145.533 89.5066C147.669 91.6429 149.5 94.2654 150.979 97.5187L176.47 85.9331ZM179 97.7852C179 93.7302 178.176 89.7708 176.518 86.0402L150.931 97.4115C150.974 97.5079 151 97.5879 151 97.7852H179ZM163.124 135.525C172.342 123.236 179 110.387 179 97.7852H151C151 101.059 148.941 107.77 140.724 118.725L163.124 135.525ZM135.592 167.508C144.972 158.28 154.154 147.584 163.157 135.481L140.692 118.769C132.402 129.912 124.151 139.485 115.955 147.549L135.592 167.508ZM115.396 186.7C120.09 182.622 126.885 176.145 135.632 167.468L115.914 147.589C107.228 156.205 100.983 162.13 97.031 165.564L115.396 186.7ZM138.811 239.37L119.676 172.291L92.7503 179.972L111.885 247.051L138.811 239.37ZM105.687 274.656L133.539 254.564L117.158 231.856L89.3057 251.948L105.687 274.656ZM35.4888 128.562L84.2827 267.928L110.71 258.676L61.9159 119.31L35.4888 128.562ZM57.1168 135.29C57.3753 135.001 57.5809 134.776 57.7394 134.605C57.8177 134.521 57.8786 134.457 57.9236 134.41C57.9696 134.362 57.9906 134.341 57.9902 134.341C57.9893 134.342 57.9797 134.351 57.9623 134.368C57.9452 134.385 57.9161 134.413 57.8764 134.45C57.8107 134.511 57.6477 134.662 57.4118 134.857C57.233 135.004 56.704 135.436 55.9391 135.905C55.5544 136.141 54.8543 136.545 53.9158 136.924C53.1237 137.244 51.2324 137.936 48.7024 137.936V109.936C46.1546 109.936 44.2414 110.634 43.4233 110.964C42.4588 111.354 41.7285 111.774 41.3094 112.031C40.476 112.541 39.8616 113.036 39.581 113.268C38.9694 113.773 38.4686 114.265 38.192 114.541C37.5758 115.157 36.9003 115.893 36.2484 116.622L57.1168 135.29ZM52.2885 140.655C54.2789 138.451 55.8901 136.661 57.116 135.291L36.2493 116.621C35.0655 117.944 33.4873 119.697 31.5092 121.887L52.2885 140.655ZM48.1845 145.103C49.0004 144.287 50.4864 142.657 52.305 140.637L31.4926 121.906C30.5514 122.952 29.8077 123.771 29.2514 124.376C28.9733 124.679 28.7565 124.913 28.5944 125.085C28.4174 125.273 28.3608 125.329 28.3843 125.306L48.1845 145.103ZM23.1389 135.781C23.7667 137.369 24.3665 138.82 24.8994 139.966C25.1383 140.48 25.5379 141.313 26.0516 142.163C26.2725 142.528 26.8284 143.428 27.6906 144.404C28.113 144.882 28.9725 145.798 30.2598 146.69C31.3809 147.468 34.2125 149.205 38.2844 149.205V121.205C42.3298 121.205 45.131 122.929 46.2178 123.683C47.4707 124.552 48.292 125.432 48.6723 125.863C49.4504 126.743 49.9066 127.5 50.0123 127.675C50.2957 128.144 50.403 128.406 50.2876 128.158C50.1117 127.779 49.7547 126.946 49.1778 125.486L23.1389 135.781ZM18.3441 122.823C20.3305 128.215 21.8956 132.447 23.0372 135.516L49.2795 125.751C48.1533 122.725 46.6001 118.524 44.6178 113.143L18.3441 122.823ZM11.8475 104.718C14.2401 111.263 16.3803 117.228 18.2696 122.616L44.6923 113.35C42.7546 107.825 40.5717 101.741 38.1452 95.1042L11.8475 104.718ZM7.47786 93.6279C7.9204 94.5131 9.31 97.904 11.8763 104.796L38.1164 95.0261C35.7217 88.5948 33.7805 83.6234 32.5221 81.1066L7.47786 93.6279ZM110.985 144.531L102.268 113.171L75.2906 120.67L84.0076 152.029L110.985 144.531ZM103.168 120.966C96.7577 128.561 91.5579 134.355 87.5177 138.46L107.475 158.1C112.222 153.276 117.936 146.88 124.566 139.026L103.168 120.966ZM109.647 113.199C109.647 111.961 109.918 111.307 109.861 111.468C109.82 111.581 109.626 112.061 109.104 112.958C108.042 114.782 106.161 117.421 103.168 120.966L124.566 139.026C128.093 134.846 131.102 130.823 133.301 127.048C135.266 123.672 137.647 118.745 137.647 113.199H109.647ZM119.365 124.621C117.153 124.206 114.119 122.891 111.899 119.839C109.874 117.053 109.647 114.343 109.647 113.199H137.647C137.647 110.71 137.137 106.936 134.545 103.371C131.758 99.5391 127.873 97.7284 124.528 97.1008L119.365 124.621ZM112.485 123.798C114.534 123.798 116.67 124.03 118.91 124.527L124.983 97.1941C120.845 96.2745 116.673 95.7977 112.485 95.7977V123.798ZM97.0798 128.194C100.736 125.502 105.598 123.798 112.485 123.798V95.7977C100.663 95.7977 89.72 98.842 80.4785 105.646L97.0798 128.194Z" fill="#3F60B5" mask="url(#path-7-outside-1_43_115)"/>
<mask id="path-9-outside-2_43_115" maskUnits="userSpaceOnUse" x="310" y="0" width="134" height="195" fill="black">
<rect fill="white" x="310" width="134" height="195"/>
<path fill-rule="evenodd" clip-rule="evenodd" d="M337.488 44.8387L384.174 19L404.23 49.8312L347.562 60.6048L337.488 44.8387ZM406.77 128.398L427.88 153.887C426.187 158.792 422.158 163.288 415.793 167.376C409.486 171.463 401.954 174.675 393.195 177.01C384.495 179.404 375.795 180.601 367.093 180.601C359.385 180.601 352.495 179.58 346.423 177.536C340.408 175.492 335.766 172.397 332.496 168.251C326.832 161.128 324 152.018 324 140.924C324 132.165 325.577 123.552 328.73 115.085C331.941 106.56 335.328 100.604 338.891 97.2168C343.153 93.1877 347.766 89.8302 352.73 87.1441C357.751 84.4581 362.947 82.4436 368.32 81.1006C373.692 79.7575 379.21 79.0859 384.873 79.0859C392.291 79.0859 399.326 80.283 405.983 82.6772C412.699 85.0127 418.567 88.4287 423.588 92.9251L375.502 150.296C379.764 150.296 383.793 149.42 387.589 147.668C391.444 145.858 394.976 143.318 398.187 140.048C401.4 136.719 404.261 132.836 406.77 128.398ZM382.509 107.99C379.648 106.53 376.728 105.801 373.75 105.801C370.596 105.801 367.531 106.443 364.553 107.727C361.635 109.012 359.561 110.53 358.336 112.282C354.714 116.953 352.904 122.092 352.904 127.698C352.904 129.741 353.109 131.698 353.518 133.566C353.927 135.435 354.626 138.004 355.62 141.274L382.509 107.99Z"/>
</mask>
<path fill-rule="evenodd" clip-rule="evenodd" d="M337.488 44.8387L384.174 19L404.23 49.8312L347.562 60.6048L337.488 44.8387ZM406.77 128.398L427.88 153.887C426.187 158.792 422.158 163.288 415.793 167.376C409.486 171.463 401.954 174.675 393.195 177.01C384.495 179.404 375.795 180.601 367.093 180.601C359.385 180.601 352.495 179.58 346.423 177.536C340.408 175.492 335.766 172.397 332.496 168.251C326.832 161.128 324 152.018 324 140.924C324 132.165 325.577 123.552 328.73 115.085C331.941 106.56 335.328 100.604 338.891 97.2168C343.153 93.1877 347.766 89.8302 352.73 87.1441C357.751 84.4581 362.947 82.4436 368.32 81.1006C373.692 79.7575 379.21 79.0859 384.873 79.0859C392.291 79.0859 399.326 80.283 405.983 82.6772C412.699 85.0127 418.567 88.4287 423.588 92.9251L375.502 150.296C379.764 150.296 383.793 149.42 387.589 147.668C391.444 145.858 394.976 143.318 398.187 140.048C401.4 136.719 404.261 132.836 406.77 128.398ZM382.509 107.99C379.648 106.53 376.728 105.801 373.75 105.801C370.596 105.801 367.531 106.443 364.553 107.727C361.635 109.012 359.561 110.53 358.336 112.282C354.714 116.953 352.904 122.092 352.904 127.698C352.904 129.741 353.109 131.698 353.518 133.566C353.927 135.435 354.626 138.004 355.62 141.274L382.509 107.99Z" fill="#FBC418"/>
<path d="M384.174 19L395.909 11.3658L388.8 0.438189L377.394 6.7509L384.174 19ZM337.488 44.8387L330.708 32.5896L317.661 39.8108L325.69 52.3769L337.488 44.8387ZM404.23 49.8312L406.845 63.5849L427.344 59.6878L415.966 42.197L404.23 49.8312ZM347.562 60.6048L335.765 68.1429L340.867 76.1283L350.177 74.3584L347.562 60.6048ZM427.88 153.887L441.114 158.455L443.682 151.017L438.662 144.957L427.88 153.887ZM406.77 128.398L417.553 119.469L404.589 103.815L394.584 121.507L406.77 128.398ZM415.793 167.376L408.228 155.596L408.204 155.611L408.18 155.627L415.793 167.376ZM393.195 177.01L389.588 163.483L389.534 163.497L389.48 163.512L393.195 177.01ZM346.423 177.536L341.919 190.792L341.938 190.798L341.957 190.804L346.423 177.536ZM332.496 168.251L343.488 159.581L343.471 159.56L343.455 159.539L332.496 168.251ZM328.73 115.085L315.629 110.151L315.62 110.175L315.611 110.199L328.73 115.085ZM338.891 97.2168L329.273 87.0431L329.259 87.0567L329.244 87.0704L338.891 97.2168ZM352.73 87.1441L346.126 74.7996L346.096 74.8155L346.067 74.8315L352.73 87.1441ZM368.32 81.1006L371.715 94.6826L371.715 94.6826L368.32 81.1006ZM405.983 82.6772L401.245 95.851L401.315 95.8761L401.384 95.9004L405.983 82.6772ZM423.588 92.9251L434.317 101.918L443.02 91.5344L432.927 82.4958L423.588 92.9251ZM375.502 150.296L364.773 141.303L345.501 164.296H375.502V150.296ZM387.589 147.668L393.456 160.379L393.498 160.36L393.54 160.34L387.589 147.668ZM398.187 140.048L408.176 149.857L408.218 149.814L408.26 149.771L398.187 140.048ZM382.509 107.99L393.399 116.788L404.245 103.363L388.872 95.5197L382.509 107.99ZM364.553 107.727L359.008 94.8726L358.96 94.8931L358.913 94.914L364.553 107.727ZM358.336 112.282L369.4 120.86L369.611 120.588L369.808 120.306L358.336 112.282ZM353.518 133.566L339.841 136.56L339.841 136.56L353.518 133.566ZM355.62 141.274L342.225 145.345L349.907 170.623L366.51 150.072L355.62 141.274ZM377.394 6.7509L330.708 32.5896L344.267 57.0878L390.953 31.2491L377.394 6.7509ZM415.966 42.197L395.909 11.3658L372.438 26.6342L392.495 57.4655L415.966 42.197ZM350.177 74.3584L406.845 63.5849L401.616 36.0776L344.947 46.8511L350.177 74.3584ZM325.69 52.3769L335.765 68.1429L359.359 53.0666L349.285 37.3005L325.69 52.3769ZM438.662 144.957L417.553 119.469L395.988 137.328L417.098 162.817L438.662 144.957ZM423.359 179.155C431.198 174.121 438.018 167.424 441.114 158.455L414.647 149.318C414.356 150.16 413.118 152.455 408.228 155.596L423.359 179.155ZM396.802 190.538C406.699 187.899 415.643 184.156 423.407 179.124L408.18 155.627C403.33 158.77 397.209 161.451 389.588 163.483L396.802 190.538ZM367.093 194.601C377.096 194.601 387.044 193.223 396.909 190.509L389.48 163.512C381.945 165.586 374.494 166.601 367.093 166.601V194.601ZM341.957 190.804C349.726 193.419 358.165 194.601 367.093 194.601V166.601C360.605 166.601 355.264 165.74 350.889 164.267L341.957 190.804ZM321.503 176.922C326.761 183.588 333.869 188.056 341.919 190.792L350.927 164.28C346.947 162.928 344.77 161.207 343.488 159.581L321.503 176.922ZM310 140.924C310 154.469 313.502 166.856 321.536 176.963L343.455 159.539C340.163 155.399 338 149.568 338 140.924H310ZM315.611 110.199C311.894 120.179 310 130.444 310 140.924H338C338 133.886 339.26 126.925 341.85 119.972L315.611 110.199ZM329.244 87.0704C323.345 92.6791 319.054 101.058 315.629 110.151L341.832 120.02C344.829 112.062 347.311 108.528 348.537 107.363L329.244 87.0704ZM346.067 74.8315C339.989 78.1206 334.388 82.2075 329.273 87.0431L348.508 107.39C351.917 104.168 355.544 101.54 359.393 99.4568L346.067 74.8315ZM364.925 67.5185C358.405 69.1484 352.133 71.5861 346.126 74.7996L359.334 99.4887C363.369 97.3301 367.49 95.7388 371.715 94.6826L364.925 67.5185ZM384.873 65.0859C378.091 65.0859 371.432 65.8917 364.925 67.5185L371.715 94.6826C375.952 93.6234 380.329 93.0859 384.873 93.0859V65.0859ZM410.721 69.5033C402.472 66.5364 393.827 65.0859 384.873 65.0859V93.0859C390.754 93.0859 396.18 94.0295 401.245 95.851L410.721 69.5033ZM432.927 82.4958C426.452 76.6968 418.95 72.3642 410.581 69.4539L401.384 95.9004C406.448 97.6613 410.682 100.161 414.248 103.354L432.927 82.4958ZM386.232 159.289L434.317 101.918L412.858 83.932L364.773 141.303L386.232 159.289ZM381.722 134.957C379.803 135.843 377.779 136.296 375.502 136.296V164.296C381.75 164.296 387.784 162.997 393.456 160.379L381.722 134.957ZM388.198 130.239C386.062 132.414 383.876 133.945 381.639 134.996L393.54 160.34C399.012 157.771 403.89 154.222 408.176 149.857L388.198 130.239ZM394.584 121.507C392.598 125.019 390.427 127.929 388.114 130.325L408.26 149.771C412.373 145.51 415.924 140.653 418.957 135.29L394.584 121.507ZM373.75 119.801C374.345 119.801 375.098 119.926 376.147 120.461L388.872 95.5197C384.198 93.1352 379.11 91.8006 373.75 91.8006V119.801ZM370.099 120.582C371.376 120.031 372.559 119.801 373.75 119.801V91.8006C368.634 91.8006 363.685 92.8547 359.008 94.8726L370.099 120.582ZM369.808 120.306C369.383 120.914 369.041 121.154 369.082 121.124C369.098 121.112 369.189 121.048 369.377 120.942C369.565 120.837 369.832 120.7 370.194 120.541L358.913 94.914C354.728 96.7561 350.112 99.6137 346.863 104.259L369.808 120.306ZM366.904 127.698C366.904 125.373 367.571 123.219 369.4 120.86L347.272 103.704C341.857 110.688 338.904 118.811 338.904 127.698H366.904ZM367.194 130.573C367.014 129.752 366.904 128.803 366.904 127.698H338.904C338.904 130.68 339.203 133.643 339.841 136.56L367.194 130.573ZM369.015 137.203C368.062 134.067 367.486 131.907 367.194 130.573L339.841 136.56C340.367 138.963 341.19 141.941 342.225 145.345L369.015 137.203ZM371.619 99.1923L344.73 132.476L366.51 150.072L393.399 116.788L371.619 99.1923Z" fill="#3F60B5" mask="url(#path-9-outside-2_43_115)"/>
<mask id="path-11-outside-3_43_115" maskUnits="userSpaceOnUse" x="138" y="114.422" width="117" height="122" fill="black">
<rect fill="white" x="138" y="114.422" width="117" height="122"/>
<path fill-rule="evenodd" clip-rule="evenodd" d="M225.404 134.784C229.077 136.75 232.052 139.414 234.327 142.777C236.655 146.087 238.337 149.838 239.371 154.028C240.457 158.166 241 162.486 241 166.986C241 170.71 240.69 174.306 240.069 177.771C239.5 181.237 238.697 184.419 237.663 187.316C236.628 190.212 235.413 192.669 234.017 194.687C230.758 199.549 227.265 203.74 223.542 207.257C219.817 210.775 216.014 213.62 212.135 215.792C208.256 217.913 204.401 219.465 200.574 220.448C196.797 221.483 193.047 222 189.323 222C184.926 222 180.736 221.302 176.752 219.905C172.821 218.56 169.459 216.775 166.665 214.551C162.061 210.723 158.466 205.576 155.88 199.11C153.293 192.592 152 185.712 152 178.47C152 166.003 155.595 155.942 162.786 148.286C168.941 141.716 175.304 136.776 181.874 133.465C188.443 130.103 195.168 128.422 202.047 128.422C206.082 128.422 209.963 128.939 213.688 129.974C217.411 130.957 221.317 132.56 225.404 134.784ZM220.826 147.82C219.946 151.752 218.033 155.218 215.083 158.218C212.188 161.218 209.342 162.718 206.548 162.718C205.151 162.718 203.91 162.356 202.825 161.632C201.272 160.391 200.497 158.218 200.497 155.114C200.497 152.735 201.272 150.381 202.825 148.053C204.428 145.725 206.936 143.889 210.351 142.544C206.936 142.544 203.626 143.191 200.419 144.484C197.263 145.777 194.547 147.458 192.271 149.527C189.995 151.545 188.159 153.847 186.762 156.433C185.417 158.968 184.745 161.529 184.745 164.115C184.745 168.926 186.969 172.754 191.418 175.599C195.556 178.237 199.487 179.556 203.212 179.556C206.885 179.556 210.144 178.341 212.989 175.909C215.833 173.426 218.007 170.271 219.507 166.443C221.007 162.563 221.757 158.735 221.757 154.959C221.757 152.372 221.446 149.993 220.826 147.82Z"/>
</mask>
<path fill-rule="evenodd" clip-rule="evenodd" d="M225.404 134.784C229.077 136.75 232.052 139.414 234.327 142.777C236.655 146.087 238.337 149.838 239.371 154.028C240.457 158.166 241 162.486 241 166.986C241 170.71 240.69 174.306 240.069 177.771C239.5 181.237 238.697 184.419 237.663 187.316C236.628 190.212 235.413 192.669 234.017 194.687C230.758 199.549 227.265 203.74 223.542 207.257C219.817 210.775 216.014 213.62 212.135 215.792C208.256 217.913 204.401 219.465 200.574 220.448C196.797 221.483 193.047 222 189.323 222C184.926 222 180.736 221.302 176.752 219.905C172.821 218.56 169.459 216.775 166.665 214.551C162.061 210.723 158.466 205.576 155.88 199.11C153.293 192.592 152 185.712 152 178.47C152 166.003 155.595 155.942 162.786 148.286C168.941 141.716 175.304 136.776 181.874 133.465C188.443 130.103 195.168 128.422 202.047 128.422C206.082 128.422 209.963 128.939 213.688 129.974C217.411 130.957 221.317 132.56 225.404 134.784ZM220.826 147.82C219.946 151.752 218.033 155.218 215.083 158.218C212.188 161.218 209.342 162.718 206.548 162.718C205.151 162.718 203.91 162.356 202.825 161.632C201.272 160.391 200.497 158.218 200.497 155.114C200.497 152.735 201.272 150.381 202.825 148.053C204.428 145.725 206.936 143.889 210.351 142.544C206.936 142.544 203.626 143.191 200.419 144.484C197.263 145.777 194.547 147.458 192.271 149.527C189.995 151.545 188.159 153.847 186.762 156.433C185.417 158.968 184.745 161.529 184.745 164.115C184.745 168.926 186.969 172.754 191.418 175.599C195.556 178.237 199.487 179.556 203.212 179.556C206.885 179.556 210.144 178.341 212.989 175.909C215.833 173.426 218.007 170.271 219.507 166.443C221.007 162.563 221.757 158.735 221.757 154.959C221.757 152.372 221.446 149.993 220.826 147.82Z" fill="#FBC418"/>
<path d="M234.327 142.777L222.733 150.624L222.803 150.727L222.875 150.829L234.327 142.777ZM225.404 134.784L218.712 147.081L218.755 147.105L218.798 147.127L225.404 134.784ZM239.371 154.028L225.779 157.384L225.804 157.482L225.829 157.579L239.371 154.028ZM240.069 177.771L226.288 175.301L226.27 175.402L226.254 175.504L240.069 177.771ZM234.017 194.687L222.503 186.724L222.445 186.807L222.388 186.892L234.017 194.687ZM223.542 207.257L233.154 217.436L233.156 217.434L223.542 207.257ZM212.135 215.792L218.851 228.076L218.914 228.042L218.977 228.007L212.135 215.792ZM200.574 220.448L197.091 206.888L196.984 206.916L196.876 206.945L200.574 220.448ZM176.752 219.905L181.385 206.694L181.335 206.676L181.284 206.659L176.752 219.905ZM166.665 214.551L157.714 225.316L157.828 225.411L157.944 225.503L166.665 214.551ZM155.88 199.11L142.867 204.274L142.874 204.291L142.881 204.309L155.88 199.11ZM162.786 148.286L172.99 157.87L172.996 157.864L173.002 157.858L162.786 148.286ZM181.874 133.465L188.174 145.968L188.213 145.948L188.252 145.928L181.874 133.465ZM213.688 129.974L209.941 143.463L210.028 143.487L210.114 143.51L213.688 129.974ZM215.083 158.218L205.099 148.403L205.054 148.45L205.009 148.496L215.083 158.218ZM220.826 147.82L234.289 143.98L207.165 144.761L220.826 147.82ZM202.825 161.632L194.081 172.566L194.552 172.943L195.054 173.278L202.825 161.632ZM202.825 148.053L191.295 140.112L191.236 140.198L191.178 140.285L202.825 148.053ZM210.351 142.544L215.481 155.57L210.351 128.544V142.544ZM200.419 144.484L195.183 131.5L195.146 131.515L195.11 131.529L200.419 144.484ZM192.271 149.527L201.557 160.004L201.623 159.946L201.689 159.887L192.271 149.527ZM186.762 156.433L174.443 149.781L174.419 149.826L174.395 149.871L186.762 156.433ZM191.418 175.599L183.875 187.393L183.883 187.399L183.892 187.404L191.418 175.599ZM212.989 175.909L222.085 186.551L222.14 186.504L222.195 186.456L212.989 175.909ZM219.507 166.443L232.542 171.551L232.554 171.521L232.565 171.492L219.507 166.443ZM245.921 134.93C242.338 129.635 237.631 125.45 232.011 122.441L218.798 147.127C220.522 148.051 221.765 149.193 222.733 150.624L245.921 134.93ZM252.963 150.672C251.54 144.91 249.17 139.546 245.779 134.724L222.875 150.829C224.14 152.629 225.133 154.766 225.779 157.384L252.963 150.672ZM255 166.986C255 161.347 254.318 155.831 252.913 150.476L225.829 157.579C226.595 160.501 227 163.624 227 166.986H255ZM253.849 180.242C254.625 175.913 255 171.489 255 166.986H227C227 169.932 226.755 172.698 226.288 175.301L253.849 180.242ZM250.847 192.024C252.201 188.234 253.197 184.224 253.884 180.039L226.254 175.504C225.803 178.251 225.194 180.603 224.478 182.607L250.847 192.024ZM245.532 202.65C247.773 199.41 249.499 195.799 250.847 192.024L224.478 182.607C223.757 184.626 223.053 185.929 222.503 186.724L245.532 202.65ZM233.156 217.434C237.735 213.108 241.886 208.092 245.647 202.482L222.388 186.892C219.63 191.007 216.795 194.371 213.928 197.08L233.156 217.434ZM218.977 228.007C223.997 225.195 228.716 221.627 233.154 217.436L213.93 197.079C210.918 199.922 208.031 202.045 205.294 203.578L218.977 228.007ZM204.057 234.008C209.133 232.704 214.069 230.691 218.851 228.076L205.419 203.509C202.443 205.136 199.669 206.226 197.091 206.888L204.057 234.008ZM189.323 236C194.36 236 199.353 235.298 204.272 233.951L196.876 206.945C194.241 207.667 191.734 208 189.323 208V236ZM172.12 233.116C177.653 235.056 183.414 236 189.323 236V208C186.437 208 183.818 207.547 181.385 206.694L172.12 233.116ZM157.944 225.503C162.179 228.875 167.015 231.37 172.22 233.151L181.284 206.659C178.627 205.749 176.738 204.675 175.386 203.599L157.944 225.503ZM142.881 204.309C146.191 212.584 151.047 219.772 157.714 225.316L175.616 203.786C173.076 201.674 170.741 198.568 168.878 193.91L142.881 204.309ZM138 178.47C138 187.421 139.607 196.058 142.867 204.274L168.893 193.946C166.98 189.126 166 184.003 166 178.47H138ZM152.581 138.701C142.507 149.427 138 163.15 138 178.47H166C166 168.856 168.683 162.456 172.99 157.87L152.581 138.701ZM175.573 120.963C167.25 125.158 159.606 131.204 152.57 138.713L173.002 157.858C178.277 152.228 183.358 148.394 188.174 145.968L175.573 120.963ZM202.047 114.422C192.791 114.422 183.892 116.705 175.495 121.003L188.252 145.928C192.994 143.501 197.546 142.422 202.047 142.422V114.422ZM217.434 116.484C212.437 115.096 207.293 114.422 202.047 114.422V142.422C204.871 142.422 207.489 142.782 209.941 143.463L217.434 116.484ZM232.096 122.487C227.219 119.833 222.267 117.759 217.261 116.437L210.114 143.51C212.556 144.154 215.415 145.287 218.712 147.081L232.096 122.487ZM225.067 168.032C229.766 163.252 233.011 157.475 234.488 150.88L207.165 144.761C206.881 146.029 206.299 147.183 205.099 148.403L225.067 168.032ZM206.548 176.718C214.668 176.718 220.915 172.335 225.157 167.939L205.009 148.496C204.305 149.225 204.032 149.323 204.248 149.209C204.374 149.143 204.645 149.017 205.054 148.908C205.471 148.797 205.979 148.718 206.548 148.718V176.718ZM195.054 173.278C198.605 175.647 202.59 176.718 206.548 176.718V148.718C207.071 148.718 207.739 148.788 208.491 149.007C209.25 149.229 209.964 149.566 210.595 149.986L195.054 173.278ZM186.497 155.114C186.497 160.061 187.695 167.459 194.081 172.566L211.568 150.698C213.13 151.947 213.92 153.403 214.263 154.363C214.565 155.21 214.497 155.581 214.497 155.114H186.497ZM191.178 140.285C188.365 144.502 186.497 149.514 186.497 155.114H214.497C214.497 155.474 214.434 155.768 214.375 155.947C214.321 156.11 214.307 156.069 214.472 155.822L191.178 140.285ZM205.221 129.518C199.977 131.583 194.887 134.897 191.295 140.112L214.354 155.995C214.181 156.246 214.066 156.309 214.178 156.226C214.309 156.131 214.695 155.88 215.481 155.57L205.221 129.518ZM205.655 157.468C207.219 156.837 208.753 156.544 210.351 156.544V128.544C205.118 128.544 200.032 129.544 195.183 131.5L205.655 157.468ZM201.689 159.887C202.633 159.028 203.919 158.179 205.727 157.439L195.11 131.529C190.606 133.375 186.461 135.889 182.854 139.168L201.689 159.887ZM199.081 163.085C199.672 161.991 200.465 160.972 201.557 160.004L182.985 139.05C179.525 142.117 176.646 145.702 174.443 149.781L199.081 163.085ZM198.745 164.115C198.745 164.058 198.737 163.734 199.129 162.996L174.395 149.871C172.097 154.202 170.745 158.999 170.745 164.115H198.745ZM198.96 163.804C198.601 163.574 198.438 163.422 198.398 163.381C198.363 163.347 198.427 163.404 198.518 163.56C198.561 163.634 198.602 163.718 198.639 163.807C198.675 163.896 198.701 163.978 198.719 164.048C198.757 164.194 198.745 164.232 198.745 164.115H170.745C170.745 174.231 175.871 182.275 183.875 187.393L198.96 163.804ZM203.212 165.556C202.877 165.556 201.533 165.445 198.944 163.794L183.892 187.404C189.579 191.03 196.098 193.556 203.212 193.556V165.556ZM203.892 165.267C203.749 165.39 203.649 165.455 203.597 165.487C203.545 165.517 203.521 165.526 203.518 165.527C203.515 165.529 203.503 165.533 203.471 165.539C203.437 165.545 203.355 165.556 203.212 165.556V193.556C210.288 193.556 216.757 191.105 222.085 186.551L203.892 165.267ZM206.472 161.335C205.72 163.255 204.787 164.485 203.782 165.362L222.195 186.456C226.879 182.368 230.294 177.286 232.542 171.551L206.472 161.335ZM207.757 154.959C207.757 156.842 207.39 158.961 206.449 161.394L232.565 171.492C234.625 166.165 235.757 160.629 235.757 154.959H207.757ZM207.363 151.661C207.581 152.425 207.757 153.494 207.757 154.959H235.757C235.757 151.251 235.311 147.561 234.289 143.98L207.363 151.661Z" fill="#3F60B5" mask="url(#path-11-outside-3_43_115)"/>
</svg>
