<svg width="104" height="104" viewBox="0 0 104 104" fill="none" xmlns="http://www.w3.org/2000/svg">
<path d="M21.3616 58.2531C21.1753 58.2531 20.992 58.2176 20.8146 58.1496C20.3268 57.9574 19.9809 57.5198 19.8981 57.0024C19.6143 55.1694 19.4753 53.5344 19.4753 52.003C19.4753 34.0717 34.0658 19.4812 51.9971 19.4812C68.0776 19.4812 81.5741 31.0235 84.0842 46.9266C84.1699 47.4765 83.9453 48.0235 83.4959 48.3517C83.2386 48.5379 82.9312 48.6355 82.6237 48.6355C82.396 48.6355 82.1713 48.5823 81.9585 48.4788C77.9021 46.4418 72.9854 45.0877 67.7406 44.5673C67.1108 44.5052 66.5875 44.047 66.4456 43.4291C65.195 38.0334 60.4705 34.2638 54.9506 34.2638C48.5498 34.2638 43.3729 39.2929 43.166 45.7115C43.1453 46.3353 42.7373 46.8793 42.143 47.0685C35.3785 49.2534 28.8771 52.8101 22.2604 57.9426C22.0032 58.1466 21.6868 58.2531 21.3616 58.2531Z" fill="#DF2C2C"/>
<path d="M52 84.5218C37.315 84.5218 24.4068 74.5908 20.6106 60.3729C20.4599 59.8082 20.6579 59.2051 21.1132 58.8385C27.86 53.4221 34.5092 49.6496 41.4423 47.3021C41.596 47.2489 41.7557 47.2252 41.9153 47.2252C42.1725 47.2252 42.4268 47.2903 42.6545 47.4233C43.024 47.6362 43.2812 47.9969 43.364 48.4138C44.4668 53.9188 49.3392 57.916 54.9536 57.916C61.4579 57.916 66.7619 52.6209 66.7767 46.1165C66.7767 45.6967 66.9571 45.2946 67.2705 45.0167C67.5425 44.7743 67.8913 44.6412 68.255 44.6412C68.3112 44.6412 68.3673 44.6442 68.4206 44.6501C74.0439 45.2858 79.1379 46.8054 83.1559 49.0465C83.8654 49.1381 84.4006 49.6851 84.439 50.4005L84.4686 50.8854C84.4922 51.255 84.5188 51.6275 84.5188 52.0059C84.5218 69.9313 69.9313 84.5218 52 84.5218Z" fill="white"/>
<path d="M52.0001 19.4783C50.7495 19.4783 49.5196 19.564 48.3044 19.703C62.7264 21.3379 74.2686 32.3983 76.6545 46.5778C78.9251 48.0294 81.6422 49.0376 84.4213 49.9807C83.3717 32.9659 69.278 19.4783 52.0001 19.4783Z" fill="#C92828"/>
<path d="M76.6545 46.5778C76.9502 48.3428 77.1305 50.1492 77.1305 52C77.1305 68.7103 64.5239 82.4611 48.3044 84.2971C49.5196 84.436 50.7495 84.5218 52.0001 84.5218C69.961 84.5218 84.5218 69.9609 84.5218 52C84.5218 51.3171 84.4597 50.6518 84.4213 49.9807C81.6422 49.0376 78.9251 48.0294 76.6545 46.5778Z" fill="#E6E6E6"/>
<path d="M54.9567 57.913C48.4346 57.913 43.1306 52.609 43.1306 46.087C43.1306 39.5649 48.4346 34.2609 54.9567 34.2609C61.4788 34.2609 66.7828 39.5649 66.7828 46.087C66.7828 52.609 61.4788 57.913 54.9567 57.913ZM54.9567 43.1304C53.3277 43.1304 52.0002 44.4579 52.0002 46.087C52.0002 47.716 53.3277 49.0435 54.9567 49.0435C56.5857 49.0435 57.9132 47.716 57.9132 46.087C57.9132 44.4579 56.5857 43.1304 54.9567 43.1304Z" fill="white"/>
<path d="M52 86C33.2527 86 18 70.7473 18 52C18 33.2527 33.2527 18 52 18C70.7473 18 86 33.2527 86 52C86 70.7473 70.7473 86 52 86ZM52 20.9565C34.8817 20.9565 20.9565 34.8817 20.9565 52C20.9565 69.1183 34.8817 83.0435 52 83.0435C69.1183 83.0435 83.0435 69.1183 83.0435 52C83.0435 34.8817 69.1183 20.9565 52 20.9565Z" fill="#31395A"/>
<path d="M54.9564 59.3913C47.6213 59.3913 41.6521 53.4221 41.6521 46.0869C41.6521 38.7518 47.6213 32.7826 54.9564 32.7826C62.2916 32.7826 68.2608 38.7518 68.2608 46.0869C68.2608 53.4221 62.2916 59.3913 54.9564 59.3913ZM54.9564 35.7391C49.2504 35.7391 44.6086 40.3809 44.6086 46.0869C44.6086 51.793 49.2504 56.4348 54.9564 56.4348C60.6625 56.4348 65.3043 51.793 65.3043 46.0869C65.3043 40.3809 60.6625 35.7391 54.9564 35.7391Z" fill="#31395A"/>
<path d="M54.9565 50.5218C52.5115 50.5218 50.5217 48.532 50.5217 46.087C50.5217 43.6419 52.5115 41.6522 54.9565 41.6522C57.4016 41.6522 59.3913 43.6419 59.3913 46.087C59.3913 48.532 57.4016 50.5218 54.9565 50.5218ZM54.9565 44.6087C54.1405 44.6087 53.4783 45.271 53.4783 46.087C53.4783 46.903 54.1405 47.5652 54.9565 47.5652C55.7725 47.5652 56.4348 46.903 56.4348 46.087C56.4348 45.271 55.7725 44.6087 54.9565 44.6087Z" fill="#31395A"/>
<path d="M83.1587 50.5217C82.9133 50.5217 82.6679 50.4597 82.4403 50.3355C78.1149 47.923 72.6571 46.3944 66.6672 45.9155C65.8542 45.8504 65.2481 45.1379 65.3131 44.3219C65.3782 43.5118 66.07 42.9235 66.9067 42.9678C73.3164 43.4793 79.1881 45.135 83.886 47.7544C84.5985 48.1506 84.8557 49.0524 84.4566 49.7649C84.1787 50.2497 83.6761 50.5217 83.1587 50.5217Z" fill="#31395A"/>
<path d="M20.9567 60.4379C20.5251 60.4379 20.0964 60.2517 19.8037 59.888C19.2922 59.2524 19.3898 58.3211 20.0254 57.8096C27.5379 51.7546 34.9529 47.6717 42.6931 45.3301C43.4736 45.0906 44.2985 45.5341 44.535 46.3176C44.7715 47.0981 44.331 47.923 43.5475 48.1595C36.1769 50.3887 29.0901 54.3002 21.8792 60.1098C21.6101 60.3285 21.2819 60.4379 20.9567 60.4379Z" fill="#31395A"/>
<path d="M54.9565 47.5652C55.773 47.5652 56.4348 46.9034 56.4348 46.0869C56.4348 45.2705 55.773 44.6087 54.9565 44.6087C54.1401 44.6087 53.4783 45.2705 53.4783 46.0869C53.4783 46.9034 54.1401 47.5652 54.9565 47.5652Z" fill="white"/>
</svg>
