<svg width="104" height="104" viewBox="0 0 104 104" fill="none" xmlns="http://www.w3.org/2000/svg">
<path d="M52 86C33.2527 86 18 70.7473 18 52C18 33.2527 33.2527 18 52 18C70.7473 18 86 33.2527 86 52C86 70.7473 70.7473 86 52 86ZM52 20.9565C34.8817 20.9565 20.9565 34.8817 20.9565 52C20.9565 69.1183 34.8817 83.0435 52 83.0435C69.1183 83.0435 83.0435 69.1183 83.0435 52C83.0435 34.8817 69.1183 20.9565 52 20.9565Z" fill="#31395A"/>
<path d="M54.9564 59.3913C47.6213 59.3913 41.6521 53.4221 41.6521 46.0869C41.6521 38.7518 47.6213 32.7826 54.9564 32.7826C62.2916 32.7826 68.2608 38.7518 68.2608 46.0869C68.2608 53.4221 62.2916 59.3913 54.9564 59.3913ZM54.9564 35.7391C49.2504 35.7391 44.6086 40.3809 44.6086 46.0869C44.6086 51.793 49.2504 56.4348 54.9564 56.4348C60.6625 56.4348 65.3043 51.793 65.3043 46.0869C65.3043 40.3809 60.6625 35.7391 54.9564 35.7391Z" fill="#31395A"/>
<path d="M54.9565 50.5218C52.5115 50.5218 50.5217 48.532 50.5217 46.087C50.5217 43.6419 52.5115 41.6522 54.9565 41.6522C57.4016 41.6522 59.3913 43.6419 59.3913 46.087C59.3913 48.532 57.4016 50.5218 54.9565 50.5218ZM54.9565 44.6087C54.1405 44.6087 53.4783 45.271 53.4783 46.087C53.4783 46.903 54.1405 47.5652 54.9565 47.5652C55.7725 47.5652 56.4348 46.903 56.4348 46.087C56.4348 45.271 55.7725 44.6087 54.9565 44.6087Z" fill="#31395A"/>
<path d="M83.1587 50.5217C82.9133 50.5217 82.6679 50.4597 82.4403 50.3355C78.1149 47.923 72.6571 46.3944 66.6672 45.9155C65.8542 45.8504 65.2481 45.1379 65.3131 44.3219C65.3782 43.5118 66.07 42.9235 66.9067 42.9678C73.3164 43.4793 79.1881 45.135 83.886 47.7544C84.5985 48.1506 84.8557 49.0524 84.4566 49.7649C84.1787 50.2497 83.6761 50.5217 83.1587 50.5217Z" fill="#31395A"/>
<path d="M20.9567 60.4379C20.5251 60.4379 20.0964 60.2517 19.8037 59.888C19.2922 59.2524 19.3898 58.3211 20.0254 57.8096C27.5379 51.7546 34.9529 47.6717 42.6931 45.3301C43.4736 45.0906 44.2985 45.5341 44.535 46.3176C44.7715 47.0981 44.331 47.923 43.5475 48.1595C36.1769 50.3887 29.0901 54.3002 21.8792 60.1098C21.6101 60.3285 21.2819 60.4379 20.9567 60.4379Z" fill="#31395A"/>
</svg>
